<svg width="283" height="27" viewBox="0 0 283 27" fill="none" xmlns="http://www.w3.org/2000/svg">
<path d="M9.252 5.876C8.82 7.244 8.544 8.156 8.424 8.612L5.58 17.504H14.616L11.772 8.612C11.124 6.692 10.548 4.904 10.044 3.248C9.828 4.04 9.564 4.916 9.252 5.876ZM0.432 26L8.568 1.556H11.772L19.908 26H17.424L15.156 19.34H5.004L2.88 26H0.432ZM28.3115 8.9V12.104C28.6235 11.384 29.0675 10.76 29.6435 10.232C30.2195 9.704 30.8315 9.344 31.4795 9.152C32.0555 8.984 32.6915 8.9 33.3875 8.9V11.06C31.5395 11.06 30.2315 11.684 29.4635 12.932C28.7435 14.06 28.3835 15.452 28.3835 17.108V26H26.0075V8.9H28.3115ZM41.6849 8.9V12.104C41.9969 11.384 42.4409 10.76 43.0169 10.232C43.5929 9.704 44.2049 9.344 44.8529 9.152C45.4289 8.984 46.0649 8.9 46.7609 8.9V11.06C44.9129 11.06 43.6049 11.684 42.8369 12.932C42.1169 14.06 41.7569 15.452 41.7569 17.108V26H39.3809V8.9H41.6849ZM57.9743 0.979998H61.2143L64.1303 6.38H62.5823L59.5943 2.708L56.5703 6.38H55.0223L57.9743 0.979998ZM64.0943 16.028C64.0463 12.212 62.5223 10.304 59.5223 10.304C57.9863 10.304 56.8343 10.868 56.0663 11.996C55.2983 13.052 54.8423 14.396 54.6983 16.028H64.0943ZM64.7783 10.88C65.8343 12.368 66.3623 14.276 66.3623 16.604C66.3623 17.06 66.3503 17.384 66.3263 17.576H54.6623C54.6623 19.616 55.0463 21.26 55.8143 22.508C56.6543 23.924 57.9383 24.632 59.6663 24.632C61.8983 24.632 63.3383 23.648 63.9863 21.68L65.8223 22.112C65.5583 23.024 65.1023 23.816 64.4543 24.488C63.8303 25.16 63.1103 25.64 62.2943 25.928C61.5503 26.192 60.6983 26.348 59.7383 26.396H59.6663C57.1223 26.396 55.2263 25.484 53.9783 23.66C52.8263 22.028 52.2503 19.952 52.2503 17.432C52.2503 14.744 52.8983 12.596 54.1943 10.988C55.5143 9.356 57.3143 8.54 59.5943 8.54C61.9223 8.54 63.6503 9.32 64.7783 10.88ZM81.7554 25.46C80.9154 26.012 79.9314 26.288 78.8034 26.288C77.3154 26.288 76.2354 25.844 75.5634 24.956C74.9154 24.044 74.5914 22.58 74.5914 20.564V10.592H72.0714V8.9H74.7714V3.464L77.0034 2.852V8.9H80.7114V10.592H77.0034V21.644C77.0034 23.54 77.7714 24.488 79.3074 24.488C79.8114 24.488 80.4834 24.296 81.3234 23.912L81.7554 25.46ZM99.1381 16.028C99.0901 12.212 97.5661 10.304 94.5661 10.304C93.0301 10.304 91.8781 10.868 91.1101 11.996C90.3421 13.052 89.8861 14.396 89.7421 16.028H99.1381ZM99.8221 10.88C100.878 12.368 101.406 14.276 101.406 16.604C101.406 17.06 101.394 17.384 101.37 17.576H89.7061C89.7061 19.616 90.0901 21.26 90.8581 22.508C91.6981 23.924 92.9821 24.632 94.7101 24.632C96.9421 24.632 98.3821 23.648 99.0301 21.68L100.866 22.112C100.602 23.024 100.146 23.816 99.4981 24.488C98.8741 25.16 98.1541 25.64 97.3381 25.928C96.5941 26.192 95.7421 26.348 94.7821 26.396H94.7101C92.1661 26.396 90.2701 25.484 89.0221 23.66C87.8701 22.028 87.2941 19.952 87.2941 17.432C87.2941 14.744 87.9421 12.596 89.2381 10.988C90.5581 9.356 92.3581 8.54 94.6381 8.54C96.9661 8.54 98.6941 9.32 99.8221 10.88ZM110.823 8.9V12.104C111.135 11.384 111.579 10.76 112.155 10.232C112.731 9.704 113.343 9.344 113.991 9.152C114.567 8.984 115.203 8.9 115.899 8.9V11.06C114.051 11.06 112.743 11.684 111.975 12.932C111.255 14.06 110.895 15.452 110.895 17.108V26H108.519V8.9H110.823ZM142.052 23.948C142.964 23.42 143.612 22.364 143.996 20.78C144.188 19.868 144.284 18.824 144.284 17.648C144.284 14.6 143.588 12.476 142.196 11.276C141.428 10.628 140.48 10.304 139.352 10.304C137.936 10.304 136.832 10.976 136.04 12.32C135.272 13.64 134.888 15.44 134.888 17.72C134.888 19.784 135.296 21.452 136.112 22.724C136.928 23.996 138.02 24.632 139.388 24.632C140.42 24.632 141.308 24.404 142.052 23.948ZM138.992 8.54C141.584 8.54 143.324 9.56 144.212 11.6V1.376H146.588V26H144.68L144.356 23.12C143.924 24.128 143.228 24.932 142.268 25.532C141.332 26.108 140.264 26.396 139.064 26.396C137.048 26.396 135.44 25.604 134.24 24.02C133.064 22.436 132.476 20.312 132.476 17.648C132.476 14.816 133.04 12.596 134.168 10.988C135.32 9.356 136.928 8.54 138.992 8.54ZM165.78 16.028C165.732 12.212 164.208 10.304 161.208 10.304C159.672 10.304 158.52 10.868 157.752 11.996C156.984 13.052 156.528 14.396 156.384 16.028H165.78ZM166.464 10.88C167.52 12.368 168.048 14.276 168.048 16.604C168.048 17.06 168.036 17.384 168.012 17.576H156.348C156.348 19.616 156.732 21.26 157.5 22.508C158.34 23.924 159.624 24.632 161.352 24.632C163.584 24.632 165.024 23.648 165.672 21.68L167.508 22.112C167.244 23.024 166.788 23.816 166.14 24.488C165.516 25.16 164.796 25.64 163.98 25.928C163.236 26.192 162.384 26.348 161.424 26.396H161.352C158.808 26.396 156.912 25.484 155.664 23.66C154.512 22.028 153.936 19.952 153.936 17.432C153.936 14.744 154.584 12.596 155.88 10.988C157.2 9.356 159 8.54 161.28 8.54C163.608 8.54 165.336 9.32 166.464 10.88ZM190.749 3.68C190.509 4.088 190.365 4.532 190.317 5.012C190.245 5.732 190.209 6.404 190.209 7.028V8.9H193.557V10.664H190.209V26H187.869V10.664H184.953V8.9H187.869V6.956C187.869 5.036 188.169 3.644 188.769 2.78C189.369 1.892 190.365 1.448 191.757 1.448C192.669 1.448 193.533 1.676 194.349 2.132L193.809 3.68C192.993 3.344 192.369 3.176 191.937 3.176C191.337 3.176 190.941 3.344 190.749 3.68ZM211.811 8.9H214.187V26H211.883V22.796C211.451 23.924 210.671 24.812 209.543 25.46C208.415 26.084 207.203 26.396 205.907 26.396C204.443 26.396 203.303 26.084 202.487 25.46C201.719 24.908 201.167 24.14 200.831 23.156C200.519 22.244 200.339 21.26 200.291 20.204C200.267 19.916 200.255 19.424 200.255 18.728V8.9H202.631V19.232C202.631 21.032 202.907 22.376 203.459 23.264C204.035 24.128 204.983 24.56 206.303 24.56C207.911 24.56 209.195 24.056 210.155 23.048C210.971 22.232 211.487 21.26 211.703 20.132C211.775 19.676 211.811 19.208 211.811 18.728V8.9ZM224.971 26H222.631V8.9H224.899L224.971 11.636C226.171 9.572 227.983 8.54 230.407 8.54C232.927 8.54 234.523 9.728 235.195 12.104C235.747 10.952 236.527 10.076 237.535 9.476C238.567 8.852 239.707 8.54 240.955 8.54C242.683 8.54 243.991 9.116 244.879 10.268C245.599 11.204 246.031 12.5 246.175 14.156C246.223 15.068 246.247 15.812 246.247 16.388V26H243.907V15.884C243.907 14.18 243.667 12.836 243.187 11.852C242.659 10.82 241.771 10.304 240.523 10.304C239.611 10.304 238.771 10.592 238.003 11.168C237.235 11.72 236.635 12.452 236.203 13.364C235.795 14.3 235.591 15.212 235.591 16.1V26H233.215V15.884C233.215 14.012 232.951 12.62 232.423 11.708C231.919 10.772 231.079 10.304 229.903 10.304C228.943 10.304 228.079 10.592 227.311 11.168C226.567 11.72 225.991 12.464 225.583 13.4C225.175 14.336 224.971 15.284 224.971 16.244V26ZM265.272 16.028C265.224 12.212 263.7 10.304 260.7 10.304C259.164 10.304 258.012 10.868 257.244 11.996C256.476 13.052 256.02 14.396 255.876 16.028H265.272ZM265.956 10.88C267.012 12.368 267.54 14.276 267.54 16.604C267.54 17.06 267.528 17.384 267.504 17.576H255.84C255.84 19.616 256.224 21.26 256.992 22.508C257.832 23.924 259.116 24.632 260.844 24.632C263.076 24.632 264.516 23.648 265.164 21.68L267 22.112C266.736 23.024 266.28 23.816 265.632 24.488C265.008 25.16 264.288 25.64 263.472 25.928C262.728 26.192 261.876 26.348 260.916 26.396H260.844C258.3 26.396 256.404 25.484 255.156 23.66C254.004 22.028 253.428 19.952 253.428 17.432C253.428 14.744 254.076 12.596 255.372 10.988C256.692 9.356 258.492 8.54 260.772 8.54C263.1 8.54 264.828 9.32 265.956 10.88ZM276.958 8.9V12.104C277.27 11.384 277.714 10.76 278.29 10.232C278.866 9.704 279.478 9.344 280.126 9.152C280.702 8.984 281.338 8.9 282.034 8.9V11.06C280.186 11.06 278.878 11.684 278.11 12.932C277.39 14.06 277.03 15.452 277.03 17.108V26H274.654V8.9H276.958Z" fill="black"/>
</svg>
