<svg width="344" height="67" viewBox="0 0 344 67" fill="none" xmlns="http://www.w3.org/2000/svg">
<path d="M11.78 3.78L10.52 4.06C10.3067 3.18 9.88 2.49333 9.24 2C8.61333 1.50667 7.8 1.26 6.8 1.26C5.28 1.26 4.18 1.75333 3.5 2.74C2.82 3.71333 2.48 5.18667 2.48 7.16C2.48 8.77333 2.66667 10.04 3.04 10.96C3.44 11.9333 4.12 12.58 5.08 12.9C5.58667 13.06 6.16667 13.14 6.82 13.14C8.74 13.14 10.02 12.26 10.66 10.5L11.82 10.86C11.46 11.9667 10.84 12.8067 9.96 13.38C9.08 13.94 8.00667 14.22 6.74 14.22C4.80667 14.22 3.37333 13.6533 2.44 12.52C1.52 11.3867 1.06 9.6 1.06 7.16C1.06 2.49333 2.98667 0.159999 6.84 0.159999C8.09333 0.159999 9.14667 0.473333 10 1.1C10.8667 1.71333 11.46 2.60667 11.78 3.78ZM21.9595 8.46C21.9329 6.34 21.0862 5.28 19.4195 5.28C18.5662 5.28 17.9262 5.59333 17.4995 6.22C17.0729 6.80667 16.8195 7.55333 16.7395 8.46H21.9595ZM22.3395 5.6C22.9262 6.42667 23.2195 7.48667 23.2195 8.78C23.2195 9.03333 23.2129 9.21333 23.1995 9.32H16.7195C16.7195 10.4533 16.9329 11.3667 17.3595 12.06C17.8262 12.8467 18.5395 13.24 19.4995 13.24C20.7395 13.24 21.5395 12.6933 21.8995 11.6L22.9195 11.84C22.7729 12.3467 22.5195 12.7867 22.1595 13.16C21.8129 13.5333 21.4129 13.8 20.9595 13.96C20.5462 14.1067 20.0729 14.1933 19.5395 14.22H19.4995C18.0862 14.22 17.0329 13.7133 16.3395 12.7C15.6995 11.7933 15.3795 10.64 15.3795 9.24C15.3795 7.74667 15.7395 6.55333 16.4595 5.66C17.1929 4.75333 18.1929 4.3 19.4595 4.3C20.7529 4.3 21.7129 4.73333 22.3395 5.6ZM34.4109 9.16C34.4109 10.44 34.6243 11.44 35.0509 12.16C35.4776 12.88 36.0709 13.24 36.8309 13.24C38.6309 13.24 39.5309 11.94 39.5309 9.34C39.5309 8.42 39.4309 7.63333 39.2309 6.98C38.9909 6.27333 38.5776 5.78 37.9909 5.5C37.6576 5.35333 37.2843 5.28 36.8709 5.28C36.1243 5.28 35.5243 5.64 35.0709 6.36C34.6309 7.06667 34.4109 8 34.4109 9.16ZM39.6109 6L39.7309 4.5H40.8309V17.24H39.5109V13.88V12.56C38.9643 13.6667 38.0109 14.22 36.6509 14.22C35.8776 14.22 35.2109 14 34.6509 13.56C34.1043 13.12 33.7043 12.52 33.4509 11.76C33.1976 11.04 33.0709 10.1867 33.0709 9.2C33.0709 7.24 33.6043 5.83333 34.6709 4.98C35.2043 4.52667 35.8709 4.3 36.6709 4.3C38.1376 4.3 39.1176 4.86667 39.6109 6ZM51.5556 4.5H52.8756V14H51.5956V12.22C51.3556 12.8467 50.9223 13.34 50.2956 13.7C49.669 14.0467 48.9956 14.22 48.2756 14.22C47.4623 14.22 46.829 14.0467 46.3756 13.7C45.949 13.3933 45.6423 12.9667 45.4556 12.42C45.2823 11.9133 45.1823 11.3667 45.1556 10.78C45.1423 10.62 45.1356 10.3467 45.1356 9.96V4.5H46.4556V10.24C46.4556 11.24 46.609 11.9867 46.9156 12.48C47.2356 12.96 47.7623 13.2 48.4956 13.2C49.389 13.2 50.1023 12.92 50.6356 12.36C51.089 11.9067 51.3756 11.3667 51.4956 10.74C51.5356 10.4867 51.5556 10.2267 51.5556 9.96V4.5ZM57.6667 14V4.5H58.9667V14H57.6667ZM57.6467 2.48V0.819999H58.9467V2.48H57.6467ZM70.795 4.5V6.28C70.9683 5.88 71.215 5.53333 71.535 5.24C71.855 4.94667 72.195 4.74667 72.555 4.64C72.875 4.54667 73.2283 4.5 73.615 4.5V5.7C72.5883 5.7 71.8617 6.04667 71.435 6.74C71.035 7.36667 70.835 8.14 70.835 9.06V14H69.515V4.5H70.795ZM83.2447 8.46C83.218 6.34 82.3714 5.28 80.7047 5.28C79.8514 5.28 79.2114 5.59333 78.7847 6.22C78.358 6.80667 78.1047 7.55333 78.0247 8.46H83.2447ZM83.6247 5.6C84.2114 6.42667 84.5047 7.48667 84.5047 8.78C84.5047 9.03333 84.498 9.21333 84.4847 9.32H78.0047C78.0047 10.4533 78.218 11.3667 78.6447 12.06C79.1114 12.8467 79.8247 13.24 80.7847 13.24C82.0247 13.24 82.8247 12.6933 83.1847 11.6L84.2047 11.84C84.058 12.3467 83.8047 12.7867 83.4447 13.16C83.098 13.5333 82.698 13.8 82.2447 13.96C81.8314 14.1067 81.358 14.1933 80.8247 14.22H80.7847C79.3714 14.22 78.318 13.7133 77.6247 12.7C76.9847 11.7933 76.6647 10.64 76.6647 9.24C76.6647 7.74667 77.0247 6.55333 77.7447 5.66C78.478 4.75333 79.478 4.3 80.7447 4.3C82.038 4.3 82.998 4.73333 83.6247 5.6ZM89.7564 6.04C90.3697 4.88 91.3297 4.3 92.6364 4.3C93.8764 4.3 94.8097 4.77333 95.4364 5.72C96.0097 6.61333 96.2964 7.76667 96.2964 9.18C96.2964 11.2067 95.7697 12.6533 94.7164 13.52C94.1964 13.9467 93.5564 14.1733 92.7964 14.2C92.0497 14.24 91.4497 14.1067 90.9964 13.8C90.5031 13.52 90.1164 13.1133 89.8364 12.58V13.82V17.24H88.5364V4.5H89.6764L89.7564 6.04ZM92.4764 5.28C91.6231 5.28 90.9831 5.54 90.5564 6.06C90.1697 6.51333 89.9431 7.15333 89.8764 7.98C89.8364 8.31333 89.8164 8.72 89.8164 9.2C89.8164 11.8933 90.7097 13.24 92.4964 13.24C93.2564 13.24 93.8564 12.88 94.2964 12.16C94.7497 11.44 94.9764 10.4467 94.9764 9.18C94.9764 8.00667 94.7497 7.06667 94.2964 6.36C93.8431 5.64 93.2364 5.28 92.4764 5.28ZM101.58 4.5V6.28C101.753 5.88 102 5.53333 102.32 5.24C102.64 4.94667 102.98 4.74667 103.34 4.64C103.66 4.54667 104.013 4.5 104.4 4.5V5.7C103.373 5.7 102.647 6.04667 102.22 6.74C101.82 7.36667 101.62 8.14 101.62 9.06V14H100.3V4.5H101.58ZM112.99 0.099999H114.79L111.95 3.1H111.09L112.99 0.099999ZM114.03 8.46C114.003 6.34 113.157 5.28 111.49 5.28C110.637 5.28 109.997 5.59333 109.57 6.22C109.143 6.80667 108.89 7.55333 108.81 8.46H114.03ZM114.41 5.6C114.997 6.42667 115.29 7.48667 115.29 8.78C115.29 9.03333 115.283 9.21333 115.27 9.32H108.79C108.79 10.4533 109.003 11.3667 109.43 12.06C109.897 12.8467 110.61 13.24 111.57 13.24C112.81 13.24 113.61 12.6933 113.97 11.6L114.99 11.84C114.843 12.3467 114.59 12.7867 114.23 13.16C113.883 13.5333 113.483 13.8 113.03 13.96C112.617 14.1067 112.143 14.1933 111.61 14.22H111.57C110.157 14.22 109.103 13.7133 108.41 12.7C107.77 11.7933 107.45 10.64 107.45 9.24C107.45 7.74667 107.81 6.55333 108.53 5.66C109.263 4.75333 110.263 4.3 111.53 4.3C112.823 4.3 113.783 4.73333 114.41 5.6ZM125.002 6.66C124.628 5.75333 123.835 5.3 122.622 5.3C121.062 5.3 120.282 5.85333 120.282 6.96C120.282 7.36 120.435 7.68667 120.742 7.94C120.982 8.16667 121.388 8.33333 121.962 8.44C122.175 8.50667 122.442 8.56667 122.762 8.62C123.868 8.82 124.682 9.13333 125.202 9.56C125.722 9.97333 125.982 10.5667 125.982 11.34C125.982 13.26 124.728 14.22 122.222 14.22C121.422 14.22 120.722 14.06 120.122 13.74C119.428 13.3667 118.962 12.7533 118.722 11.9L119.722 11.52C119.948 12.12 120.262 12.5533 120.662 12.82C121.075 13.0867 121.642 13.22 122.362 13.22C123.975 13.22 124.782 12.68 124.782 11.6C124.782 11.0133 124.595 10.5933 124.222 10.34C123.848 10.1 123.068 9.86 121.882 9.62C121.282 9.48667 120.728 9.29333 120.222 9.04C119.755 8.82667 119.415 8.44667 119.202 7.9C119.095 7.60667 119.042 7.28667 119.042 6.94C119.042 6.12667 119.362 5.48667 120.002 5.02C120.642 4.54 121.488 4.3 122.542 4.3C123.408 4.3 124.102 4.44667 124.622 4.74C125.155 5.02 125.582 5.49333 125.902 6.16L125.002 6.66ZM136.155 8.46C136.128 6.34 135.282 5.28 133.615 5.28C132.762 5.28 132.122 5.59333 131.695 6.22C131.268 6.80667 131.015 7.55333 130.935 8.46H136.155ZM136.535 5.6C137.122 6.42667 137.415 7.48667 137.415 8.78C137.415 9.03333 137.408 9.21333 137.395 9.32H130.915C130.915 10.4533 131.128 11.3667 131.555 12.06C132.022 12.8467 132.735 13.24 133.695 13.24C134.935 13.24 135.735 12.6933 136.095 11.6L137.115 11.84C136.968 12.3467 136.715 12.7867 136.355 13.16C136.008 13.5333 135.608 13.8 135.155 13.96C134.742 14.1067 134.268 14.1933 133.735 14.22H133.695C132.282 14.22 131.228 13.7133 130.535 12.7C129.895 11.7933 129.575 10.64 129.575 9.24C129.575 7.74667 129.935 6.55333 130.655 5.66C131.388 4.75333 132.388 4.3 133.655 4.3C134.948 4.3 135.908 4.73333 136.535 5.6ZM141.407 14V4.5H142.687V4.8V5.38V6.04V6.3C142.94 5.62 143.407 5.10667 144.087 4.76C144.727 4.45333 145.367 4.3 146.007 4.3C146.727 4.3 147.313 4.44 147.767 4.72C148.233 5.01333 148.553 5.35333 148.727 5.74C148.927 6.20667 149.06 6.66667 149.127 7.12C149.153 7.49333 149.167 7.73333 149.167 7.84V8.58V14H147.867V8.42C147.867 7.67333 147.787 7.04 147.627 6.52C147.453 6.02667 147.133 5.69333 146.667 5.52C146.44 5.42667 146.153 5.38 145.807 5.38C144.887 5.38 144.18 5.62667 143.687 6.12C143.26 6.54667 142.967 7.2 142.807 8.08C142.74 8.50667 142.707 8.93333 142.707 9.36V14H141.407ZM158.045 13.7C157.578 14.0067 157.031 14.16 156.405 14.16C155.578 14.16 154.978 13.9133 154.605 13.42C154.245 12.9133 154.065 12.1 154.065 10.98V5.44H152.665V4.5H154.165V1.48L155.405 1.14V4.5H157.465V5.44H155.405V11.58C155.405 12.6333 155.831 13.16 156.685 13.16C156.965 13.16 157.338 13.0533 157.805 12.84L158.045 13.7ZM167.702 8.46C167.675 6.34 166.828 5.28 165.162 5.28C164.308 5.28 163.668 5.59333 163.242 6.22C162.815 6.80667 162.562 7.55333 162.482 8.46H167.702ZM168.082 5.6C168.668 6.42667 168.962 7.48667 168.962 8.78C168.962 9.03333 168.955 9.21333 168.942 9.32H162.462C162.462 10.4533 162.675 11.3667 163.102 12.06C163.568 12.8467 164.282 13.24 165.242 13.24C166.482 13.24 167.282 12.6933 167.642 11.6L168.662 11.84C168.515 12.3467 168.262 12.7867 167.902 13.16C167.555 13.5333 167.155 13.8 166.702 13.96C166.288 14.1067 165.815 14.1933 165.282 14.22H165.242C163.828 14.22 162.775 13.7133 162.082 12.7C161.442 11.7933 161.122 10.64 161.122 9.24C161.122 7.74667 161.482 6.55333 162.202 5.66C162.935 4.75333 163.935 4.3 165.202 4.3C166.495 4.3 167.455 4.73333 168.082 5.6ZM184.953 12.92C183.886 13.7867 182.753 14.22 181.553 14.22C180.74 14.22 180.073 14 179.553 13.56C179.046 13.12 178.793 12.5067 178.793 11.72C178.793 11.1333 178.966 10.6067 179.313 10.14C179.54 9.83333 180.006 9.53333 180.713 9.24C181.113 9.09333 181.786 8.93333 182.733 8.76C182.893 8.72 183.3 8.65333 183.953 8.56L184.873 8.44V8.04C184.873 7.01333 184.706 6.30667 184.373 5.92C184.04 5.52 183.46 5.32 182.633 5.32C181.5 5.32 180.613 5.72 179.973 6.52C179.973 6.50667 179.706 6.25333 179.173 5.76C179.946 4.78667 181.126 4.3 182.713 4.3C185.033 4.3 186.193 5.44667 186.193 7.74V14H185.093L184.953 12.92ZM184.873 9.3L183.953 9.46C182.953 9.63333 182.24 9.76667 181.813 9.86C181.266 10.0067 180.826 10.2133 180.493 10.48C180.186 10.72 180.033 11.0733 180.033 11.54C180.033 12.7267 180.62 13.32 181.793 13.32C182.78 13.32 183.806 12.8667 184.873 11.96V9.3ZM196.946 4.5H198.266V14H196.986V12.22C196.746 12.8467 196.313 13.34 195.686 13.7C195.06 14.0467 194.386 14.22 193.666 14.22C192.853 14.22 192.22 14.0467 191.766 13.7C191.34 13.3933 191.033 12.9667 190.846 12.42C190.673 11.9133 190.573 11.3667 190.546 10.78C190.533 10.62 190.526 10.3467 190.526 9.96V4.5H191.846V10.24C191.846 11.24 192 11.9867 192.306 12.48C192.626 12.96 193.153 13.2 193.886 13.2C194.78 13.2 195.493 12.92 196.026 12.36C196.48 11.9067 196.766 11.3667 196.886 10.74C196.926 10.4867 196.946 10.2267 196.946 9.96V4.5ZM208.677 6.66C208.304 5.75333 207.511 5.3 206.297 5.3C204.737 5.3 203.957 5.85333 203.957 6.96C203.957 7.36 204.111 7.68667 204.417 7.94C204.657 8.16667 205.064 8.33333 205.637 8.44C205.851 8.50667 206.117 8.56667 206.437 8.62C207.544 8.82 208.357 9.13333 208.877 9.56C209.397 9.97333 209.657 10.5667 209.657 11.34C209.657 13.26 208.404 14.22 205.897 14.22C205.097 14.22 204.397 14.06 203.797 13.74C203.104 13.3667 202.637 12.7533 202.397 11.9L203.397 11.52C203.624 12.12 203.937 12.5533 204.337 12.82C204.751 13.0867 205.317 13.22 206.037 13.22C207.651 13.22 208.457 12.68 208.457 11.6C208.457 11.0133 208.271 10.5933 207.897 10.34C207.524 10.1 206.744 9.86 205.557 9.62C204.957 9.48667 204.404 9.29333 203.897 9.04C203.431 8.82667 203.091 8.44667 202.877 7.9C202.771 7.60667 202.717 7.28667 202.717 6.94C202.717 6.12667 203.037 5.48667 203.677 5.02C204.317 4.54 205.164 4.3 206.217 4.3C207.084 4.3 207.777 4.44667 208.297 4.74C208.831 5.02 209.257 5.49333 209.577 6.16L208.677 6.66ZM219.291 6.66C218.917 5.75333 218.124 5.3 216.911 5.3C215.351 5.3 214.571 5.85333 214.571 6.96C214.571 7.36 214.724 7.68667 215.031 7.94C215.271 8.16667 215.677 8.33333 216.251 8.44C216.464 8.50667 216.731 8.56667 217.051 8.62C218.157 8.82 218.971 9.13333 219.491 9.56C220.011 9.97333 220.271 10.5667 220.271 11.34C220.271 13.26 219.017 14.22 216.511 14.22C215.711 14.22 215.011 14.06 214.411 13.74C213.717 13.3667 213.251 12.7533 213.011 11.9L214.011 11.52C214.237 12.12 214.551 12.5533 214.951 12.82C215.364 13.0867 215.931 13.22 216.651 13.22C218.264 13.22 219.071 12.68 219.071 11.6C219.071 11.0133 218.884 10.5933 218.511 10.34C218.137 10.1 217.357 9.86 216.171 9.62C215.571 9.48667 215.017 9.29333 214.511 9.04C214.044 8.82667 213.704 8.44667 213.491 7.9C213.384 7.60667 213.331 7.28667 213.331 6.94C213.331 6.12667 213.651 5.48667 214.291 5.02C214.931 4.54 215.777 4.3 216.831 4.3C217.697 4.3 218.391 4.44667 218.911 4.74C219.444 5.02 219.871 5.49333 220.191 6.16L219.291 6.66ZM224.284 14V4.5H225.584V14H224.284ZM224.264 2.48V0.819999H225.564V2.48H224.264ZM236.472 4.5H238.072V6.5H236.472V4.5ZM238.072 10.4V12.42H236.472V10.4H238.072ZM12.7802 32.7C12.7802 31.7933 12.9936 31.1533 13.4202 30.78C13.8469 30.4067 14.3736 30.22 15.0002 30.22C15.6269 30.22 16.1536 30.4067 16.5802 30.78C17.0069 31.1533 17.2202 31.7933 17.2202 32.7C17.2202 33.58 17.0069 34.2133 16.5802 34.6C16.1536 34.9867 15.6269 35.18 15.0002 35.18C14.3736 35.18 13.8469 34.9867 13.4202 34.6C12.9936 34.2133 12.7802 33.58 12.7802 32.7ZM30.94 28.42L30.54 27.34L32.84 26.42H34.02V40H32.68V27.68L30.94 28.42ZM45.1078 28.04C44.6011 27.52 44.0011 27.26 43.3078 27.26C42.6145 27.26 42.0078 27.52 41.4878 28.04C40.9811 28.5467 40.6078 29.2533 40.3678 30.16C40.1145 31.04 39.9878 32.08 39.9878 33.28C39.9878 35.6667 40.4811 37.36 41.4678 38.36C41.9745 38.88 42.5811 39.14 43.2878 39.14C43.9945 39.14 44.6011 38.8933 45.1078 38.4C45.6145 37.8933 45.9878 37.1933 46.2278 36.3C46.4545 35.42 46.5678 34.4133 46.5678 33.28C46.5678 30.8 46.0811 29.0533 45.1078 28.04ZM46.8478 38.28C46.0478 39.5733 44.8611 40.22 43.2878 40.22C41.7278 40.22 40.5478 39.5733 39.7478 38.28C38.9611 37.0133 38.5678 35.3467 38.5678 33.28C38.5678 31.1867 38.9611 29.4933 39.7478 28.2C40.5745 26.84 41.7545 26.16 43.2878 26.16C44.8211 26.16 46.0011 26.84 46.8278 28.2C47.6145 29.4933 48.0078 31.1867 48.0078 33.28C48.0078 35.3733 47.6211 37.04 46.8478 38.28ZM60.7303 40H52.4303V26.42H53.8103V38.96H60.7303V40ZM74.8631 38.86C75.3698 38.5667 75.7298 37.98 75.9431 37.1C76.0498 36.5933 76.1031 36.0133 76.1031 35.36C76.1031 33.6667 75.7165 32.4867 74.9431 31.82C74.5165 31.46 73.9898 31.28 73.3631 31.28C72.5765 31.28 71.9631 31.6533 71.5231 32.4C71.0965 33.1333 70.8831 34.1333 70.8831 35.4C70.8831 36.5467 71.1098 37.4733 71.5631 38.18C72.0165 38.8867 72.6231 39.24 73.3831 39.24C73.9565 39.24 74.4498 39.1133 74.8631 38.86ZM73.1631 30.3C74.6031 30.3 75.5698 30.8667 76.0631 32V26.32H77.3831V40H76.3231L76.1431 38.4C75.9031 38.96 75.5165 39.4067 74.9831 39.74C74.4631 40.06 73.8698 40.22 73.2031 40.22C72.0831 40.22 71.1898 39.78 70.5231 38.9C69.8698 38.02 69.5431 36.84 69.5431 35.36C69.5431 33.7867 69.8565 32.5533 70.4831 31.66C71.1231 30.7533 72.0165 30.3 73.1631 30.3ZM81.5455 28.02V26.42H83.3855V27.12C83.3855 27.6667 83.3721 28.1267 83.3455 28.5C83.3188 28.8333 83.1988 29.2533 82.9855 29.76C82.8255 30.12 82.5255 30.4667 82.0855 30.8L81.6255 30.22C81.8121 30.0467 81.9788 29.78 82.1255 29.42C82.2721 29.0467 82.3521 28.6333 82.3655 28.18L82.1655 28.14C82.1121 28.1267 82.0388 28.1133 81.9455 28.1C81.8521 28.0867 81.7855 28.0733 81.7455 28.06L81.5455 28.02ZM93.1119 34.46C93.0852 32.34 92.2385 31.28 90.5719 31.28C89.7185 31.28 89.0785 31.5933 88.6519 32.22C88.2252 32.8067 87.9719 33.5533 87.8919 34.46H93.1119ZM93.4919 31.6C94.0785 32.4267 94.3719 33.4867 94.3719 34.78C94.3719 35.0333 94.3652 35.2133 94.3519 35.32H87.8719C87.8719 36.4533 88.0852 37.3667 88.5119 38.06C88.9785 38.8467 89.6919 39.24 90.6519 39.24C91.8919 39.24 92.6919 38.6933 93.0519 37.6L94.0719 37.84C93.9252 38.3467 93.6719 38.7867 93.3119 39.16C92.9652 39.5333 92.5652 39.8 92.1119 39.96C91.6985 40.1067 91.2252 40.1933 90.6919 40.22H90.6519C89.2385 40.22 88.1852 39.7133 87.4919 38.7C86.8519 37.7933 86.5319 36.64 86.5319 35.24C86.5319 33.7467 86.8919 32.5533 87.6119 31.66C88.3452 30.7533 89.3452 30.3 90.6119 30.3C91.9052 30.3 92.8652 30.7333 93.4919 31.6ZM103.91 38.92C102.843 39.7867 101.71 40.22 100.51 40.22C99.6968 40.22 99.0302 40 98.5102 39.56C98.0035 39.12 97.7502 38.5067 97.7502 37.72C97.7502 37.1333 97.9235 36.6067 98.2702 36.14C98.4968 35.8333 98.9635 35.5333 99.6702 35.24C100.07 35.0933 100.743 34.9333 101.69 34.76C101.85 34.72 102.257 34.6533 102.91 34.56L103.83 34.44V34.04C103.83 33.0133 103.663 32.3067 103.33 31.92C102.997 31.52 102.417 31.32 101.59 31.32C100.457 31.32 99.5702 31.72 98.9302 32.52C98.9302 32.5067 98.6635 32.2533 98.1302 31.76C98.9035 30.7867 100.083 30.3 101.67 30.3C103.99 30.3 105.15 31.4467 105.15 33.74V40H104.05L103.91 38.92ZM103.83 35.3L102.91 35.46C101.91 35.6333 101.197 35.7667 100.77 35.86C100.223 36.0067 99.7835 36.2133 99.4502 36.48C99.1435 36.72 98.9902 37.0733 98.9902 37.54C98.9902 38.7267 99.5768 39.32 100.75 39.32C101.737 39.32 102.763 38.8667 103.83 37.96V35.3ZM115.903 30.5H117.223V40H115.943V38.22C115.703 38.8467 115.27 39.34 114.643 39.7C114.017 40.0467 113.343 40.22 112.623 40.22C111.81 40.22 111.177 40.0467 110.723 39.7C110.297 39.3933 109.99 38.9667 109.803 38.42C109.63 37.9133 109.53 37.3667 109.503 36.78C109.49 36.62 109.483 36.3467 109.483 35.96V30.5H110.803V36.24C110.803 37.24 110.957 37.9867 111.263 38.48C111.583 38.96 112.11 39.2 112.843 39.2C113.737 39.2 114.45 38.92 114.983 38.36C115.437 37.9067 115.723 37.3667 115.843 36.74C115.883 36.4867 115.903 36.2267 115.903 35.96V30.5ZM129.354 32.04C129.967 30.88 130.927 30.3 132.234 30.3C133.474 30.3 134.407 30.7733 135.034 31.72C135.607 32.6133 135.894 33.7667 135.894 35.18C135.894 37.2067 135.367 38.6533 134.314 39.52C133.794 39.9467 133.154 40.1733 132.394 40.2C131.647 40.24 131.047 40.1067 130.594 39.8C130.101 39.52 129.714 39.1133 129.434 38.58V39.82V43.24H128.134V30.5H129.274L129.354 32.04ZM132.074 31.28C131.221 31.28 130.581 31.54 130.154 32.06C129.767 32.5133 129.541 33.1533 129.474 33.98C129.434 34.3133 129.414 34.72 129.414 35.2C129.414 37.8933 130.307 39.24 132.094 39.24C132.854 39.24 133.454 38.88 133.894 38.16C134.347 37.44 134.574 36.4467 134.574 35.18C134.574 34.0067 134.347 33.0667 133.894 32.36C133.441 31.64 132.834 31.28 132.074 31.28ZM141.518 32.54C141.144 33.2867 140.958 34.1867 140.958 35.24C140.958 36.0933 141.078 36.84 141.318 37.48C141.558 38.2133 141.984 38.72 142.598 39C142.918 39.16 143.284 39.24 143.698 39.24C144.511 39.24 145.144 38.96 145.598 38.4C145.998 37.9067 146.251 37.2467 146.358 36.42C146.411 36.1 146.438 35.7067 146.438 35.24C146.438 34.4267 146.318 33.6867 146.078 33.02C145.811 32.2867 145.384 31.78 144.798 31.5C144.438 31.3533 144.071 31.28 143.698 31.28C142.658 31.28 141.931 31.7 141.518 32.54ZM146.658 31.6C147.404 32.4533 147.778 33.6667 147.778 35.24C147.778 36.8133 147.411 38.04 146.678 38.92C145.958 39.7867 144.964 40.22 143.698 40.22C142.431 40.22 141.431 39.7867 140.698 38.92C139.978 38.0533 139.618 36.8333 139.618 35.26C139.618 33.6733 139.984 32.4533 140.718 31.6C141.451 30.7333 142.444 30.3 143.698 30.3C144.938 30.3 145.924 30.7333 146.658 31.6ZM151.881 40V26.32H153.201V40H151.881ZM157.787 40V26.32H159.107V40H157.787ZM169.993 30.5H171.313V40H170.033V38.22C169.793 38.8467 169.36 39.34 168.733 39.7C168.106 40.0467 167.433 40.22 166.713 40.22C165.9 40.22 165.266 40.0467 164.813 39.7C164.386 39.3933 164.08 38.9667 163.893 38.42C163.72 37.9133 163.62 37.3667 163.593 36.78C163.58 36.62 163.573 36.3467 163.573 35.96V30.5H164.893V36.24C164.893 37.24 165.046 37.9867 165.353 38.48C165.673 38.96 166.2 39.2 166.933 39.2C167.826 39.2 168.54 38.92 169.073 38.36C169.526 37.9067 169.813 37.3667 169.933 36.74C169.973 36.4867 169.993 36.2267 169.993 35.96V30.5ZM181.224 26.1H183.024L180.184 29.1H179.324L181.224 26.1ZM182.264 34.46C182.238 32.34 181.391 31.28 179.724 31.28C178.871 31.28 178.231 31.5933 177.804 32.22C177.378 32.8067 177.124 33.5533 177.044 34.46H182.264ZM182.644 31.6C183.231 32.4267 183.524 33.4867 183.524 34.78C183.524 35.0333 183.518 35.2133 183.504 35.32H177.024C177.024 36.4533 177.238 37.3667 177.664 38.06C178.131 38.8467 178.844 39.24 179.804 39.24C181.044 39.24 181.844 38.6933 182.204 37.6L183.224 37.84C183.078 38.3467 182.824 38.7867 182.464 39.16C182.118 39.5333 181.718 39.8 181.264 39.96C180.851 40.1067 180.378 40.1933 179.844 40.22H179.804C178.391 40.22 177.338 39.7133 176.644 38.7C176.004 37.7933 175.684 36.64 175.684 35.24C175.684 33.7467 176.044 32.5533 176.764 31.66C177.498 30.7533 178.498 30.3 179.764 30.3C181.058 30.3 182.018 30.7333 182.644 31.6ZM193.236 32.66C192.863 31.7533 192.069 31.3 190.856 31.3C189.296 31.3 188.516 31.8533 188.516 32.96C188.516 33.36 188.669 33.6867 188.976 33.94C189.216 34.1667 189.623 34.3333 190.196 34.44C190.409 34.5067 190.676 34.5667 190.996 34.62C192.103 34.82 192.916 35.1333 193.436 35.56C193.956 35.9733 194.216 36.5667 194.216 37.34C194.216 39.26 192.963 40.22 190.456 40.22C189.656 40.22 188.956 40.06 188.356 39.74C187.663 39.3667 187.196 38.7533 186.956 37.9L187.956 37.52C188.183 38.12 188.496 38.5533 188.896 38.82C189.309 39.0867 189.876 39.22 190.596 39.22C192.209 39.22 193.016 38.68 193.016 37.6C193.016 37.0133 192.829 36.5933 192.456 36.34C192.083 36.1 191.303 35.86 190.116 35.62C189.516 35.4867 188.963 35.2933 188.456 35.04C187.989 34.8267 187.649 34.4467 187.436 33.9C187.329 33.6067 187.276 33.2867 187.276 32.94C187.276 32.1267 187.596 31.4867 188.236 31.02C188.876 30.54 189.723 30.3 190.776 30.3C191.643 30.3 192.336 30.4467 192.856 30.74C193.389 31.02 193.816 31.4933 194.136 32.16L193.236 32.66ZM209.289 38.86C209.796 38.5667 210.156 37.98 210.369 37.1C210.476 36.5933 210.529 36.0133 210.529 35.36C210.529 33.6667 210.142 32.4867 209.369 31.82C208.942 31.46 208.416 31.28 207.789 31.28C207.002 31.28 206.389 31.6533 205.949 32.4C205.522 33.1333 205.309 34.1333 205.309 35.4C205.309 36.5467 205.536 37.4733 205.989 38.18C206.442 38.8867 207.049 39.24 207.809 39.24C208.382 39.24 208.876 39.1133 209.289 38.86ZM207.589 30.3C209.029 30.3 209.996 30.8667 210.489 32V26.32H211.809V40H210.749L210.569 38.4C210.329 38.96 209.942 39.4067 209.409 39.74C208.889 40.06 208.296 40.22 207.629 40.22C206.509 40.22 205.616 39.78 204.949 38.9C204.296 38.02 203.969 36.84 203.969 35.36C203.969 33.7867 204.282 32.5533 204.909 31.66C205.549 30.7533 206.442 30.3 207.589 30.3ZM222.471 34.46C222.445 32.34 221.598 31.28 219.931 31.28C219.078 31.28 218.438 31.5933 218.011 32.22C217.585 32.8067 217.331 33.5533 217.251 34.46H222.471ZM222.851 31.6C223.438 32.4267 223.731 33.4867 223.731 34.78C223.731 35.0333 223.725 35.2133 223.711 35.32H217.231C217.231 36.4533 217.445 37.3667 217.871 38.06C218.338 38.8467 219.051 39.24 220.011 39.24C221.251 39.24 222.051 38.6933 222.411 37.6L223.431 37.84C223.285 38.3467 223.031 38.7867 222.671 39.16C222.325 39.5333 221.925 39.8 221.471 39.96C221.058 40.1067 220.585 40.1933 220.051 40.22H220.011C218.598 40.22 217.545 39.7133 216.851 38.7C216.211 37.7933 215.891 36.64 215.891 35.24C215.891 33.7467 216.251 32.5533 216.971 31.66C217.705 30.7533 218.705 30.3 219.971 30.3C221.265 30.3 222.225 30.7333 222.851 31.6ZM235.203 40H233.903V30.5H235.163L235.203 32.02C235.869 30.8733 236.876 30.3 238.223 30.3C239.623 30.3 240.509 30.96 240.883 32.28C241.189 31.64 241.623 31.1533 242.183 30.82C242.756 30.4733 243.389 30.3 244.083 30.3C245.043 30.3 245.769 30.62 246.263 31.26C246.663 31.78 246.903 32.5 246.983 33.42C247.009 33.9267 247.023 34.34 247.023 34.66V40H245.723V34.38C245.723 33.4333 245.589 32.6867 245.323 32.14C245.029 31.5667 244.536 31.28 243.843 31.28C243.336 31.28 242.869 31.44 242.443 31.76C242.016 32.0667 241.683 32.4733 241.443 32.98C241.216 33.5 241.103 34.0067 241.103 34.5V40H239.783V34.38C239.783 33.34 239.636 32.5667 239.343 32.06C239.063 31.54 238.596 31.28 237.943 31.28C237.409 31.28 236.929 31.44 236.503 31.76C236.089 32.0667 235.769 32.48 235.543 33C235.316 33.52 235.203 34.0467 235.203 34.58V40ZM252.912 32.54C252.539 33.2867 252.352 34.1867 252.352 35.24C252.352 36.0933 252.472 36.84 252.712 37.48C252.952 38.2133 253.379 38.72 253.992 39C254.312 39.16 254.679 39.24 255.092 39.24C255.906 39.24 256.539 38.96 256.992 38.4C257.392 37.9067 257.646 37.2467 257.752 36.42C257.806 36.1 257.832 35.7067 257.832 35.24C257.832 34.4267 257.712 33.6867 257.472 33.02C257.206 32.2867 256.779 31.78 256.192 31.5C255.832 31.3533 255.466 31.28 255.092 31.28C254.052 31.28 253.326 31.7 252.912 32.54ZM258.052 31.6C258.799 32.4533 259.172 33.6667 259.172 35.24C259.172 36.8133 258.806 38.04 258.072 38.92C257.352 39.7867 256.359 40.22 255.092 40.22C253.826 40.22 252.826 39.7867 252.092 38.92C251.372 38.0533 251.012 36.8333 251.012 35.26C251.012 33.6733 251.379 32.4533 252.112 31.6C252.846 30.7333 253.839 30.3 255.092 30.3C256.332 30.3 257.319 30.7333 258.052 31.6ZM263.315 40V30.5H264.615V40H263.315ZM263.295 28.48V26.82H264.595V28.48H263.295ZM269.024 40V30.5H270.304V30.8V31.38V32.04V32.3C270.557 31.62 271.024 31.1067 271.704 30.76C272.344 30.4533 272.984 30.3 273.624 30.3C274.344 30.3 274.93 30.44 275.384 30.72C275.85 31.0133 276.17 31.3533 276.344 31.74C276.544 32.2067 276.677 32.6667 276.744 33.12C276.77 33.4933 276.784 33.7333 276.784 33.84V34.58V40H275.484V34.42C275.484 33.6733 275.404 33.04 275.244 32.52C275.07 32.0267 274.75 31.6933 274.284 31.52C274.057 31.4267 273.77 31.38 273.424 31.38C272.504 31.38 271.797 31.6267 271.304 32.12C270.877 32.5467 270.584 33.2 270.424 34.08C270.357 34.5067 270.324 34.9333 270.324 35.36V40H269.024ZM286.822 32.66C286.449 31.7533 285.655 31.3 284.442 31.3C282.882 31.3 282.102 31.8533 282.102 32.96C282.102 33.36 282.255 33.6867 282.562 33.94C282.802 34.1667 283.209 34.3333 283.782 34.44C283.995 34.5067 284.262 34.5667 284.582 34.62C285.689 34.82 286.502 35.1333 287.022 35.56C287.542 35.9733 287.802 36.5667 287.802 37.34C287.802 39.26 286.549 40.22 284.042 40.22C283.242 40.22 282.542 40.06 281.942 39.74C281.249 39.3667 280.782 38.7533 280.542 37.9L281.542 37.52C281.769 38.12 282.082 38.5533 282.482 38.82C282.895 39.0867 283.462 39.22 284.182 39.22C285.795 39.22 286.602 38.68 286.602 37.6C286.602 37.0133 286.415 36.5933 286.042 36.34C285.669 36.1 284.889 35.86 283.702 35.62C283.102 35.4867 282.549 35.2933 282.042 35.04C281.575 34.8267 281.235 34.4467 281.022 33.9C280.915 33.6067 280.862 33.2867 280.862 32.94C280.862 32.1267 281.182 31.4867 281.822 31.02C282.462 30.54 283.309 30.3 284.362 30.3C285.229 30.3 285.922 30.4467 286.442 30.74C286.975 31.02 287.402 31.4933 287.722 32.16L286.822 32.66ZM299.415 30.96C300.042 30.52 300.808 30.3 301.715 30.3C302.448 30.3 303.135 30.5 303.775 30.9C304.442 31.3533 304.908 32.12 305.175 33.2L304.075 33.5C303.862 32.74 303.568 32.18 303.195 31.82C302.835 31.46 302.362 31.28 301.775 31.28C300.828 31.28 300.115 31.6267 299.635 32.32C299.155 33.0133 298.915 33.9867 298.915 35.24C298.915 36.4667 299.128 37.4267 299.555 38.12C299.995 38.8667 300.688 39.24 301.635 39.24C302.862 39.24 303.688 38.52 304.115 37.08L305.135 37.38C304.922 38.3533 304.462 39.0867 303.755 39.58C303.128 40.0067 302.415 40.22 301.615 40.22C300.322 40.22 299.322 39.78 298.615 38.9C297.922 38.0067 297.575 36.7933 297.575 35.26C297.575 33.2467 298.188 31.8133 299.415 30.96ZM315.256 34.46C315.23 32.34 314.383 31.28 312.716 31.28C311.863 31.28 311.223 31.5933 310.796 32.22C310.37 32.8067 310.116 33.5533 310.036 34.46H315.256ZM315.636 31.6C316.223 32.4267 316.516 33.4867 316.516 34.78C316.516 35.0333 316.51 35.2133 316.496 35.32H310.016C310.016 36.4533 310.23 37.3667 310.656 38.06C311.123 38.8467 311.836 39.24 312.796 39.24C314.036 39.24 314.836 38.6933 315.196 37.6L316.216 37.84C316.07 38.3467 315.816 38.7867 315.456 39.16C315.11 39.5333 314.71 39.8 314.256 39.96C313.843 40.1067 313.37 40.1933 312.836 40.22H312.796C311.383 40.22 310.33 39.7133 309.636 38.7C308.996 37.7933 308.676 36.64 308.676 35.24C308.676 33.7467 309.036 32.5533 309.756 31.66C310.49 30.7533 311.49 30.3 312.756 30.3C314.05 30.3 315.01 30.7333 315.636 31.6ZM325.068 39.7C324.601 40.0067 324.055 40.16 323.428 40.16C322.601 40.16 322.001 39.9133 321.628 39.42C321.268 38.9133 321.088 38.1 321.088 36.98V31.44H319.688V30.5H321.188V27.48L322.428 27.14V30.5H324.488V31.44H322.428V37.58C322.428 38.6333 322.855 39.16 323.708 39.16C323.988 39.16 324.361 39.0533 324.828 38.84L325.068 39.7ZM333.025 39.7C332.558 40.0067 332.012 40.16 331.385 40.16C330.558 40.16 329.958 39.9133 329.585 39.42C329.225 38.9133 329.045 38.1 329.045 36.98V31.44H327.645V30.5H329.145V27.48L330.385 27.14V30.5H332.445V31.44H330.385V37.58C330.385 38.6333 330.812 39.16 331.665 39.16C331.945 39.16 332.318 39.0533 332.785 38.84L333.025 39.7ZM342.682 34.46C342.656 32.34 341.809 31.28 340.142 31.28C339.289 31.28 338.649 31.5933 338.222 32.22C337.796 32.8067 337.542 33.5533 337.462 34.46H342.682ZM343.062 31.6C343.649 32.4267 343.942 33.4867 343.942 34.78C343.942 35.0333 343.936 35.2133 343.922 35.32H337.442C337.442 36.4533 337.656 37.3667 338.082 38.06C338.549 38.8467 339.262 39.24 340.222 39.24C341.462 39.24 342.262 38.6933 342.622 37.6L343.642 37.84C343.496 38.3467 343.242 38.7867 342.882 39.16C342.536 39.5333 342.136 39.8 341.682 39.96C341.269 40.1067 340.796 40.1933 340.262 40.22H340.222C338.809 40.22 337.756 39.7133 337.062 38.7C336.422 37.7933 336.102 36.64 336.102 35.24C336.102 33.7467 336.462 32.5533 337.182 31.66C337.916 30.7533 338.916 30.3 340.182 30.3C341.476 30.3 342.436 30.7333 343.062 31.6ZM6.9 58.66C6.52667 57.7533 5.73333 57.3 4.52 57.3C2.96 57.3 2.18 57.8533 2.18 58.96C2.18 59.36 2.33333 59.6867 2.64 59.94C2.88 60.1667 3.28667 60.3333 3.86 60.44C4.07333 60.5067 4.34 60.5667 4.66 60.62C5.76667 60.82 6.58 61.1333 7.1 61.56C7.62 61.9733 7.88 62.5667 7.88 63.34C7.88 65.26 6.62667 66.22 4.12 66.22C3.32 66.22 2.62 66.06 2.02 65.74C1.32667 65.3667 0.86 64.7533 0.62 63.9L1.62 63.52C1.84667 64.12 2.16 64.5533 2.56 64.82C2.97333 65.0867 3.54 65.22 4.26 65.22C5.87333 65.22 6.68 64.68 6.68 63.6C6.68 63.0133 6.49333 62.5933 6.12 62.34C5.74667 62.1 4.96667 61.86 3.78 61.62C3.18 61.4867 2.62667 61.2933 2.12 61.04C1.65333 60.8267 1.31333 60.4467 1.1 59.9C0.993333 59.6067 0.94 59.2867 0.94 58.94C0.94 58.1267 1.26 57.4867 1.9 57.02C2.54 56.54 3.38667 56.3 4.44 56.3C5.30667 56.3 6 56.4467 6.52 56.74C7.05333 57.02 7.48 57.4933 7.8 58.16L6.9 58.66ZM18.0533 60.46C18.0266 58.34 17.1799 57.28 15.5133 57.28C14.6599 57.28 14.0199 57.5933 13.5933 58.22C13.1666 58.8067 12.9133 59.5533 12.8333 60.46H18.0533ZM18.4333 57.6C19.0199 58.4267 19.3133 59.4867 19.3133 60.78C19.3133 61.0333 19.3066 61.2133 19.2933 61.32H12.8133C12.8133 62.4533 13.0266 63.3667 13.4533 64.06C13.9199 64.8467 14.6333 65.24 15.5933 65.24C16.8333 65.24 17.6333 64.6933 17.9933 63.6L19.0133 63.84C18.8666 64.3467 18.6133 64.7867 18.2533 65.16C17.9066 65.5333 17.5066 65.8 17.0533 65.96C16.6399 66.1067 16.1666 66.1933 15.6333 66.22H15.5933C14.1799 66.22 13.1266 65.7133 12.4333 64.7C11.7933 63.7933 11.4733 62.64 11.4733 61.24C11.4733 59.7467 11.8333 58.5533 12.5533 57.66C13.2866 56.7533 14.2866 56.3 15.5533 56.3C16.8466 56.3 17.8066 56.7333 18.4333 57.6ZM24.605 66H23.305V56.5H24.565L24.605 58.02C25.2717 56.8733 26.2783 56.3 27.625 56.3C29.025 56.3 29.9117 56.96 30.285 58.28C30.5917 57.64 31.025 57.1533 31.585 56.82C32.1583 56.4733 32.7917 56.3 33.485 56.3C34.445 56.3 35.1717 56.62 35.665 57.26C36.065 57.78 36.305 58.5 36.385 59.42C36.4117 59.9267 36.425 60.34 36.425 60.66V66H35.125V60.38C35.125 59.4333 34.9917 58.6867 34.725 58.14C34.4317 57.5667 33.9383 57.28 33.245 57.28C32.7383 57.28 32.2717 57.44 31.845 57.76C31.4183 58.0667 31.085 58.4733 30.845 58.98C30.6183 59.5 30.505 60.0067 30.505 60.5V66H29.185V60.38C29.185 59.34 29.0383 58.5667 28.745 58.06C28.465 57.54 27.9983 57.28 27.345 57.28C26.8117 57.28 26.3317 57.44 25.905 57.76C25.4917 58.0667 25.1717 58.48 24.945 59C24.7183 59.52 24.605 60.0467 24.605 60.58V66ZM46.5547 64.92C45.488 65.7867 44.3547 66.22 43.1547 66.22C42.3414 66.22 41.6747 66 41.1547 65.56C40.648 65.12 40.3947 64.5067 40.3947 63.72C40.3947 63.1333 40.568 62.6067 40.9147 62.14C41.1414 61.8333 41.608 61.5333 42.3147 61.24C42.7147 61.0933 43.388 60.9333 44.3347 60.76C44.4947 60.72 44.9014 60.6533 45.5547 60.56L46.4747 60.44V60.04C46.4747 59.0133 46.308 58.3067 45.9747 57.92C45.6414 57.52 45.0614 57.32 44.2347 57.32C43.1014 57.32 42.2147 57.72 41.5747 58.52C41.5747 58.5067 41.308 58.2533 40.7747 57.76C41.548 56.7867 42.728 56.3 44.3147 56.3C46.6347 56.3 47.7947 57.4467 47.7947 59.74V66H46.6947L46.5547 64.92ZM46.4747 61.3L45.5547 61.46C44.5547 61.6333 43.8414 61.7667 43.4147 61.86C42.868 62.0067 42.428 62.2133 42.0947 62.48C41.788 62.72 41.6347 63.0733 41.6347 63.54C41.6347 64.7267 42.2214 65.32 43.3947 65.32C44.3814 65.32 45.408 64.8667 46.4747 63.96V61.3ZM52.2878 66V56.5H53.5878V66H52.2878ZM52.2678 54.48V52.82H53.5678V54.48H52.2678ZM57.9964 66V56.5H59.2764V56.8V57.38V58.04V58.3C59.5297 57.62 59.9964 57.1067 60.6764 56.76C61.3164 56.4533 61.9564 56.3 62.5964 56.3C63.3164 56.3 63.9031 56.44 64.3564 56.72C64.8231 57.0133 65.1431 57.3533 65.3164 57.74C65.5164 58.2067 65.6497 58.6667 65.7164 59.12C65.7431 59.4933 65.7564 59.7333 65.7564 59.84V60.58V66H64.4564V60.42C64.4564 59.6733 64.3764 59.04 64.2164 58.52C64.0431 58.0267 63.7231 57.6933 63.2564 57.52C63.0297 57.4267 62.7431 57.38 62.3964 57.38C61.4764 57.38 60.7697 57.6267 60.2764 58.12C59.8497 58.5467 59.5564 59.2 59.3964 60.08C59.3297 60.5067 59.2964 60.9333 59.2964 61.36V66H57.9964ZM76.3345 60.46C76.3079 58.34 75.4612 57.28 73.7945 57.28C72.9412 57.28 72.3012 57.5933 71.8745 58.22C71.4479 58.8067 71.1945 59.5533 71.1145 60.46H76.3345ZM76.7145 57.6C77.3012 58.4267 77.5945 59.4867 77.5945 60.78C77.5945 61.0333 77.5879 61.2133 77.5745 61.32H71.0945C71.0945 62.4533 71.3079 63.3667 71.7345 64.06C72.2012 64.8467 72.9145 65.24 73.8745 65.24C75.1145 65.24 75.9145 64.6933 76.2745 63.6L77.2945 63.84C77.1479 64.3467 76.8945 64.7867 76.5345 65.16C76.1879 65.5333 75.7879 65.8 75.3345 65.96C74.9212 66.1067 74.4479 66.1933 73.9145 66.22H73.8745C72.4612 66.22 71.4079 65.7133 70.7145 64.7C70.0745 63.7933 69.7545 62.64 69.7545 61.24C69.7545 59.7467 70.1145 58.5533 70.8345 57.66C71.5679 56.7533 72.5679 56.3 73.8345 56.3C75.1279 56.3 76.0879 56.7333 76.7145 57.6ZM81.6663 64H83.1863V66H81.6663V64Z" fill="black"/>
</svg>
