<svg width="318" height="41" viewBox="0 0 318 41" fill="none" xmlns="http://www.w3.org/2000/svg">
<path d="M11.78 3.78L10.52 4.06C10.3067 3.18 9.88 2.49333 9.24 2C8.61333 1.50667 7.8 1.26 6.8 1.26C5.28 1.26 4.18 1.75333 3.5 2.74C2.82 3.71333 2.48 5.18667 2.48 7.16C2.48 8.77333 2.66667 10.04 3.04 10.96C3.44 11.9333 4.12 12.58 5.08 12.9C5.58667 13.06 6.16667 13.14 6.82 13.14C8.74 13.14 10.02 12.26 10.66 10.5L11.82 10.86C11.46 11.9667 10.84 12.8067 9.96 13.38C9.08 13.94 8.00667 14.22 6.74 14.22C4.80667 14.22 3.37333 13.6533 2.44 12.52C1.52 11.3867 1.06 9.6 1.06 7.16C1.06 2.49333 2.98667 0.159999 6.84 0.159999C8.09333 0.159999 9.14667 0.473333 10 1.1C10.8667 1.71333 11.46 2.60667 11.78 3.78ZM17.2795 6.54C16.9062 7.28667 16.7195 8.18667 16.7195 9.24C16.7195 10.0933 16.8395 10.84 17.0795 11.48C17.3195 12.2133 17.7462 12.72 18.3595 13C18.6795 13.16 19.0462 13.24 19.4595 13.24C20.2729 13.24 20.9062 12.96 21.3595 12.4C21.7595 11.9067 22.0129 11.2467 22.1195 10.42C22.1729 10.1 22.1995 9.70667 22.1995 9.24C22.1995 8.42667 22.0795 7.68667 21.8395 7.02C21.5729 6.28667 21.1462 5.78 20.5595 5.5C20.1995 5.35333 19.8329 5.28 19.4595 5.28C18.4195 5.28 17.6929 5.7 17.2795 6.54ZM22.4195 5.6C23.1662 6.45333 23.5395 7.66667 23.5395 9.24C23.5395 10.8133 23.1729 12.04 22.4395 12.92C21.7195 13.7867 20.7262 14.22 19.4595 14.22C18.1929 14.22 17.1929 13.7867 16.4595 12.92C15.7395 12.0533 15.3795 10.8333 15.3795 9.26C15.3795 7.67333 15.7462 6.45333 16.4795 5.6C17.2129 4.73333 18.2062 4.3 19.4595 4.3C20.6995 4.3 21.6862 4.73333 22.4195 5.6ZM28.8823 14H27.5823V4.5H28.8423L28.8823 6.02C29.549 4.87333 30.5557 4.3 31.9023 4.3C33.3023 4.3 34.189 4.96 34.5623 6.28C34.869 5.64 35.3023 5.15333 35.8623 4.82C36.4357 4.47333 37.069 4.3 37.7623 4.3C38.7223 4.3 39.449 4.62 39.9423 5.26C40.3423 5.78 40.5823 6.5 40.6623 7.42C40.689 7.92667 40.7023 8.34 40.7023 8.66V14H39.4023V8.38C39.4023 7.43333 39.269 6.68667 39.0023 6.14C38.709 5.56667 38.2157 5.28 37.5223 5.28C37.0157 5.28 36.549 5.44 36.1223 5.76C35.6957 6.06667 35.3623 6.47333 35.1223 6.98C34.8957 7.5 34.7823 8.00667 34.7823 8.5V14H33.4623V8.38C33.4623 7.34 33.3157 6.56667 33.0223 6.06C32.7423 5.54 32.2757 5.28 31.6223 5.28C31.089 5.28 30.609 5.44 30.1823 5.76C29.769 6.06667 29.449 6.48 29.2223 7C28.9957 7.52 28.8823 8.04667 28.8823 8.58V14ZM44.992 0.14H46.312V3.78V5.98C46.8587 4.86 47.8587 4.3 49.312 4.3C50.4454 4.3 51.332 4.74667 51.972 5.64C52.6254 6.53333 52.952 7.76667 52.952 9.34C52.952 10.8333 52.6187 12.02 51.952 12.9C51.2987 13.78 50.3854 14.22 49.212 14.22C48.5187 14.22 47.9054 14.0733 47.372 13.78C46.8387 13.4733 46.452 13.0467 46.212 12.5L46.032 14H44.992V0.14ZM47.552 5.78C47.032 6.18 46.6654 6.78 46.452 7.58C46.332 8.04667 46.272 8.57333 46.272 9.16C46.272 11.9067 47.2054 13.28 49.072 13.28C49.8587 13.28 50.4787 12.9133 50.932 12.18C51.3854 11.4333 51.612 10.4333 51.612 9.18C51.612 8.04667 51.372 7.11333 50.892 6.38C50.4254 5.64667 49.812 5.28 49.052 5.28C48.492 5.28 47.992 5.44667 47.552 5.78ZM57.112 14V4.5H58.412V14H57.112ZM57.092 2.48V0.819999H58.392V2.48H57.092ZM69.0806 8.46C69.054 6.34 68.2073 5.28 66.5406 5.28C65.6873 5.28 65.0473 5.59333 64.6206 6.22C64.194 6.80667 63.9406 7.55333 63.8606 8.46H69.0806ZM69.4606 5.6C70.0473 6.42667 70.3406 7.48667 70.3406 8.78C70.3406 9.03333 70.334 9.21333 70.3206 9.32H63.8406C63.8406 10.4533 64.054 11.3667 64.4806 12.06C64.9473 12.8467 65.6606 13.24 66.6206 13.24C67.8606 13.24 68.6606 12.6933 69.0206 11.6L70.0406 11.84C69.894 12.3467 69.6406 12.7867 69.2806 13.16C68.934 13.5333 68.534 13.8 68.0806 13.96C67.6673 14.1067 67.194 14.1933 66.6606 14.22H66.6206C65.2073 14.22 64.154 13.7133 63.4606 12.7C62.8206 11.7933 62.5006 10.64 62.5006 9.24C62.5006 7.74667 62.8606 6.55333 63.5806 5.66C64.314 4.75333 65.314 4.3 66.5806 4.3C67.874 4.3 68.834 4.73333 69.4606 5.6ZM74.3323 14V4.5H75.6123V4.8V5.38V6.04V6.3C75.8657 5.62 76.3323 5.10667 77.0123 4.76C77.6523 4.45333 78.2923 4.3 78.9323 4.3C79.6523 4.3 80.239 4.44 80.6923 4.72C81.159 5.01333 81.479 5.35333 81.6523 5.74C81.8523 6.20667 81.9857 6.66667 82.0523 7.12C82.079 7.49333 82.0923 7.73333 82.0923 7.84V8.58V14H80.7923V8.42C80.7923 7.67333 80.7123 7.04 80.5523 6.52C80.379 6.02667 80.059 5.69333 79.5923 5.52C79.3657 5.42667 79.079 5.38 78.7323 5.38C77.8123 5.38 77.1057 5.62667 76.6123 6.12C76.1857 6.54667 75.8923 7.2 75.7323 8.08C75.6657 8.50667 75.6323 8.93333 75.6323 9.36V14H74.3323ZM97.5702 12.86C98.0768 12.5667 98.4368 11.98 98.6502 11.1C98.7568 10.5933 98.8102 10.0133 98.8102 9.36C98.8102 7.66667 98.4235 6.48667 97.6502 5.82C97.2235 5.46 96.6968 5.28 96.0702 5.28C95.2835 5.28 94.6702 5.65333 94.2302 6.4C93.8035 7.13333 93.5902 8.13333 93.5902 9.4C93.5902 10.5467 93.8168 11.4733 94.2702 12.18C94.7235 12.8867 95.3302 13.24 96.0902 13.24C96.6635 13.24 97.1568 13.1133 97.5702 12.86ZM95.8702 4.3C97.3102 4.3 98.2768 4.86667 98.7702 6V0.32H100.09V14H99.0302L98.8502 12.4C98.6102 12.96 98.2235 13.4067 97.6902 13.74C97.1702 14.06 96.5768 14.22 95.9102 14.22C94.7902 14.22 93.8968 13.78 93.2302 12.9C92.5768 12.02 92.2502 10.84 92.2502 9.36C92.2502 7.78667 92.5635 6.55333 93.1902 5.66C93.8302 4.75333 94.7235 4.3 95.8702 4.3ZM110.753 8.46C110.726 6.34 109.879 5.28 108.213 5.28C107.359 5.28 106.719 5.59333 106.293 6.22C105.866 6.80667 105.613 7.55333 105.533 8.46H110.753ZM111.133 5.6C111.719 6.42667 112.013 7.48667 112.013 8.78C112.013 9.03333 112.006 9.21333 111.993 9.32H105.513C105.513 10.4533 105.726 11.3667 106.153 12.06C106.619 12.8467 107.333 13.24 108.293 13.24C109.533 13.24 110.333 12.6933 110.693 11.6L111.713 11.84C111.566 12.3467 111.313 12.7867 110.953 13.16C110.606 13.5333 110.206 13.8 109.753 13.96C109.339 14.1067 108.866 14.1933 108.333 14.22H108.293C106.879 14.22 105.826 13.7133 105.133 12.7C104.493 11.7933 104.173 10.64 104.173 9.24C104.173 7.74667 104.533 6.55333 105.253 5.66C105.986 4.75333 106.986 4.3 108.253 4.3C109.546 4.3 110.506 4.73333 111.133 5.6ZM123.704 4.96C124.331 4.52 125.097 4.3 126.004 4.3C126.737 4.3 127.424 4.5 128.064 4.9C128.731 5.35333 129.197 6.12 129.464 7.2L128.364 7.5C128.151 6.74 127.857 6.18 127.484 5.82C127.124 5.46 126.651 5.28 126.064 5.28C125.117 5.28 124.404 5.62667 123.924 6.32C123.444 7.01333 123.204 7.98667 123.204 9.24C123.204 10.4667 123.417 11.4267 123.844 12.12C124.284 12.8667 124.977 13.24 125.924 13.24C127.151 13.24 127.977 12.52 128.404 11.08L129.424 11.38C129.211 12.3533 128.751 13.0867 128.044 13.58C127.417 14.0067 126.704 14.22 125.904 14.22C124.611 14.22 123.611 13.78 122.904 12.9C122.211 12.0067 121.864 10.7933 121.864 9.26C121.864 7.24667 122.477 5.81333 123.704 4.96ZM133.385 14V4.5H134.685V14H133.385ZM133.365 2.48V0.819999H134.665V2.48H133.365ZM139.434 16.48L140.214 15.74C140.707 16.5533 141.594 16.96 142.874 16.96C144.621 16.96 145.494 15.8867 145.494 13.74V12.8C144.774 13.7467 143.821 14.22 142.634 14.22C141.421 14.22 140.474 13.76 139.794 12.84C139.127 11.92 138.794 10.68 138.794 9.12C138.794 7.17333 139.361 5.78 140.494 4.94C141.081 4.51333 141.774 4.3 142.574 4.3C143.801 4.3 144.814 4.78 145.614 5.74L145.694 4.5H146.734V13.82C146.734 15.0733 146.387 16.08 145.694 16.84C145.001 17.6 144.034 17.98 142.794 17.98C141.154 17.98 140.034 17.48 139.434 16.48ZM145.494 8.96C145.494 7.74667 145.274 6.85333 144.834 6.28C144.461 5.78667 143.994 5.48 143.434 5.36C143.221 5.30667 142.981 5.28 142.714 5.28C141.821 5.28 141.154 5.67333 140.714 6.46C140.301 7.16667 140.094 8.04 140.094 9.08C140.094 10.4 140.321 11.4267 140.774 12.16C141.241 12.88 141.874 13.24 142.674 13.24C143.247 13.24 143.761 13.0933 144.214 12.8C144.721 12.48 145.087 11.8667 145.314 10.96C145.434 10.48 145.494 9.91333 145.494 9.26V8.96ZM156.914 12.92C155.847 13.7867 154.714 14.22 153.514 14.22C152.701 14.22 152.034 14 151.514 13.56C151.007 13.12 150.754 12.5067 150.754 11.72C150.754 11.1333 150.927 10.6067 151.274 10.14C151.501 9.83333 151.967 9.53333 152.674 9.24C153.074 9.09333 153.747 8.93333 154.694 8.76C154.854 8.72 155.261 8.65333 155.914 8.56L156.834 8.44V8.04C156.834 7.01333 156.667 6.30667 156.334 5.92C156.001 5.52 155.421 5.32 154.594 5.32C153.461 5.32 152.574 5.72 151.934 6.52C151.934 6.50667 151.667 6.25333 151.134 5.76C151.907 4.78667 153.087 4.3 154.674 4.3C156.994 4.3 158.154 5.44667 158.154 7.74V14H157.054L156.914 12.92ZM156.834 9.3L155.914 9.46C154.914 9.63333 154.201 9.76667 153.774 9.86C153.227 10.0067 152.787 10.2133 152.454 10.48C152.147 10.72 151.994 11.0733 151.994 11.54C151.994 12.7267 152.581 13.32 153.754 13.32C154.741 13.32 155.767 12.8667 156.834 11.96V9.3ZM163.787 4.5V6.28C163.961 5.88 164.207 5.53333 164.527 5.24C164.847 4.94667 165.187 4.74667 165.547 4.64C165.867 4.54667 166.221 4.5 166.607 4.5V5.7C165.581 5.7 164.854 6.04667 164.427 6.74C164.027 7.36667 163.827 8.14 163.827 9.06V14H162.507V4.5H163.787ZM176.237 8.46C176.21 6.34 175.364 5.28 173.697 5.28C172.844 5.28 172.204 5.59333 171.777 6.22C171.35 6.80667 171.097 7.55333 171.017 8.46H176.237ZM176.617 5.6C177.204 6.42667 177.497 7.48667 177.497 8.78C177.497 9.03333 177.49 9.21333 177.477 9.32H170.997C170.997 10.4533 171.21 11.3667 171.637 12.06C172.104 12.8467 172.817 13.24 173.777 13.24C175.017 13.24 175.817 12.6933 176.177 11.6L177.197 11.84C177.05 12.3467 176.797 12.7867 176.437 13.16C176.09 13.5333 175.69 13.8 175.237 13.96C174.824 14.1067 174.35 14.1933 173.817 14.22H173.777C172.364 14.22 171.31 13.7133 170.617 12.7C169.977 11.7933 169.657 10.64 169.657 9.24C169.657 7.74667 170.017 6.55333 170.737 5.66C171.47 4.75333 172.47 4.3 173.737 4.3C175.03 4.3 175.99 4.73333 176.617 5.6ZM186.049 13.7C185.582 14.0067 185.035 14.16 184.409 14.16C183.582 14.16 182.982 13.9133 182.609 13.42C182.249 12.9133 182.069 12.1 182.069 10.98V5.44H180.669V4.5H182.169V1.48L183.409 1.14V4.5H185.469V5.44H183.409V11.58C183.409 12.6333 183.835 13.16 184.689 13.16C184.969 13.16 185.342 13.0533 185.809 12.84L186.049 13.7ZM194.006 13.7C193.539 14.0067 192.992 14.16 192.366 14.16C191.539 14.16 190.939 13.9133 190.566 13.42C190.206 12.9133 190.026 12.1 190.026 10.98V5.44H188.626V4.5H190.126V1.48L191.366 1.14V4.5H193.426V5.44H191.366V11.58C191.366 12.6333 191.792 13.16 192.646 13.16C192.926 13.16 193.299 13.0533 193.766 12.84L194.006 13.7ZM203.663 8.46C203.636 6.34 202.789 5.28 201.123 5.28C200.269 5.28 199.629 5.59333 199.203 6.22C198.776 6.80667 198.523 7.55333 198.443 8.46H203.663ZM204.043 5.6C204.629 6.42667 204.923 7.48667 204.923 8.78C204.923 9.03333 204.916 9.21333 204.903 9.32H198.423C198.423 10.4533 198.636 11.3667 199.063 12.06C199.529 12.8467 200.243 13.24 201.203 13.24C202.443 13.24 203.243 12.6933 203.603 11.6L204.623 11.84C204.476 12.3467 204.223 12.7867 203.863 13.16C203.516 13.5333 203.116 13.8 202.663 13.96C202.249 14.1067 201.776 14.1933 201.243 14.22H201.203C199.789 14.22 198.736 13.7133 198.043 12.7C197.403 11.7933 197.083 10.64 197.083 9.24C197.083 7.74667 197.443 6.55333 198.163 5.66C198.896 4.75333 199.896 4.3 201.163 4.3C202.456 4.3 203.416 4.73333 204.043 5.6ZM214.634 6.66C214.261 5.75333 213.468 5.3 212.254 5.3C210.694 5.3 209.914 5.85333 209.914 6.96C209.914 7.36 210.068 7.68667 210.374 7.94C210.614 8.16667 211.021 8.33333 211.594 8.44C211.808 8.50667 212.074 8.56667 212.394 8.62C213.501 8.82 214.314 9.13333 214.834 9.56C215.354 9.97333 215.614 10.5667 215.614 11.34C215.614 13.26 214.361 14.22 211.854 14.22C211.054 14.22 210.354 14.06 209.754 13.74C209.061 13.3667 208.594 12.7533 208.354 11.9L209.354 11.52C209.581 12.12 209.894 12.5533 210.294 12.82C210.708 13.0867 211.274 13.22 211.994 13.22C213.608 13.22 214.414 12.68 214.414 11.6C214.414 11.0133 214.228 10.5933 213.854 10.34C213.481 10.1 212.701 9.86 211.514 9.62C210.914 9.48667 210.361 9.29333 209.854 9.04C209.388 8.82667 209.048 8.44667 208.834 7.9C208.728 7.60667 208.674 7.28667 208.674 6.94C208.674 6.12667 208.994 5.48667 209.634 5.02C210.274 4.54 211.121 4.3 212.174 4.3C213.041 4.3 213.734 4.44667 214.254 4.74C214.788 5.02 215.214 5.49333 215.534 6.16L214.634 6.66ZM231.527 12.92C230.461 13.7867 229.327 14.22 228.127 14.22C227.314 14.22 226.647 14 226.127 13.56C225.621 13.12 225.367 12.5067 225.367 11.72C225.367 11.1333 225.541 10.6067 225.887 10.14C226.114 9.83333 226.581 9.53333 227.287 9.24C227.687 9.09333 228.361 8.93333 229.307 8.76C229.467 8.72 229.874 8.65333 230.527 8.56L231.447 8.44V8.04C231.447 7.01333 231.281 6.30667 230.947 5.92C230.614 5.52 230.034 5.32 229.207 5.32C228.074 5.32 227.187 5.72 226.547 6.52C226.547 6.50667 226.281 6.25333 225.747 5.76C226.521 4.78667 227.701 4.3 229.287 4.3C231.607 4.3 232.767 5.44667 232.767 7.74V14H231.667L231.527 12.92ZM231.447 9.3L230.527 9.46C229.527 9.63333 228.814 9.76667 228.387 9.86C227.841 10.0067 227.401 10.2133 227.067 10.48C226.761 10.72 226.607 11.0733 226.607 11.54C226.607 12.7267 227.194 13.32 228.367 13.32C229.354 13.32 230.381 12.8667 231.447 11.96V9.3ZM243.203 4.5H244.463L240.823 14H239.643L236.083 4.5H237.503L240.283 12.6L243.203 4.5ZM254.17 8.46C254.144 6.34 253.297 5.28 251.63 5.28C250.777 5.28 250.137 5.59333 249.71 6.22C249.284 6.80667 249.03 7.55333 248.95 8.46H254.17ZM254.55 5.6C255.137 6.42667 255.43 7.48667 255.43 8.78C255.43 9.03333 255.424 9.21333 255.41 9.32H248.93C248.93 10.4533 249.144 11.3667 249.57 12.06C250.037 12.8467 250.75 13.24 251.71 13.24C252.95 13.24 253.75 12.6933 254.11 11.6L255.13 11.84C254.984 12.3467 254.73 12.7867 254.37 13.16C254.024 13.5333 253.624 13.8 253.17 13.96C252.757 14.1067 252.284 14.1933 251.75 14.22H251.71C250.297 14.22 249.244 13.7133 248.55 12.7C247.91 11.7933 247.59 10.64 247.59 9.24C247.59 7.74667 247.95 6.55333 248.67 5.66C249.404 4.75333 250.404 4.3 251.67 4.3C252.964 4.3 253.924 4.73333 254.55 5.6ZM259.042 5.46V4.5H266.002V5.4L260.342 13.06H265.982V14H258.842V13.12L264.442 5.46H259.042ZM281.906 4.5H283.166L279.526 14H278.346L274.786 4.5H276.206L278.986 12.6L281.906 4.5ZM288.194 6.54C287.82 7.28667 287.634 8.18667 287.634 9.24C287.634 10.0933 287.754 10.84 287.994 11.48C288.234 12.2133 288.66 12.72 289.274 13C289.594 13.16 289.96 13.24 290.374 13.24C291.187 13.24 291.82 12.96 292.274 12.4C292.674 11.9067 292.927 11.2467 293.034 10.42C293.087 10.1 293.114 9.70667 293.114 9.24C293.114 8.42667 292.994 7.68667 292.754 7.02C292.487 6.28667 292.06 5.78 291.474 5.5C291.114 5.35333 290.747 5.28 290.374 5.28C289.334 5.28 288.607 5.7 288.194 6.54ZM293.334 5.6C294.08 6.45333 294.454 7.66667 294.454 9.24C294.454 10.8133 294.087 12.04 293.354 12.92C292.634 13.7867 291.64 14.22 290.374 14.22C289.107 14.22 288.107 13.7867 287.374 12.92C286.654 12.0533 286.294 10.8333 286.294 9.26C286.294 7.67333 286.66 6.45333 287.394 5.6C288.127 4.73333 289.12 4.3 290.374 4.3C291.614 4.3 292.6 4.73333 293.334 5.6ZM304.856 4.5H306.176V14H304.896V12.22C304.656 12.8467 304.223 13.34 303.596 13.7C302.97 14.0467 302.296 14.22 301.576 14.22C300.763 14.22 300.13 14.0467 299.676 13.7C299.25 13.3933 298.943 12.9667 298.756 12.42C298.583 11.9133 298.483 11.3667 298.456 10.78C298.443 10.62 298.436 10.3467 298.436 9.96V4.5H299.756V10.24C299.756 11.24 299.91 11.9867 300.216 12.48C300.536 12.96 301.063 13.2 301.796 13.2C302.69 13.2 303.403 12.92 303.936 12.36C304.39 11.9067 304.676 11.3667 304.796 10.74C304.836 10.4867 304.856 10.2267 304.856 9.96V4.5ZM316.588 6.66C316.214 5.75333 315.421 5.3 314.208 5.3C312.648 5.3 311.868 5.85333 311.868 6.96C311.868 7.36 312.021 7.68667 312.327 7.94C312.568 8.16667 312.974 8.33333 313.548 8.44C313.761 8.50667 314.028 8.56667 314.348 8.62C315.454 8.82 316.268 9.13333 316.788 9.56C317.308 9.97333 317.568 10.5667 317.568 11.34C317.568 13.26 316.314 14.22 313.808 14.22C313.008 14.22 312.308 14.06 311.708 13.74C311.014 13.3667 310.548 12.7533 310.308 11.9L311.308 11.52C311.534 12.12 311.848 12.5533 312.248 12.82C312.661 13.0867 313.228 13.22 313.948 13.22C315.561 13.22 316.368 12.68 316.368 11.6C316.368 11.0133 316.181 10.5933 315.808 10.34C315.434 10.1 314.654 9.86 313.468 9.62C312.868 9.48667 312.314 9.29333 311.808 9.04C311.341 8.82667 311.001 8.44667 310.788 7.9C310.681 7.60667 310.628 7.28667 310.628 6.94C310.628 6.12667 310.948 5.48667 311.588 5.02C312.228 4.54 313.074 4.3 314.128 4.3C314.994 4.3 315.688 4.44667 316.208 4.74C316.741 5.02 317.168 5.49333 317.488 6.16L316.588 6.66ZM2.7 30.96C3.32667 30.52 4.09333 30.3 5 30.3C5.73333 30.3 6.42 30.5 7.06 30.9C7.72667 31.3533 8.19333 32.12 8.46 33.2L7.36 33.5C7.14667 32.74 6.85333 32.18 6.48 31.82C6.12 31.46 5.64667 31.28 5.06 31.28C4.11333 31.28 3.4 31.6267 2.92 32.32C2.44 33.0133 2.2 33.9867 2.2 35.24C2.2 36.4667 2.41333 37.4267 2.84 38.12C3.28 38.8667 3.97333 39.24 4.92 39.24C6.14667 39.24 6.97333 38.52 7.4 37.08L8.42 37.38C8.20667 38.3533 7.74667 39.0867 7.04 39.58C6.41333 40.0067 5.7 40.22 4.9 40.22C3.60667 40.22 2.60667 39.78 1.9 38.9C1.20667 38.0067 0.86 36.7933 0.86 35.26C0.86 33.2467 1.47333 31.8133 2.7 30.96ZM13.8616 32.54C13.4882 33.2867 13.3016 34.1867 13.3016 35.24C13.3016 36.0933 13.4216 36.84 13.6616 37.48C13.9016 38.2133 14.3282 38.72 14.9416 39C15.2616 39.16 15.6282 39.24 16.0416 39.24C16.8549 39.24 17.4882 38.96 17.9416 38.4C18.3416 37.9067 18.5949 37.2467 18.7016 36.42C18.7549 36.1 18.7816 35.7067 18.7816 35.24C18.7816 34.4267 18.6616 33.6867 18.4216 33.02C18.1549 32.2867 17.7282 31.78 17.1416 31.5C16.7816 31.3533 16.4149 31.28 16.0416 31.28C15.0016 31.28 14.2749 31.7 13.8616 32.54ZM19.0016 31.6C19.7482 32.4533 20.1216 33.6667 20.1216 35.24C20.1216 36.8133 19.7549 38.04 19.0216 38.92C18.3016 39.7867 17.3082 40.22 16.0416 40.22C14.7749 40.22 13.7749 39.7867 13.0416 38.92C12.3216 38.0533 11.9616 36.8333 11.9616 35.26C11.9616 33.6733 12.3282 32.4533 13.0616 31.6C13.7949 30.7333 14.7882 30.3 16.0416 30.3C17.2816 30.3 18.2682 30.7333 19.0016 31.6ZM24.1644 40V30.5H25.4444V30.8V31.38V32.04V32.3C25.6977 31.62 26.1644 31.1067 26.8444 30.76C27.4844 30.4533 28.1244 30.3 28.7644 30.3C29.4844 30.3 30.071 30.44 30.5244 30.72C30.991 31.0133 31.311 31.3533 31.4844 31.74C31.6844 32.2067 31.8177 32.6667 31.8844 33.12C31.911 33.4933 31.9244 33.7333 31.9244 33.84V34.58V40H30.6244V34.42C30.6244 33.6733 30.5444 33.04 30.3844 32.52C30.211 32.0267 29.891 31.6933 29.4244 31.52C29.1977 31.4267 28.911 31.38 28.5644 31.38C27.6444 31.38 26.9377 31.6267 26.4444 32.12C26.0177 32.5467 25.7244 33.2 25.5644 34.08C25.4977 34.5067 25.4644 34.9333 25.4644 35.36V40H24.1644ZM41.9625 32.66C41.5892 31.7533 40.7958 31.3 39.5825 31.3C38.0225 31.3 37.2425 31.8533 37.2425 32.96C37.2425 33.36 37.3958 33.6867 37.7025 33.94C37.9425 34.1667 38.3492 34.3333 38.9225 34.44C39.1358 34.5067 39.4025 34.5667 39.7225 34.62C40.8292 34.82 41.6425 35.1333 42.1625 35.56C42.6825 35.9733 42.9425 36.5667 42.9425 37.34C42.9425 39.26 41.6892 40.22 39.1825 40.22C38.3825 40.22 37.6825 40.06 37.0825 39.74C36.3892 39.3667 35.9225 38.7533 35.6825 37.9L36.6825 37.52C36.9092 38.12 37.2225 38.5533 37.6225 38.82C38.0358 39.0867 38.6025 39.22 39.3225 39.22C40.9358 39.22 41.7425 38.68 41.7425 37.6C41.7425 37.0133 41.5558 36.5933 41.1825 36.34C40.8092 36.1 40.0292 35.86 38.8425 35.62C38.2425 35.4867 37.6892 35.2933 37.1825 35.04C36.7158 34.8267 36.3758 34.4467 36.1625 33.9C36.0558 33.6067 36.0025 33.2867 36.0025 32.94C36.0025 32.1267 36.3225 31.4867 36.9625 31.02C37.6025 30.54 38.4492 30.3 39.5025 30.3C40.3692 30.3 41.0625 30.4467 41.5825 30.74C42.1158 31.02 42.5425 31.4933 42.8625 32.16L41.9625 32.66ZM48.4358 32.54C48.0624 33.2867 47.8758 34.1867 47.8758 35.24C47.8758 36.0933 47.9958 36.84 48.2358 37.48C48.4758 38.2133 48.9024 38.72 49.5158 39C49.8358 39.16 50.2024 39.24 50.6158 39.24C51.4291 39.24 52.0624 38.96 52.5158 38.4C52.9158 37.9067 53.1691 37.2467 53.2758 36.42C53.3291 36.1 53.3558 35.7067 53.3558 35.24C53.3558 34.4267 53.2358 33.6867 52.9958 33.02C52.7291 32.2867 52.3024 31.78 51.7158 31.5C51.3558 31.3533 50.9891 31.28 50.6158 31.28C49.5758 31.28 48.8491 31.7 48.4358 32.54ZM53.5758 31.6C54.3224 32.4533 54.6958 33.6667 54.6958 35.24C54.6958 36.8133 54.3291 38.04 53.5958 38.92C52.8758 39.7867 51.8824 40.22 50.6158 40.22C49.3491 40.22 48.3491 39.7867 47.6158 38.92C46.8958 38.0533 46.5358 36.8333 46.5358 35.26C46.5358 33.6733 46.9024 32.4533 47.6358 31.6C48.3691 30.7333 49.3624 30.3 50.6158 30.3C51.8558 30.3 52.8424 30.7333 53.5758 31.6ZM60.0386 40H58.7386V30.5H59.9986L60.0386 32.02C60.7053 30.8733 61.7119 30.3 63.0586 30.3C64.4586 30.3 65.3453 30.96 65.7186 32.28C66.0253 31.64 66.4586 31.1533 67.0186 30.82C67.5919 30.4733 68.2253 30.3 68.9186 30.3C69.8786 30.3 70.6053 30.62 71.0986 31.26C71.4986 31.78 71.7386 32.5 71.8186 33.42C71.8453 33.9267 71.8586 34.34 71.8586 34.66V40H70.5586V34.38C70.5586 33.4333 70.4253 32.6867 70.1586 32.14C69.8653 31.5667 69.3719 31.28 68.6786 31.28C68.1719 31.28 67.7053 31.44 67.2786 31.76C66.8519 32.0667 66.5186 32.4733 66.2786 32.98C66.0519 33.5 65.9386 34.0067 65.9386 34.5V40H64.6186V34.38C64.6186 33.34 64.4719 32.5667 64.1786 32.06C63.8986 31.54 63.4319 31.28 62.7786 31.28C62.2453 31.28 61.7653 31.44 61.3386 31.76C60.9253 32.0667 60.6053 32.48 60.3786 33C60.1519 33.52 60.0386 34.0467 60.0386 34.58V40ZM77.4683 40H76.1683V30.5H77.4283L77.4683 32.02C78.1349 30.8733 79.1416 30.3 80.4883 30.3C81.8883 30.3 82.7749 30.96 83.1483 32.28C83.4549 31.64 83.8883 31.1533 84.4483 30.82C85.0216 30.4733 85.6549 30.3 86.3483 30.3C87.3083 30.3 88.0349 30.62 88.5283 31.26C88.9283 31.78 89.1683 32.5 89.2483 33.42C89.2749 33.9267 89.2883 34.34 89.2883 34.66V40H87.9883V34.38C87.9883 33.4333 87.8549 32.6867 87.5883 32.14C87.2949 31.5667 86.8016 31.28 86.1083 31.28C85.6016 31.28 85.1349 31.44 84.7083 31.76C84.2816 32.0667 83.9483 32.4733 83.7083 32.98C83.4816 33.5 83.3683 34.0067 83.3683 34.5V40H82.0483V34.38C82.0483 33.34 81.9016 32.5667 81.6083 32.06C81.3283 31.54 80.8616 31.28 80.2083 31.28C79.6749 31.28 79.1949 31.44 78.7683 31.76C78.3549 32.0667 78.0349 32.48 77.8083 33C77.5816 33.52 77.4683 34.0467 77.4683 34.58V40ZM98.818 26.1H100.618L97.778 29.1H96.918L98.818 26.1ZM99.858 34.46C99.8313 32.34 98.9846 31.28 97.318 31.28C96.4646 31.28 95.8246 31.5933 95.398 32.22C94.9713 32.8067 94.718 33.5533 94.638 34.46H99.858ZM100.238 31.6C100.825 32.4267 101.118 33.4867 101.118 34.78C101.118 35.0333 101.111 35.2133 101.098 35.32H94.618C94.618 36.4533 94.8313 37.3667 95.258 38.06C95.7246 38.8467 96.438 39.24 97.398 39.24C98.638 39.24 99.438 38.6933 99.798 37.6L100.818 37.84C100.671 38.3467 100.418 38.7867 100.058 39.16C99.7113 39.5333 99.3113 39.8 98.858 39.96C98.4446 40.1067 97.9713 40.1933 97.438 40.22H97.398C95.9846 40.22 94.9313 39.7133 94.238 38.7C93.598 37.7933 93.278 36.64 93.278 35.24C93.278 33.7467 93.638 32.5533 94.358 31.66C95.0913 30.7533 96.0913 30.3 97.358 30.3C98.6513 30.3 99.6113 30.7333 100.238 31.6ZM112.809 30.96C113.436 30.52 114.203 30.3 115.109 30.3C115.843 30.3 116.529 30.5 117.169 30.9C117.836 31.3533 118.303 32.12 118.569 33.2L117.469 33.5C117.256 32.74 116.963 32.18 116.589 31.82C116.229 31.46 115.756 31.28 115.169 31.28C114.223 31.28 113.509 31.6267 113.029 32.32C112.549 33.0133 112.309 33.9867 112.309 35.24C112.309 36.4667 112.523 37.4267 112.949 38.12C113.389 38.8667 114.083 39.24 115.029 39.24C116.256 39.24 117.083 38.52 117.509 37.08L118.529 37.38C118.316 38.3533 117.856 39.0867 117.149 39.58C116.523 40.0067 115.809 40.22 115.009 40.22C113.716 40.22 112.716 39.78 112.009 38.9C111.316 38.0067 110.969 36.7933 110.969 35.26C110.969 33.2467 111.583 31.8133 112.809 30.96ZM128.651 34.46C128.624 32.34 127.778 31.28 126.111 31.28C125.258 31.28 124.618 31.5933 124.191 32.22C123.764 32.8067 123.511 33.5533 123.431 34.46H128.651ZM129.031 31.6C129.618 32.4267 129.911 33.4867 129.911 34.78C129.911 35.0333 129.904 35.2133 129.891 35.32H123.411C123.411 36.4533 123.624 37.3667 124.051 38.06C124.518 38.8467 125.231 39.24 126.191 39.24C127.431 39.24 128.231 38.6933 128.591 37.6L129.611 37.84C129.464 38.3467 129.211 38.7867 128.851 39.16C128.504 39.5333 128.104 39.8 127.651 39.96C127.238 40.1067 126.764 40.1933 126.231 40.22H126.191C124.778 40.22 123.724 39.7133 123.031 38.7C122.391 37.7933 122.071 36.64 122.071 35.24C122.071 33.7467 122.431 32.5533 123.151 31.66C123.884 30.7533 124.884 30.3 126.151 30.3C127.444 30.3 128.404 30.7333 129.031 31.6ZM138.463 39.7C137.996 40.0067 137.449 40.16 136.823 40.16C135.996 40.16 135.396 39.9133 135.023 39.42C134.663 38.9133 134.483 38.1 134.483 36.98V31.44H133.083V30.5H134.583V27.48L135.823 27.14V30.5H137.883V31.44H135.823V37.58C135.823 38.6333 136.249 39.16 137.103 39.16C137.383 39.16 137.756 39.0533 138.223 38.84L138.463 39.7ZM146.42 39.7C145.953 40.0067 145.406 40.16 144.78 40.16C143.953 40.16 143.353 39.9133 142.98 39.42C142.62 38.9133 142.44 38.1 142.44 36.98V31.44H141.04V30.5H142.54V27.48L143.78 27.14V30.5H145.84V31.44H143.78V37.58C143.78 38.6333 144.206 39.16 145.06 39.16C145.34 39.16 145.713 39.0533 146.18 38.84L146.42 39.7ZM156.077 34.46C156.05 32.34 155.203 31.28 153.537 31.28C152.683 31.28 152.043 31.5933 151.617 32.22C151.19 32.8067 150.937 33.5533 150.857 34.46H156.077ZM156.457 31.6C157.043 32.4267 157.337 33.4867 157.337 34.78C157.337 35.0333 157.33 35.2133 157.317 35.32H150.837C150.837 36.4533 151.05 37.3667 151.477 38.06C151.943 38.8467 152.657 39.24 153.617 39.24C154.857 39.24 155.657 38.6933 156.017 37.6L157.037 37.84C156.89 38.3467 156.637 38.7867 156.277 39.16C155.93 39.5333 155.53 39.8 155.077 39.96C154.663 40.1067 154.19 40.1933 153.657 40.22H153.617C152.203 40.22 151.15 39.7133 150.457 38.7C149.817 37.7933 149.497 36.64 149.497 35.24C149.497 33.7467 149.857 32.5533 150.577 31.66C151.31 30.7533 152.31 30.3 153.577 30.3C154.87 30.3 155.83 30.7333 156.457 31.6ZM173.228 32.66C172.855 31.7533 172.061 31.3 170.848 31.3C169.288 31.3 168.508 31.8533 168.508 32.96C168.508 33.36 168.661 33.6867 168.968 33.94C169.208 34.1667 169.615 34.3333 170.188 34.44C170.401 34.5067 170.668 34.5667 170.988 34.62C172.095 34.82 172.908 35.1333 173.428 35.56C173.948 35.9733 174.208 36.5667 174.208 37.34C174.208 39.26 172.955 40.22 170.448 40.22C169.648 40.22 168.948 40.06 168.348 39.74C167.655 39.3667 167.188 38.7533 166.948 37.9L167.948 37.52C168.175 38.12 168.488 38.5533 168.888 38.82C169.301 39.0867 169.868 39.22 170.588 39.22C172.201 39.22 173.008 38.68 173.008 37.6C173.008 37.0133 172.821 36.5933 172.448 36.34C172.075 36.1 171.295 35.86 170.108 35.62C169.508 35.4867 168.955 35.2933 168.448 35.04C167.981 34.8267 167.641 34.4467 167.428 33.9C167.321 33.6067 167.268 33.2867 167.268 32.94C167.268 32.1267 167.588 31.4867 168.228 31.02C168.868 30.54 169.715 30.3 170.768 30.3C171.635 30.3 172.328 30.4467 172.848 30.74C173.381 31.02 173.808 31.4933 174.128 32.16L173.228 32.66ZM184.381 34.46C184.355 32.34 183.508 31.28 181.841 31.28C180.988 31.28 180.348 31.5933 179.921 32.22C179.495 32.8067 179.241 33.5533 179.161 34.46H184.381ZM184.761 31.6C185.348 32.4267 185.641 33.4867 185.641 34.78C185.641 35.0333 185.635 35.2133 185.621 35.32H179.141C179.141 36.4533 179.355 37.3667 179.781 38.06C180.248 38.8467 180.961 39.24 181.921 39.24C183.161 39.24 183.961 38.6933 184.321 37.6L185.341 37.84C185.195 38.3467 184.941 38.7867 184.581 39.16C184.235 39.5333 183.835 39.8 183.381 39.96C182.968 40.1067 182.495 40.1933 181.961 40.22H181.921C180.508 40.22 179.455 39.7133 178.761 38.7C178.121 37.7933 177.801 36.64 177.801 35.24C177.801 33.7467 178.161 32.5533 178.881 31.66C179.615 30.7533 180.615 30.3 181.881 30.3C183.175 30.3 184.135 30.7333 184.761 31.6ZM190.933 40H189.633V30.5H190.893L190.933 32.02C191.6 30.8733 192.606 30.3 193.953 30.3C195.353 30.3 196.24 30.96 196.613 32.28C196.92 31.64 197.353 31.1533 197.913 30.82C198.486 30.4733 199.12 30.3 199.813 30.3C200.773 30.3 201.5 30.62 201.993 31.26C202.393 31.78 202.633 32.5 202.713 33.42C202.74 33.9267 202.753 34.34 202.753 34.66V40H201.453V34.38C201.453 33.4333 201.32 32.6867 201.053 32.14C200.76 31.5667 200.266 31.28 199.573 31.28C199.066 31.28 198.6 31.44 198.173 31.76C197.746 32.0667 197.413 32.4733 197.173 32.98C196.946 33.5 196.833 34.0067 196.833 34.5V40H195.513V34.38C195.513 33.34 195.366 32.5667 195.073 32.06C194.793 31.54 194.326 31.28 193.673 31.28C193.14 31.28 192.66 31.44 192.233 31.76C191.82 32.0667 191.5 32.48 191.273 33C191.046 33.52 190.933 34.0467 190.933 34.58V40ZM212.883 38.92C211.816 39.7867 210.683 40.22 209.483 40.22C208.669 40.22 208.003 40 207.483 39.56C206.976 39.12 206.723 38.5067 206.723 37.72C206.723 37.1333 206.896 36.6067 207.243 36.14C207.469 35.8333 207.936 35.5333 208.643 35.24C209.043 35.0933 209.716 34.9333 210.663 34.76C210.823 34.72 211.229 34.6533 211.883 34.56L212.803 34.44V34.04C212.803 33.0133 212.636 32.3067 212.303 31.92C211.969 31.52 211.389 31.32 210.563 31.32C209.429 31.32 208.543 31.72 207.903 32.52C207.903 32.5067 207.636 32.2533 207.103 31.76C207.876 30.7867 209.056 30.3 210.643 30.3C212.963 30.3 214.123 31.4467 214.123 33.74V40H213.023L212.883 38.92ZM212.803 35.3L211.883 35.46C210.883 35.6333 210.169 35.7667 209.743 35.86C209.196 36.0067 208.756 36.2133 208.423 36.48C208.116 36.72 207.963 37.0733 207.963 37.54C207.963 38.7267 208.549 39.32 209.723 39.32C210.709 39.32 211.736 38.8667 212.803 37.96V35.3ZM218.616 40V30.5H219.916V40H218.616ZM218.596 28.48V26.82H219.896V28.48H218.596ZM224.325 40V30.5H225.605V30.8V31.38V32.04V32.3C225.858 31.62 226.325 31.1067 227.005 30.76C227.645 30.4533 228.285 30.3 228.925 30.3C229.645 30.3 230.231 30.44 230.685 30.72C231.151 31.0133 231.471 31.3533 231.645 31.74C231.845 32.2067 231.978 32.6667 232.045 33.12C232.071 33.4933 232.085 33.7333 232.085 33.84V34.58V40H230.785V34.42C230.785 33.6733 230.705 33.04 230.545 32.52C230.371 32.0267 230.051 31.6933 229.585 31.52C229.358 31.4267 229.071 31.38 228.725 31.38C227.805 31.38 227.098 31.6267 226.605 32.12C226.178 32.5467 225.885 33.2 225.725 34.08C225.658 34.5067 225.625 34.9333 225.625 35.36V40H224.325ZM242.663 34.46C242.636 32.34 241.789 31.28 240.123 31.28C239.269 31.28 238.629 31.5933 238.203 32.22C237.776 32.8067 237.523 33.5533 237.443 34.46H242.663ZM243.043 31.6C243.629 32.4267 243.923 33.4867 243.923 34.78C243.923 35.0333 243.916 35.2133 243.903 35.32H237.423C237.423 36.4533 237.636 37.3667 238.063 38.06C238.529 38.8467 239.243 39.24 240.203 39.24C241.443 39.24 242.243 38.6933 242.603 37.6L243.623 37.84C243.476 38.3467 243.223 38.7867 242.863 39.16C242.516 39.5333 242.116 39.8 241.663 39.96C241.249 40.1067 240.776 40.1933 240.243 40.22H240.203C238.789 40.22 237.736 39.7133 237.043 38.7C236.403 37.7933 236.083 36.64 236.083 35.24C236.083 33.7467 236.443 32.5533 237.163 31.66C237.896 30.7533 238.896 30.3 240.163 30.3C241.456 30.3 242.416 30.7333 243.043 31.6ZM256.154 38H257.674V40H256.154V38ZM259.694 28.06C259.254 27.4867 258.501 27.2 257.434 27.2C256.061 27.2 254.967 27.8267 254.154 29.08L253.234 28.42C254.181 26.9133 255.614 26.16 257.534 26.16C258.934 26.16 259.994 26.5533 260.714 27.34C261.327 28.0467 261.634 28.8867 261.634 29.86C261.634 30.78 261.354 31.6333 260.794 32.42C260.474 32.8733 260.187 33.2533 259.934 33.56C258.921 34.8133 258.167 35.8533 257.674 36.68H256.314C257.047 35.32 257.821 34.18 258.634 33.26C259.421 32.3533 259.907 31.6267 260.094 31.08C260.227 30.7333 260.294 30.34 260.294 29.9C260.294 29.22 260.094 28.6067 259.694 28.06Z" fill="black"/>
</svg>
