<svg width="337" height="122" viewBox="0 0 337 122" fill="none" xmlns="http://www.w3.org/2000/svg">
<path d="M4.76 14L0.12 0.42H1.56L4.28 8.48L4.8 10.04C4.98667 10.6533 5.2 11.3067 5.44 12C5.54667 11.6667 5.76 11.0333 6.08 10.1C6.4 9.16667 6.58667 8.62667 6.64 8.48L9.32 0.42H10.68L6.04 14H4.76ZM15.5608 6.54C15.1874 7.28667 15.0008 8.18667 15.0008 9.24C15.0008 10.0933 15.1208 10.84 15.3608 11.48C15.6008 12.2133 16.0274 12.72 16.6408 13C16.9608 13.16 17.3274 13.24 17.7408 13.24C18.5541 13.24 19.1874 12.96 19.6408 12.4C20.0408 11.9067 20.2941 11.2467 20.4008 10.42C20.4541 10.1 20.4808 9.70667 20.4808 9.24C20.4808 8.42667 20.3608 7.68667 20.1208 7.02C19.8541 6.28667 19.4274 5.78 18.8408 5.5C18.4808 5.35333 18.1141 5.28 17.7408 5.28C16.7008 5.28 15.9741 5.7 15.5608 6.54ZM20.7008 5.6C21.4474 6.45333 21.8208 7.66667 21.8208 9.24C21.8208 10.8133 21.4541 12.04 20.7208 12.92C20.0008 13.7867 19.0074 14.22 17.7408 14.22C16.4741 14.22 15.4741 13.7867 14.7408 12.92C14.0208 12.0533 13.6608 10.8333 13.6608 9.26C13.6608 7.67333 14.0274 6.45333 14.7608 5.6C15.4941 4.73333 16.4874 4.3 17.7408 4.3C18.9808 4.3 19.9674 4.73333 20.7008 5.6ZM32.2236 4.5H33.5436V14H32.2636V12.22C32.0236 12.8467 31.5903 13.34 30.9636 13.7C30.3369 14.0467 29.6636 14.22 28.9436 14.22C28.1303 14.22 27.4969 14.0467 27.0436 13.7C26.6169 13.3933 26.3103 12.9667 26.1236 12.42C25.9503 11.9133 25.8503 11.3667 25.8236 10.78C25.8103 10.62 25.8036 10.3467 25.8036 9.96V4.5H27.1236V10.24C27.1236 11.24 27.2769 11.9867 27.5836 12.48C27.9036 12.96 28.4303 13.2 29.1636 13.2C30.0569 13.2 30.7703 12.92 31.3036 12.36C31.7569 11.9067 32.0436 11.3667 32.1636 10.74C32.2036 10.4867 32.2236 10.2267 32.2236 9.96V4.5ZM43.9547 6.66C43.5814 5.75333 42.788 5.3 41.5747 5.3C40.0147 5.3 39.2347 5.85333 39.2347 6.96C39.2347 7.36 39.388 7.68667 39.6947 7.94C39.9347 8.16667 40.3414 8.33333 40.9147 8.44C41.128 8.50667 41.3947 8.56667 41.7147 8.62C42.8214 8.82 43.6347 9.13333 44.1547 9.56C44.6747 9.97333 44.9347 10.5667 44.9347 11.34C44.9347 13.26 43.6814 14.22 41.1747 14.22C40.3747 14.22 39.6747 14.06 39.0747 13.74C38.3814 13.3667 37.9147 12.7533 37.6747 11.9L38.6747 11.52C38.9014 12.12 39.2147 12.5533 39.6147 12.82C40.028 13.0867 40.5947 13.22 41.3147 13.22C42.928 13.22 43.7347 12.68 43.7347 11.6C43.7347 11.0133 43.548 10.5933 43.1747 10.34C42.8014 10.1 42.0214 9.86 40.8347 9.62C40.2347 9.48667 39.6814 9.29333 39.1747 9.04C38.708 8.82667 38.368 8.44667 38.1547 7.9C38.048 7.60667 37.9947 7.28667 37.9947 6.94C37.9947 6.12667 38.3147 5.48667 38.9547 5.02C39.5947 4.54 40.4414 4.3 41.4947 4.3C42.3614 4.3 43.0547 4.44667 43.5747 4.74C44.108 5.02 44.5347 5.49333 44.8547 6.16L43.9547 6.66ZM60.8477 12.92C59.781 13.7867 58.6477 14.22 57.4477 14.22C56.6343 14.22 55.9677 14 55.4477 13.56C54.941 13.12 54.6877 12.5067 54.6877 11.72C54.6877 11.1333 54.861 10.6067 55.2077 10.14C55.4343 9.83333 55.901 9.53333 56.6077 9.24C57.0077 9.09333 57.681 8.93333 58.6277 8.76C58.7877 8.72 59.1943 8.65333 59.8477 8.56L60.7677 8.44V8.04C60.7677 7.01333 60.601 6.30667 60.2677 5.92C59.9343 5.52 59.3543 5.32 58.5277 5.32C57.3943 5.32 56.5077 5.72 55.8677 6.52C55.8677 6.50667 55.601 6.25333 55.0677 5.76C55.841 4.78667 57.021 4.3 58.6077 4.3C60.9277 4.3 62.0877 5.44667 62.0877 7.74V14H60.9877L60.8477 12.92ZM60.7677 9.3L59.8477 9.46C58.8477 9.63333 58.1343 9.76667 57.7077 9.86C57.161 10.0067 56.721 10.2133 56.3877 10.48C56.081 10.72 55.9277 11.0733 55.9277 11.54C55.9277 12.7267 56.5143 13.32 57.6877 13.32C58.6743 13.32 59.701 12.8667 60.7677 11.96V9.3ZM72.5231 4.5H73.7831L70.1431 14H68.9631L65.4031 4.5H66.8231L69.6031 12.6L72.5231 4.5ZM83.4908 8.46C83.4641 6.34 82.6174 5.28 80.9508 5.28C80.0974 5.28 79.4574 5.59333 79.0308 6.22C78.6041 6.80667 78.3508 7.55333 78.2708 8.46H83.4908ZM83.8708 5.6C84.4574 6.42667 84.7508 7.48667 84.7508 8.78C84.7508 9.03333 84.7441 9.21333 84.7308 9.32H78.2508C78.2508 10.4533 78.4641 11.3667 78.8908 12.06C79.3574 12.8467 80.0708 13.24 81.0308 13.24C82.2708 13.24 83.0708 12.6933 83.4308 11.6L84.4508 11.84C84.3041 12.3467 84.0508 12.7867 83.6908 13.16C83.3441 13.5333 82.9441 13.8 82.4908 13.96C82.0774 14.1067 81.6041 14.1933 81.0708 14.22H81.0308C79.6174 14.22 78.5641 13.7133 77.8708 12.7C77.2308 11.7933 76.9108 10.64 76.9108 9.24C76.9108 7.74667 77.2708 6.55333 77.9908 5.66C78.7241 4.75333 79.7241 4.3 80.9908 4.3C82.2841 4.3 83.2441 4.73333 83.8708 5.6ZM88.3625 5.46V4.5H95.3225V5.4L89.6625 13.06H95.3025V14H88.1625V13.12L93.7625 5.46H88.3625ZM110.066 12.86C110.573 12.5667 110.933 11.98 111.146 11.1C111.253 10.5933 111.306 10.0133 111.306 9.36C111.306 7.66667 110.92 6.48667 110.146 5.82C109.72 5.46 109.193 5.28 108.566 5.28C107.78 5.28 107.166 5.65333 106.726 6.4C106.3 7.13333 106.086 8.13333 106.086 9.4C106.086 10.5467 106.313 11.4733 106.766 12.18C107.22 12.8867 107.826 13.24 108.586 13.24C109.16 13.24 109.653 13.1133 110.066 12.86ZM108.366 4.3C109.806 4.3 110.773 4.86667 111.266 6V0.32H112.586V14H111.526L111.346 12.4C111.106 12.96 110.72 13.4067 110.186 13.74C109.666 14.06 109.073 14.22 108.406 14.22C107.286 14.22 106.393 13.78 105.726 12.9C105.073 12.02 104.746 10.84 104.746 9.36C104.746 7.78667 105.06 6.55333 105.686 5.66C106.326 4.75333 107.22 4.3 108.366 4.3ZM118.569 6.54C118.195 7.28667 118.009 8.18667 118.009 9.24C118.009 10.0933 118.129 10.84 118.369 11.48C118.609 12.2133 119.035 12.72 119.649 13C119.969 13.16 120.335 13.24 120.749 13.24C121.562 13.24 122.195 12.96 122.649 12.4C123.049 11.9067 123.302 11.2467 123.409 10.42C123.462 10.1 123.489 9.70667 123.489 9.24C123.489 8.42667 123.369 7.68667 123.129 7.02C122.862 6.28667 122.435 5.78 121.849 5.5C121.489 5.35333 121.122 5.28 120.749 5.28C119.709 5.28 118.982 5.7 118.569 6.54ZM123.709 5.6C124.455 6.45333 124.829 7.66667 124.829 9.24C124.829 10.8133 124.462 12.04 123.729 12.92C123.009 13.7867 122.015 14.22 120.749 14.22C119.482 14.22 118.482 13.7867 117.749 12.92C117.029 12.0533 116.669 10.8333 116.669 9.26C116.669 7.67333 117.035 6.45333 117.769 5.6C118.502 4.73333 119.495 4.3 120.749 4.3C121.989 4.3 122.975 4.73333 123.709 5.6ZM128.871 14V4.5H130.151V4.8V5.38V6.04V6.3C130.405 5.62 130.871 5.10667 131.551 4.76C132.191 4.45333 132.831 4.3 133.471 4.3C134.191 4.3 134.778 4.44 135.231 4.72C135.698 5.01333 136.018 5.35333 136.191 5.74C136.391 6.20667 136.525 6.66667 136.591 7.12C136.618 7.49333 136.631 7.73333 136.631 7.84V8.58V14H135.331V8.42C135.331 7.67333 135.251 7.04 135.091 6.52C134.918 6.02667 134.598 5.69333 134.131 5.52C133.905 5.42667 133.618 5.38 133.271 5.38C132.351 5.38 131.645 5.62667 131.151 6.12C130.725 6.54667 130.431 7.2 130.271 8.08C130.205 8.50667 130.171 8.93333 130.171 9.36V14H128.871ZM142.47 4.96C143.096 4.52 143.863 4.3 144.77 4.3C145.503 4.3 146.19 4.5 146.83 4.9C147.496 5.35333 147.963 6.12 148.23 7.2L147.13 7.5C146.916 6.74 146.623 6.18 146.25 5.82C145.89 5.46 145.416 5.28 144.83 5.28C143.883 5.28 143.17 5.62667 142.69 6.32C142.21 7.01333 141.97 7.98667 141.97 9.24C141.97 10.4667 142.183 11.4267 142.61 12.12C143.05 12.8667 143.743 13.24 144.69 13.24C145.916 13.24 146.743 12.52 147.17 11.08L148.19 11.38C147.976 12.3533 147.516 13.0867 146.81 13.58C146.183 14.0067 145.47 14.22 144.67 14.22C143.376 14.22 142.376 13.78 141.67 12.9C140.976 12.0067 140.63 10.7933 140.63 9.26C140.63 7.24667 141.243 5.81333 142.47 4.96ZM158.531 4.5H160.131V6.5H158.531V4.5ZM160.131 10.4V12.42H158.531V10.4H160.131ZM47.5381 66H38.4381V52.42H47.4381V53.46H39.8181V58.22H46.4381V59.3H39.8181V64.96H47.5381V66ZM52.3836 56.96C53.0103 56.52 53.7769 56.3 54.6836 56.3C55.4169 56.3 56.1036 56.5 56.7436 56.9C57.4103 57.3533 57.8769 58.12 58.1436 59.2L57.0436 59.5C56.8303 58.74 56.5369 58.18 56.1636 57.82C55.8036 57.46 55.3303 57.28 54.7436 57.28C53.7969 57.28 53.0836 57.6267 52.6036 58.32C52.1236 59.0133 51.8836 59.9867 51.8836 61.24C51.8836 62.4667 52.0969 63.4267 52.5236 64.12C52.9636 64.8667 53.6569 65.24 54.6036 65.24C55.8303 65.24 56.6569 64.52 57.0836 63.08L58.1036 63.38C57.8903 64.3533 57.4303 65.0867 56.7236 65.58C56.0969 66.0067 55.3836 66.22 54.5836 66.22C53.2903 66.22 52.2903 65.78 51.5836 64.9C50.8903 64.0067 50.5436 62.7933 50.5436 61.26C50.5436 59.2467 51.1569 57.8133 52.3836 56.96ZM63.5452 58.54C63.1718 59.2867 62.9852 60.1867 62.9852 61.24C62.9852 62.0933 63.1052 62.84 63.3452 63.48C63.5852 64.2133 64.0118 64.72 64.6252 65C64.9452 65.16 65.3118 65.24 65.7252 65.24C66.5385 65.24 67.1718 64.96 67.6252 64.4C68.0252 63.9067 68.2785 63.2467 68.3852 62.42C68.4385 62.1 68.4652 61.7067 68.4652 61.24C68.4652 60.4267 68.3452 59.6867 68.1052 59.02C67.8385 58.2867 67.4118 57.78 66.8252 57.5C66.4652 57.3533 66.0985 57.28 65.7252 57.28C64.6852 57.28 63.9585 57.7 63.5452 58.54ZM68.6852 57.6C69.4318 58.4533 69.8052 59.6667 69.8052 61.24C69.8052 62.8133 69.4385 64.04 68.7052 64.92C67.9852 65.7867 66.9918 66.22 65.7252 66.22C64.4585 66.22 63.4585 65.7867 62.7252 64.92C62.0052 64.0533 61.6452 62.8333 61.6452 61.26C61.6452 59.6733 62.0118 58.4533 62.7452 57.6C63.4785 56.7333 64.4718 56.3 65.7252 56.3C66.9652 56.3 67.9518 56.7333 68.6852 57.6ZM73.848 66V56.5H75.128V56.8V57.38V58.04V58.3C75.3813 57.62 75.848 57.1067 76.528 56.76C77.168 56.4533 77.808 56.3 78.448 56.3C79.168 56.3 79.7546 56.44 80.208 56.72C80.6746 57.0133 80.9946 57.3533 81.168 57.74C81.368 58.2067 81.5013 58.6667 81.568 59.12C81.5946 59.4933 81.608 59.7333 81.608 59.84V60.58V66H80.308V60.42C80.308 59.6733 80.228 59.04 80.068 58.52C79.8946 58.0267 79.5746 57.6933 79.108 57.52C78.8813 57.4267 78.5946 57.38 78.248 57.38C77.328 57.38 76.6213 57.6267 76.128 58.12C75.7013 58.5467 75.408 59.2 75.248 60.08C75.1813 60.5067 75.148 60.9333 75.148 61.36V66H73.848ZM87.5061 58.54C87.1328 59.2867 86.9461 60.1867 86.9461 61.24C86.9461 62.0933 87.0661 62.84 87.3061 63.48C87.5461 64.2133 87.9728 64.72 88.5861 65C88.9061 65.16 89.2728 65.24 89.6861 65.24C90.4994 65.24 91.1328 64.96 91.5861 64.4C91.9861 63.9067 92.2394 63.2467 92.3461 62.42C92.3994 62.1 92.4261 61.7067 92.4261 61.24C92.4261 60.4267 92.3061 59.6867 92.0661 59.02C91.7994 58.2867 91.3728 57.78 90.7861 57.5C90.4261 57.3533 90.0594 57.28 89.6861 57.28C88.6461 57.28 87.9194 57.7 87.5061 58.54ZM92.6461 57.6C93.3928 58.4533 93.7661 59.6667 93.7661 61.24C93.7661 62.8133 93.3994 64.04 92.6661 64.92C91.9461 65.7867 90.9528 66.22 89.6861 66.22C88.4194 66.22 87.4194 65.7867 86.6861 64.92C85.9661 64.0533 85.6061 62.8333 85.6061 61.26C85.6061 59.6733 85.9728 58.4533 86.7061 57.6C87.4394 56.7333 88.4328 56.3 89.6861 56.3C90.9261 56.3 91.9128 56.7333 92.6461 57.6ZM99.1089 66H97.8089V56.5H99.0689L99.1089 58.02C99.7756 56.8733 100.782 56.3 102.129 56.3C103.529 56.3 104.416 56.96 104.789 58.28C105.096 57.64 105.529 57.1533 106.089 56.82C106.662 56.4733 107.296 56.3 107.989 56.3C108.949 56.3 109.676 56.62 110.169 57.26C110.569 57.78 110.809 58.5 110.889 59.42C110.916 59.9267 110.929 60.34 110.929 60.66V66H109.629V60.38C109.629 59.4333 109.496 58.6867 109.229 58.14C108.936 57.5667 108.442 57.28 107.749 57.28C107.242 57.28 106.776 57.44 106.349 57.76C105.922 58.0667 105.589 58.4733 105.349 58.98C105.122 59.5 105.009 60.0067 105.009 60.5V66H103.689V60.38C103.689 59.34 103.542 58.5667 103.249 58.06C102.969 57.54 102.502 57.28 101.849 57.28C101.316 57.28 100.836 57.44 100.409 57.76C99.9956 58.0667 99.6756 58.48 99.4489 59C99.2222 59.52 99.1089 60.0467 99.1089 60.58V66ZM115.339 66V56.5H116.639V66H115.339ZM115.319 54.48V52.82H116.619V54.48H115.319ZM126.767 58.66C126.394 57.7533 125.601 57.3 124.387 57.3C122.827 57.3 122.047 57.8533 122.047 58.96C122.047 59.36 122.201 59.6867 122.507 59.94C122.747 60.1667 123.154 60.3333 123.727 60.44C123.941 60.5067 124.207 60.5667 124.527 60.62C125.634 60.82 126.447 61.1333 126.967 61.56C127.487 61.9733 127.747 62.5667 127.747 63.34C127.747 65.26 126.494 66.22 123.987 66.22C123.187 66.22 122.487 66.06 121.887 65.74C121.194 65.3667 120.727 64.7533 120.487 63.9L121.487 63.52C121.714 64.12 122.027 64.5533 122.427 64.82C122.841 65.0867 123.407 65.22 124.127 65.22C125.741 65.22 126.547 64.68 126.547 63.6C126.547 63.0133 126.361 62.5933 125.987 62.34C125.614 62.1 124.834 61.86 123.647 61.62C123.047 61.4867 122.494 61.2933 121.987 61.04C121.521 60.8267 121.181 60.4467 120.967 59.9C120.861 59.6067 120.807 59.2867 120.807 58.94C120.807 58.1267 121.127 57.4867 121.767 57.02C122.407 56.54 123.254 56.3 124.307 56.3C125.174 56.3 125.867 56.4467 126.387 56.74C126.921 57.02 127.347 57.4933 127.667 58.16L126.767 58.66ZM136.88 52.1H138.68L135.84 55.1H134.98L136.88 52.1ZM137.92 60.46C137.894 58.34 137.047 57.28 135.38 57.28C134.527 57.28 133.887 57.5933 133.46 58.22C133.034 58.8067 132.78 59.5533 132.7 60.46H137.92ZM138.3 57.6C138.887 58.4267 139.18 59.4867 139.18 60.78C139.18 61.0333 139.174 61.2133 139.16 61.32H132.68C132.68 62.4533 132.894 63.3667 133.32 64.06C133.787 64.8467 134.5 65.24 135.46 65.24C136.7 65.24 137.5 64.6933 137.86 63.6L138.88 63.84C138.734 64.3467 138.48 64.7867 138.12 65.16C137.774 65.5333 137.374 65.8 136.92 65.96C136.507 66.1067 136.034 66.1933 135.5 66.22H135.46C134.047 66.22 132.994 65.7133 132.3 64.7C131.66 63.7933 131.34 62.64 131.34 61.24C131.34 59.7467 131.7 58.5533 132.42 57.66C133.154 56.7533 134.154 56.3 135.42 56.3C136.714 56.3 137.674 56.7333 138.3 57.6ZM154.512 58.42C155.459 58.6867 156.179 59.1667 156.672 59.86C157.179 60.54 157.432 61.34 157.432 62.26C157.432 63.3 157.072 64.2 156.352 64.96C155.552 65.8 154.512 66.22 153.232 66.22C152.285 66.22 151.425 65.98 150.652 65.5C149.799 64.98 149.245 64.1733 148.992 63.08L150.152 62.68C150.672 64.3067 151.659 65.12 153.112 65.12C154.005 65.12 154.712 64.8533 155.232 64.32C155.765 63.7867 156.032 63.1267 156.032 62.34C156.032 61.1933 155.712 60.3533 155.072 59.82C154.445 59.2867 153.505 59.02 152.252 59.02V57.98C153.452 57.98 154.305 57.7067 154.812 57.16C155.225 56.7067 155.432 56.1267 155.432 55.42C155.432 54.78 155.232 54.2533 154.832 53.84C154.445 53.4133 153.905 53.2 153.212 53.2C152.012 53.2 151.039 53.78 150.292 54.94L149.312 54.36C150.259 52.88 151.532 52.14 153.132 52.14C154.239 52.14 155.119 52.4333 155.772 53.02C156.425 53.5933 156.752 54.36 156.752 55.32C156.752 56.04 156.559 56.68 156.172 57.24C155.785 57.8 155.232 58.1933 154.512 58.42ZM169.629 65.32C169.029 65.9067 168.036 66.2 166.649 66.2C165.156 66.2 163.962 65.7333 163.069 64.8C162.176 63.8667 161.629 62.4533 161.429 60.56H160.169V59.76H161.349V59.18V58.6H160.169V57.82H161.409C161.596 55.9267 162.129 54.5067 163.009 53.56C163.902 52.6133 165.102 52.14 166.609 52.14C167.729 52.14 168.649 52.3933 169.369 52.9C170.116 53.42 170.642 54.3733 170.949 55.76L169.709 56.04C169.562 55.44 169.402 54.9533 169.229 54.58C169.029 54.18 168.736 53.8467 168.349 53.58C167.976 53.3533 167.416 53.24 166.669 53.24C165.416 53.24 164.496 53.6467 163.909 54.46C163.349 55.26 162.989 56.38 162.829 57.82H166.229V58.6H162.769V59.18V59.76H166.229V60.56H162.829C163.002 62.0933 163.402 63.24 164.029 64C164.656 64.7467 165.536 65.12 166.669 65.12C167.389 65.12 167.936 65.0067 168.309 64.78C168.722 64.5533 169.036 64.2533 169.249 63.88C169.449 63.4933 169.656 63.0267 169.869 62.48L170.989 62.84C170.669 63.9333 170.216 64.76 169.629 65.32ZM183.005 56.96C183.631 56.52 184.398 56.3 185.305 56.3C186.038 56.3 186.725 56.5 187.365 56.9C188.031 57.3533 188.498 58.12 188.765 59.2L187.665 59.5C187.451 58.74 187.158 58.18 186.785 57.82C186.425 57.46 185.951 57.28 185.365 57.28C184.418 57.28 183.705 57.6267 183.225 58.32C182.745 59.0133 182.505 59.9867 182.505 61.24C182.505 62.4667 182.718 63.4267 183.145 64.12C183.585 64.8667 184.278 65.24 185.225 65.24C186.451 65.24 187.278 64.52 187.705 63.08L188.725 63.38C188.511 64.3533 188.051 65.0867 187.345 65.58C186.718 66.0067 186.005 66.22 185.205 66.22C183.911 66.22 182.911 65.78 182.205 64.9C181.511 64.0067 181.165 62.7933 181.165 61.26C181.165 59.2467 181.778 57.8133 183.005 56.96ZM194.166 58.54C193.793 59.2867 193.606 60.1867 193.606 61.24C193.606 62.0933 193.726 62.84 193.966 63.48C194.206 64.2133 194.633 64.72 195.246 65C195.566 65.16 195.933 65.24 196.346 65.24C197.16 65.24 197.793 64.96 198.246 64.4C198.646 63.9067 198.9 63.2467 199.006 62.42C199.06 62.1 199.086 61.7067 199.086 61.24C199.086 60.4267 198.966 59.6867 198.726 59.02C198.46 58.2867 198.033 57.78 197.446 57.5C197.086 57.3533 196.72 57.28 196.346 57.28C195.306 57.28 194.58 57.7 194.166 58.54ZM199.306 57.6C200.053 58.4533 200.426 59.6667 200.426 61.24C200.426 62.8133 200.06 64.04 199.326 64.92C198.606 65.7867 197.613 66.22 196.346 66.22C195.08 66.22 194.08 65.7867 193.346 64.92C192.626 64.0533 192.266 62.8333 192.266 61.26C192.266 59.6733 192.633 58.4533 193.366 57.6C194.1 56.7333 195.093 56.3 196.346 56.3C197.586 56.3 198.573 56.7333 199.306 57.6ZM205.769 66H204.469V56.5H205.729L205.769 58.02C206.436 56.8733 207.442 56.3 208.789 56.3C210.189 56.3 211.076 56.96 211.449 58.28C211.756 57.64 212.189 57.1533 212.749 56.82C213.322 56.4733 213.956 56.3 214.649 56.3C215.609 56.3 216.336 56.62 216.829 57.26C217.229 57.78 217.469 58.5 217.549 59.42C217.576 59.9267 217.589 60.34 217.589 60.66V66H216.289V60.38C216.289 59.4333 216.156 58.6867 215.889 58.14C215.596 57.5667 215.102 57.28 214.409 57.28C213.902 57.28 213.436 57.44 213.009 57.76C212.582 58.0667 212.249 58.4733 212.009 58.98C211.782 59.5 211.669 60.0067 211.669 60.5V66H210.349V60.38C210.349 59.34 210.202 58.5667 209.909 58.06C209.629 57.54 209.162 57.28 208.509 57.28C207.976 57.28 207.496 57.44 207.069 57.76C206.656 58.0667 206.336 58.48 206.109 59C205.882 59.52 205.769 60.0467 205.769 60.58V66ZM223.159 58.04C223.772 56.88 224.732 56.3 226.039 56.3C227.279 56.3 228.212 56.7733 228.839 57.72C229.412 58.6133 229.699 59.7667 229.699 61.18C229.699 63.2067 229.172 64.6533 228.119 65.52C227.599 65.9467 226.959 66.1733 226.199 66.2C225.452 66.24 224.852 66.1067 224.399 65.8C223.905 65.52 223.519 65.1133 223.239 64.58V65.82V69.24H221.939V56.5H223.079L223.159 58.04ZM225.879 57.28C225.025 57.28 224.385 57.54 223.959 58.06C223.572 58.5133 223.345 59.1533 223.279 59.98C223.239 60.3133 223.219 60.72 223.219 61.2C223.219 63.8933 224.112 65.24 225.899 65.24C226.659 65.24 227.259 64.88 227.699 64.16C228.152 63.44 228.379 62.4467 228.379 61.18C228.379 60.0067 228.152 59.0667 227.699 58.36C227.245 57.64 226.639 57.28 225.879 57.28ZM239.563 64.92C238.496 65.7867 237.363 66.22 236.163 66.22C235.349 66.22 234.683 66 234.163 65.56C233.656 65.12 233.403 64.5067 233.403 63.72C233.403 63.1333 233.576 62.6067 233.923 62.14C234.149 61.8333 234.616 61.5333 235.323 61.24C235.723 61.0933 236.396 60.9333 237.343 60.76C237.503 60.72 237.909 60.6533 238.563 60.56L239.483 60.44V60.04C239.483 59.0133 239.316 58.3067 238.983 57.92C238.649 57.52 238.069 57.32 237.243 57.32C236.109 57.32 235.223 57.72 234.583 58.52C234.583 58.5067 234.316 58.2533 233.783 57.76C234.556 56.7867 235.736 56.3 237.323 56.3C239.643 56.3 240.803 57.4467 240.803 59.74V66H239.703L239.563 64.92ZM239.483 61.3L238.563 61.46C237.563 61.6333 236.849 61.7667 236.423 61.86C235.876 62.0067 235.436 62.2133 235.103 62.48C234.796 62.72 234.643 63.0733 234.643 63.54C234.643 64.7267 235.229 65.32 236.403 65.32C237.389 65.32 238.416 64.8667 239.483 63.96V61.3ZM246.436 56.5V58.28C246.609 57.88 246.856 57.5333 247.176 57.24C247.496 56.9467 247.836 56.7467 248.196 56.64C248.516 56.5467 248.869 56.5 249.256 56.5V57.7C248.229 57.7 247.502 58.0467 247.076 58.74C246.676 59.3667 246.476 60.14 246.476 61.06V66H245.156V56.5H246.436ZM257.845 52.1H259.645L256.805 55.1H255.945L257.845 52.1ZM258.885 60.46C258.859 58.34 258.012 57.28 256.345 57.28C255.492 57.28 254.852 57.5933 254.425 58.22C253.999 58.8067 253.745 59.5533 253.665 60.46H258.885ZM259.265 57.6C259.852 58.4267 260.145 59.4867 260.145 60.78C260.145 61.0333 260.139 61.2133 260.125 61.32H253.645C253.645 62.4533 253.859 63.3667 254.285 64.06C254.752 64.8467 255.465 65.24 256.425 65.24C257.665 65.24 258.465 64.6933 258.825 63.6L259.845 63.84C259.699 64.3467 259.445 64.7867 259.085 65.16C258.739 65.5333 258.339 65.8 257.885 65.96C257.472 66.1067 256.999 66.1933 256.465 66.22H256.425C255.012 66.22 253.959 65.7133 253.265 64.7C252.625 63.7933 252.305 62.64 252.305 61.24C252.305 59.7467 252.665 58.5533 253.385 57.66C254.119 56.7533 255.119 56.3 256.385 56.3C257.679 56.3 258.639 56.7333 259.265 57.6ZM270.637 52.1H272.437L274.337 55.08L273.457 55.1L270.637 52.1ZM276.137 64.92C275.07 65.7867 273.937 66.22 272.737 66.22C271.923 66.22 271.257 66 270.737 65.56C270.23 65.12 269.977 64.5067 269.977 63.72C269.977 63.1333 270.15 62.6067 270.497 62.14C270.723 61.8333 271.19 61.5333 271.897 61.24C272.297 61.0933 272.97 60.9333 273.917 60.76C274.077 60.72 274.483 60.6533 275.137 60.56L276.057 60.44V60.04C276.057 59.0133 275.89 58.3067 275.557 57.92C275.223 57.52 274.643 57.32 273.817 57.32C272.683 57.32 271.797 57.72 271.157 58.52C271.157 58.5067 270.89 58.2533 270.357 57.76C271.13 56.7867 272.31 56.3 273.897 56.3C276.217 56.3 277.377 57.4467 277.377 59.74V66H276.277L276.137 64.92ZM276.057 61.3L275.137 61.46C274.137 61.6333 273.423 61.7667 272.997 61.86C272.45 62.0067 272.01 62.2133 271.677 62.48C271.37 62.72 271.217 63.0733 271.217 63.54C271.217 64.7267 271.803 65.32 272.977 65.32C273.963 65.32 274.99 64.8667 276.057 63.96V61.3ZM288.01 66V52.32H289.33V66H288.01ZM299.676 64.92C298.609 65.7867 297.476 66.22 296.276 66.22C295.462 66.22 294.796 66 294.276 65.56C293.769 65.12 293.516 64.5067 293.516 63.72C293.516 63.1333 293.689 62.6067 294.036 62.14C294.262 61.8333 294.729 61.5333 295.436 61.24C295.836 61.0933 296.509 60.9333 297.456 60.76C297.616 60.72 298.022 60.6533 298.676 60.56L299.596 60.44V60.04C299.596 59.0133 299.429 58.3067 299.096 57.92C298.762 57.52 298.182 57.32 297.356 57.32C296.222 57.32 295.336 57.72 294.696 58.52C294.696 58.5067 294.429 58.2533 293.896 57.76C294.669 56.7867 295.849 56.3 297.436 56.3C299.756 56.3 300.916 57.4467 300.916 59.74V66H299.816L299.676 64.92ZM299.596 61.3L298.676 61.46C297.676 61.6333 296.962 61.7667 296.536 61.86C295.989 62.0067 295.549 62.2133 295.216 62.48C294.909 62.72 294.756 63.0733 294.756 63.54C294.756 64.7267 295.342 65.32 296.516 65.32C297.502 65.32 298.529 64.8667 299.596 63.96V61.3ZM6.9 84.66C6.52667 83.7533 5.73333 83.3 4.52 83.3C2.96 83.3 2.18 83.8533 2.18 84.96C2.18 85.36 2.33333 85.6867 2.64 85.94C2.88 86.1667 3.28667 86.3333 3.86 86.44C4.07333 86.5067 4.34 86.5667 4.66 86.62C5.76667 86.82 6.58 87.1333 7.1 87.56C7.62 87.9733 7.88 88.5667 7.88 89.34C7.88 91.26 6.62667 92.22 4.12 92.22C3.32 92.22 2.62 92.06 2.02 91.74C1.32667 91.3667 0.86 90.7533 0.62 89.9L1.62 89.52C1.84667 90.12 2.16 90.5533 2.56 90.82C2.97333 91.0867 3.54 91.22 4.26 91.22C5.87333 91.22 6.68 90.68 6.68 89.6C6.68 89.0133 6.49333 88.5933 6.12 88.34C5.74667 88.1 4.96667 87.86 3.78 87.62C3.18 87.4867 2.62667 87.2933 2.12 87.04C1.65333 86.8267 1.31333 86.4467 1.1 85.9C0.993333 85.6067 0.94 85.2867 0.94 84.94C0.94 84.1267 1.26 83.4867 1.9 83.02C2.54 82.54 3.38667 82.3 4.44 82.3C5.30667 82.3 6 82.4467 6.52 82.74C7.05333 83.02 7.48 83.4933 7.8 84.16L6.9 84.66ZM18.0533 86.46C18.0266 84.34 17.1799 83.28 15.5133 83.28C14.6599 83.28 14.0199 83.5933 13.5933 84.22C13.1666 84.8067 12.9133 85.5533 12.8333 86.46H18.0533ZM18.4333 83.6C19.0199 84.4267 19.3133 85.4867 19.3133 86.78C19.3133 87.0333 19.3066 87.2133 19.2933 87.32H12.8133C12.8133 88.4533 13.0266 89.3667 13.4533 90.06C13.9199 90.8467 14.6333 91.24 15.5933 91.24C16.8333 91.24 17.6333 90.6933 17.9933 89.6L19.0133 89.84C18.8666 90.3467 18.6133 90.7867 18.2533 91.16C17.9066 91.5333 17.5066 91.8 17.0533 91.96C16.6399 92.1067 16.1666 92.1933 15.6333 92.22H15.5933C14.1799 92.22 13.1266 91.7133 12.4333 90.7C11.7933 89.7933 11.4733 88.64 11.4733 87.24C11.4733 85.7467 11.8333 84.5533 12.5533 83.66C13.2866 82.7533 14.2866 82.3 15.5533 82.3C16.8466 82.3 17.8066 82.7333 18.4333 83.6ZM24.605 92H23.305V82.5H24.565L24.605 84.02C25.2717 82.8733 26.2783 82.3 27.625 82.3C29.025 82.3 29.9117 82.96 30.285 84.28C30.5917 83.64 31.025 83.1533 31.585 82.82C32.1583 82.4733 32.7917 82.3 33.485 82.3C34.445 82.3 35.1717 82.62 35.665 83.26C36.065 83.78 36.305 84.5 36.385 85.42C36.4117 85.9267 36.425 86.34 36.425 86.66V92H35.125V86.38C35.125 85.4333 34.9917 84.6867 34.725 84.14C34.4317 83.5667 33.9383 83.28 33.245 83.28C32.7383 83.28 32.2717 83.44 31.845 83.76C31.4183 84.0667 31.085 84.4733 30.845 84.98C30.6183 85.5 30.505 86.0067 30.505 86.5V92H29.185V86.38C29.185 85.34 29.0383 84.5667 28.745 84.06C28.465 83.54 27.9983 83.28 27.345 83.28C26.8117 83.28 26.3317 83.44 25.905 83.76C25.4917 84.0667 25.1717 84.48 24.945 85C24.7183 85.52 24.605 86.0467 24.605 86.58V92ZM46.5547 90.92C45.488 91.7867 44.3547 92.22 43.1547 92.22C42.3414 92.22 41.6747 92 41.1547 91.56C40.648 91.12 40.3947 90.5067 40.3947 89.72C40.3947 89.1333 40.568 88.6067 40.9147 88.14C41.1414 87.8333 41.608 87.5333 42.3147 87.24C42.7147 87.0933 43.388 86.9333 44.3347 86.76C44.4947 86.72 44.9014 86.6533 45.5547 86.56L46.4747 86.44V86.04C46.4747 85.0133 46.308 84.3067 45.9747 83.92C45.6414 83.52 45.0614 83.32 44.2347 83.32C43.1014 83.32 42.2147 83.72 41.5747 84.52C41.5747 84.5067 41.308 84.2533 40.7747 83.76C41.548 82.7867 42.728 82.3 44.3147 82.3C46.6347 82.3 47.7947 83.4467 47.7947 85.74V92H46.6947L46.5547 90.92ZM46.4747 87.3L45.5547 87.46C44.5547 87.6333 43.8414 87.7667 43.4147 87.86C42.868 88.0067 42.428 88.2133 42.0947 88.48C41.788 88.72 41.6347 89.0733 41.6347 89.54C41.6347 90.7267 42.2214 91.32 43.3947 91.32C44.3814 91.32 45.408 90.8667 46.4747 89.96V87.3ZM52.2878 92V82.5H53.5878V92H52.2878ZM52.2678 80.48V78.82H53.5678V80.48H52.2678ZM57.9964 92V82.5H59.2764V82.8V83.38V84.04V84.3C59.5297 83.62 59.9964 83.1067 60.6764 82.76C61.3164 82.4533 61.9564 82.3 62.5964 82.3C63.3164 82.3 63.9031 82.44 64.3564 82.72C64.8231 83.0133 65.1431 83.3533 65.3164 83.74C65.5164 84.2067 65.6497 84.6667 65.7164 85.12C65.7431 85.4933 65.7564 85.7333 65.7564 85.84V86.58V92H64.4564V86.42C64.4564 85.6733 64.3764 85.04 64.2164 84.52C64.0431 84.0267 63.7231 83.6933 63.2564 83.52C63.0297 83.4267 62.7431 83.38 62.3964 83.38C61.4764 83.38 60.7697 83.6267 60.2764 84.12C59.8497 84.5467 59.5564 85.2 59.3964 86.08C59.3297 86.5067 59.2964 86.9333 59.2964 87.36V92H57.9964ZM76.3345 86.46C76.3079 84.34 75.4612 83.28 73.7945 83.28C72.9412 83.28 72.3012 83.5933 71.8745 84.22C71.4479 84.8067 71.1945 85.5533 71.1145 86.46H76.3345ZM76.7145 83.6C77.3012 84.4267 77.5945 85.4867 77.5945 86.78C77.5945 87.0333 77.5879 87.2133 77.5745 87.32H71.0945C71.0945 88.4533 71.3079 89.3667 71.7345 90.06C72.2012 90.8467 72.9145 91.24 73.8745 91.24C75.1145 91.24 75.9145 90.6933 76.2745 89.6L77.2945 89.84C77.1479 90.3467 76.8945 90.7867 76.5345 91.16C76.1879 91.5333 75.7879 91.8 75.3345 91.96C74.9212 92.1067 74.4479 92.1933 73.9145 92.22H73.8745C72.4612 92.22 71.4079 91.7133 70.7145 90.7C70.0745 89.7933 69.7545 88.64 69.7545 87.24C69.7545 85.7467 70.1145 84.5533 70.8345 83.66C71.5679 82.7533 72.5679 82.3 73.8345 82.3C75.1279 82.3 76.0879 82.7333 76.7145 83.6ZM92.7459 90.86C93.2526 90.5667 93.6126 89.98 93.8259 89.1C93.9326 88.5933 93.9859 88.0133 93.9859 87.36C93.9859 85.6667 93.5993 84.4867 92.8259 83.82C92.3993 83.46 91.8726 83.28 91.2459 83.28C90.4593 83.28 89.8459 83.6533 89.4059 84.4C88.9793 85.1333 88.7659 86.1333 88.7659 87.4C88.7659 88.5467 88.9926 89.4733 89.4459 90.18C89.8993 90.8867 90.5059 91.24 91.2659 91.24C91.8393 91.24 92.3326 91.1133 92.7459 90.86ZM91.0459 82.3C92.4859 82.3 93.4526 82.8667 93.9459 84V78.32H95.2659V92H94.2059L94.0259 90.4C93.7859 90.96 93.3993 91.4067 92.8659 91.74C92.3459 92.06 91.7526 92.22 91.0859 92.22C89.9659 92.22 89.0726 91.78 88.4059 90.9C87.7526 90.02 87.4259 88.84 87.4259 87.36C87.4259 85.7867 87.7393 84.5533 88.3659 83.66C89.0059 82.7533 89.8993 82.3 91.0459 82.3ZM105.928 86.46C105.902 84.34 105.055 83.28 103.388 83.28C102.535 83.28 101.895 83.5933 101.468 84.22C101.042 84.8067 100.788 85.5533 100.708 86.46H105.928ZM106.308 83.6C106.895 84.4267 107.188 85.4867 107.188 86.78C107.188 87.0333 107.182 87.2133 107.168 87.32H100.688C100.688 88.4533 100.902 89.3667 101.328 90.06C101.795 90.8467 102.508 91.24 103.468 91.24C104.708 91.24 105.508 90.6933 105.868 89.6L106.888 89.84C106.742 90.3467 106.488 90.7867 106.128 91.16C105.782 91.5333 105.382 91.8 104.928 91.96C104.515 92.1067 104.042 92.1933 103.508 92.22H103.468C102.055 92.22 101.002 91.7133 100.308 90.7C99.6683 89.7933 99.3483 88.64 99.3483 87.24C99.3483 85.7467 99.7083 84.5533 100.428 83.66C101.162 82.7533 102.162 82.3 103.428 82.3C104.722 82.3 105.682 82.7333 106.308 83.6ZM112.42 82.5V84.28C112.593 83.88 112.84 83.5333 113.16 83.24C113.48 82.9467 113.82 82.7467 114.18 82.64C114.5 82.5467 114.853 82.5 115.24 82.5V83.7C114.213 83.7 113.487 84.0467 113.06 84.74C112.66 85.3667 112.46 86.14 112.46 87.06V92H111.14V82.5H112.42ZM118.61 92V82.5H119.89V82.8V83.38V84.04V84.3C120.143 83.62 120.61 83.1067 121.29 82.76C121.93 82.4533 122.57 82.3 123.21 82.3C123.93 82.3 124.516 82.44 124.97 82.72C125.436 83.0133 125.756 83.3533 125.93 83.74C126.13 84.2067 126.263 84.6667 126.33 85.12C126.356 85.4933 126.37 85.7333 126.37 85.84V86.58V92H125.07V86.42C125.07 85.6733 124.99 85.04 124.83 84.52C124.656 84.0267 124.336 83.6933 123.87 83.52C123.643 83.4267 123.356 83.38 123.01 83.38C122.09 83.38 121.383 83.6267 120.89 84.12C120.463 84.5467 120.17 85.2 120.01 86.08C119.943 86.5067 119.91 86.9333 119.91 87.36V92H118.61ZM130.788 92V82.5H132.088V92H130.788ZM130.768 80.48V78.82H132.068V80.48H130.768ZM136.996 78.1H138.796L140.696 81.08L139.816 81.1L136.996 78.1ZM142.756 86.46C142.73 84.34 141.883 83.28 140.216 83.28C139.363 83.28 138.723 83.5933 138.296 84.22C137.87 84.8067 137.616 85.5533 137.536 86.46H142.756ZM143.136 83.6C143.723 84.4267 144.016 85.4867 144.016 86.78C144.016 87.0333 144.01 87.2133 143.996 87.32H137.516C137.516 88.4533 137.73 89.3667 138.156 90.06C138.623 90.8467 139.336 91.24 140.296 91.24C141.536 91.24 142.336 90.6933 142.696 89.6L143.716 89.84C143.57 90.3467 143.316 90.7867 142.956 91.16C142.61 91.5333 142.21 91.8 141.756 91.96C141.343 92.1067 140.87 92.1933 140.336 92.22H140.296C138.883 92.22 137.83 91.7133 137.136 90.7C136.496 89.7933 136.176 88.64 136.176 87.24C136.176 85.7467 136.536 84.5533 137.256 83.66C137.99 82.7533 138.99 82.3 140.256 82.3C141.55 82.3 142.51 82.7333 143.136 83.6ZM149.248 82.5V84.28C149.421 83.88 149.668 83.5333 149.988 83.24C150.308 82.9467 150.648 82.7467 151.008 82.64C151.328 82.5467 151.681 82.5 152.068 82.5V83.7C151.041 83.7 150.315 84.0467 149.888 84.74C149.488 85.3667 149.288 86.14 149.288 87.06V92H147.968V82.5H149.248ZM161.698 86.46C161.671 84.34 160.824 83.28 159.158 83.28C158.304 83.28 157.664 83.5933 157.238 84.22C156.811 84.8067 156.558 85.5533 156.478 86.46H161.698ZM162.078 83.6C162.664 84.4267 162.958 85.4867 162.958 86.78C162.958 87.0333 162.951 87.2133 162.938 87.32H156.458C156.458 88.4533 156.671 89.3667 157.098 90.06C157.564 90.8467 158.278 91.24 159.238 91.24C160.478 91.24 161.278 90.6933 161.638 89.6L162.658 89.84C162.511 90.3467 162.258 90.7867 161.898 91.16C161.551 91.5333 161.151 91.8 160.698 91.96C160.284 92.1067 159.811 92.1933 159.278 92.22H159.238C157.824 92.22 156.771 91.7133 156.078 90.7C155.438 89.7933 155.118 88.64 155.118 87.24C155.118 85.7467 155.478 84.5533 156.198 83.66C156.931 82.7533 157.931 82.3 159.198 82.3C160.491 82.3 161.451 82.7333 162.078 83.6ZM167.03 90H168.55V92H167.03V90ZM53.6978 106.58L52.7178 107.32C52.3578 106.693 51.8645 106.207 51.2378 105.86C50.6245 105.513 49.9378 105.34 49.1778 105.34C48.1645 105.34 47.3645 105.527 46.7778 105.9C46.1911 106.273 45.8978 106.82 45.8978 107.54C45.8978 108.087 46.1178 108.547 46.5578 108.92C46.9445 109.24 47.4645 109.507 48.1178 109.72C48.2111 109.747 48.4845 109.84 48.9378 110C49.4045 110.147 49.7178 110.247 49.8778 110.3C50.2911 110.473 50.6311 110.613 50.8978 110.72C51.5511 110.987 52.1045 111.267 52.5578 111.56C53.0245 111.867 53.3778 112.247 53.6178 112.7C53.8711 113.18 53.9978 113.733 53.9978 114.36C53.9978 115.56 53.5445 116.507 52.6378 117.2C51.7311 117.88 50.5045 118.22 48.9578 118.22C48.0378 118.22 47.1711 118.053 46.3578 117.72C45.3845 117.32 44.6778 116.747 44.2378 116C43.9578 115.56 43.7711 115.073 43.6778 114.54L44.8178 114.04C45.3645 116.053 46.7778 117.06 49.0578 117.06C49.7778 117.06 50.4311 116.94 51.0178 116.7C51.6845 116.447 52.1378 116.033 52.3778 115.46C52.5111 115.18 52.5778 114.827 52.5778 114.4C52.5778 114.013 52.4778 113.593 52.2778 113.14C52.1978 112.993 52.0445 112.84 51.8178 112.68C51.5645 112.52 51.3911 112.4 51.2978 112.32C51.1511 112.227 50.6245 112 49.7178 111.64C49.5445 111.587 49.2045 111.467 48.6978 111.28C48.6045 111.267 48.5378 111.247 48.4978 111.22C47.9378 111.02 47.5178 110.867 47.2378 110.76C46.9711 110.653 46.6378 110.5 46.2378 110.3C45.8511 110.1 45.5578 109.913 45.3578 109.74C45.1711 109.553 44.9911 109.32 44.8178 109.04C44.6578 108.76 44.5511 108.447 44.4978 108.1C44.4845 108.007 44.4778 107.853 44.4778 107.64C44.4778 106.507 44.9445 105.647 45.8778 105.06C46.7445 104.513 47.7845 104.24 48.9978 104.24C51.1578 104.24 52.7245 105.02 53.6978 106.58ZM59.3069 110.54C58.9335 111.287 58.7469 112.187 58.7469 113.24C58.7469 114.093 58.8669 114.84 59.1069 115.48C59.3469 116.213 59.7735 116.72 60.3869 117C60.7069 117.16 61.0735 117.24 61.4869 117.24C62.3002 117.24 62.9335 116.96 63.3869 116.4C63.7869 115.907 64.0402 115.247 64.1469 114.42C64.2002 114.1 64.2269 113.707 64.2269 113.24C64.2269 112.427 64.1069 111.687 63.8669 111.02C63.6002 110.287 63.1735 109.78 62.5869 109.5C62.2269 109.353 61.8602 109.28 61.4869 109.28C60.4469 109.28 59.7202 109.7 59.3069 110.54ZM64.4469 109.6C65.1935 110.453 65.5669 111.667 65.5669 113.24C65.5669 114.813 65.2002 116.04 64.4669 116.92C63.7469 117.787 62.7535 118.22 61.4869 118.22C60.2202 118.22 59.2202 117.787 58.4869 116.92C57.7669 116.053 57.4069 114.833 57.4069 113.26C57.4069 111.673 57.7735 110.453 58.5069 109.6C59.2402 108.733 60.2335 108.3 61.4869 108.3C62.7269 108.3 63.7135 108.733 64.4469 109.6ZM69.7097 118V108.5H71.0097V118H69.7097ZM69.6897 106.48V104.82H70.9897V106.48H69.6897ZM79.9783 117.7C79.5116 118.007 78.9649 118.16 78.3383 118.16C77.5116 118.16 76.9116 117.913 76.5383 117.42C76.1783 116.913 75.9983 116.1 75.9983 114.98V109.44H74.5983V108.5H76.0983V105.48L77.3383 105.14V108.5H79.3983V109.44H77.3383V115.58C77.3383 116.633 77.7649 117.16 78.6183 117.16C78.8983 117.16 79.2716 117.053 79.7383 116.84L79.9783 117.7ZM83.1353 115.96H84.9753V116.76C84.9353 117.827 84.842 118.6 84.6953 119.08C84.562 119.573 84.2353 120 83.7153 120.36L83.2553 119.78C83.442 119.633 83.6086 119.387 83.7553 119.04C83.902 118.693 83.982 118.293 83.9953 117.84L83.1353 117.74V115.96ZM95.4361 106.42L95.0361 105.34L97.3361 104.42H98.5161V118H97.1761V105.68L95.4361 106.42ZM110.924 110.72C111.604 111.56 111.944 112.56 111.944 113.72C111.944 114.813 111.691 115.713 111.184 116.42C110.637 117.193 109.911 117.713 109.004 117.98C108.484 118.127 107.957 118.2 107.424 118.2C105.237 118.2 103.737 117.18 102.924 115.14L104.084 114.68C104.431 115.44 104.891 116.04 105.464 116.48C106.037 116.907 106.657 117.12 107.324 117.12C108.404 117.12 109.217 116.78 109.764 116.1C110.297 115.46 110.564 114.693 110.564 113.8C110.564 112.933 110.317 112.173 109.824 111.52C109.304 110.84 108.557 110.5 107.584 110.5C106.557 110.5 105.551 110.887 104.564 111.66L103.704 111.1L104.604 104.42H111.104V105.6H105.824L105.184 110.06L105.224 110.04C106.011 109.613 106.817 109.4 107.644 109.4C109.124 109.4 110.217 109.84 110.924 110.72ZM124.145 117.32C123.545 117.907 122.551 118.2 121.165 118.2C119.671 118.2 118.478 117.733 117.585 116.8C116.691 115.867 116.145 114.453 115.945 112.56H114.685V111.76H115.865V111.18V110.6H114.685V109.82H115.925C116.111 107.927 116.645 106.507 117.525 105.56C118.418 104.613 119.618 104.14 121.125 104.14C122.245 104.14 123.165 104.393 123.885 104.9C124.631 105.42 125.158 106.373 125.465 107.76L124.225 108.04C124.078 107.44 123.918 106.953 123.745 106.58C123.545 106.18 123.251 105.847 122.865 105.58C122.491 105.353 121.931 105.24 121.185 105.24C119.931 105.24 119.011 105.647 118.425 106.46C117.865 107.26 117.505 108.38 117.345 109.82H120.745V110.6H117.285V111.18V111.76H120.745V112.56H117.345C117.518 114.093 117.918 115.24 118.545 116C119.171 116.747 120.051 117.12 121.185 117.12C121.905 117.12 122.451 117.007 122.825 116.78C123.238 116.553 123.551 116.253 123.765 115.88C123.965 115.493 124.171 115.027 124.385 114.48L125.505 114.84C125.185 115.933 124.731 116.76 124.145 117.32ZM137.26 110.04C137.874 108.88 138.834 108.3 140.14 108.3C141.38 108.3 142.314 108.773 142.94 109.72C143.514 110.613 143.8 111.767 143.8 113.18C143.8 115.207 143.274 116.653 142.22 117.52C141.7 117.947 141.06 118.173 140.3 118.2C139.554 118.24 138.954 118.107 138.5 117.8C138.007 117.52 137.62 117.113 137.34 116.58V117.82V121.24H136.04V108.5H137.18L137.26 110.04ZM139.98 109.28C139.127 109.28 138.487 109.54 138.06 110.06C137.674 110.513 137.447 111.153 137.38 111.98C137.34 112.313 137.32 112.72 137.32 113.2C137.32 115.893 138.214 117.24 140 117.24C140.76 117.24 141.36 116.88 141.8 116.16C142.254 115.44 142.48 114.447 142.48 113.18C142.48 112.007 142.254 111.067 141.8 110.36C141.347 109.64 140.74 109.28 139.98 109.28ZM153.664 116.92C152.597 117.787 151.464 118.22 150.264 118.22C149.451 118.22 148.784 118 148.264 117.56C147.757 117.12 147.504 116.507 147.504 115.72C147.504 115.133 147.677 114.607 148.024 114.14C148.251 113.833 148.717 113.533 149.424 113.24C149.824 113.093 150.497 112.933 151.444 112.76C151.604 112.72 152.011 112.653 152.664 112.56L153.584 112.44V112.04C153.584 111.013 153.417 110.307 153.084 109.92C152.751 109.52 152.171 109.32 151.344 109.32C150.211 109.32 149.324 109.72 148.684 110.52C148.684 110.507 148.417 110.253 147.884 109.76C148.657 108.787 149.837 108.3 151.424 108.3C153.744 108.3 154.904 109.447 154.904 111.74V118H153.804L153.664 116.92ZM153.584 113.3L152.664 113.46C151.664 113.633 150.951 113.767 150.524 113.86C149.977 114.007 149.537 114.213 149.204 114.48C148.897 114.72 148.744 115.073 148.744 115.54C148.744 116.727 149.331 117.32 150.504 117.32C151.491 117.32 152.517 116.867 153.584 115.96V113.3ZM160.537 108.5V110.28C160.711 109.88 160.957 109.533 161.277 109.24C161.597 108.947 161.937 108.747 162.297 108.64C162.617 108.547 162.971 108.5 163.357 108.5V109.7C162.331 109.7 161.604 110.047 161.177 110.74C160.777 111.367 160.577 112.14 160.577 113.06V118H159.257V108.5H160.537ZM178.627 110.66C178.253 109.753 177.46 109.3 176.247 109.3C174.687 109.3 173.907 109.853 173.907 110.96C173.907 111.36 174.06 111.687 174.367 111.94C174.607 112.167 175.013 112.333 175.587 112.44C175.8 112.507 176.067 112.567 176.387 112.62C177.493 112.82 178.307 113.133 178.827 113.56C179.347 113.973 179.607 114.567 179.607 115.34C179.607 117.26 178.353 118.22 175.847 118.22C175.047 118.22 174.347 118.06 173.747 117.74C173.053 117.367 172.587 116.753 172.347 115.9L173.347 115.52C173.573 116.12 173.887 116.553 174.287 116.82C174.7 117.087 175.267 117.22 175.987 117.22C177.6 117.22 178.407 116.68 178.407 115.6C178.407 115.013 178.22 114.593 177.847 114.34C177.473 114.1 176.693 113.86 175.507 113.62C174.907 113.487 174.353 113.293 173.847 113.04C173.38 112.827 173.04 112.447 172.827 111.9C172.72 111.607 172.667 111.287 172.667 110.94C172.667 110.127 172.987 109.487 173.627 109.02C174.267 108.54 175.113 108.3 176.167 108.3C177.033 108.3 177.727 108.447 178.247 108.74C178.78 109.02 179.207 109.493 179.527 110.16L178.627 110.66ZM189.78 112.46C189.753 110.34 188.907 109.28 187.24 109.28C186.387 109.28 185.747 109.593 185.32 110.22C184.893 110.807 184.64 111.553 184.56 112.46H189.78ZM190.16 109.6C190.747 110.427 191.04 111.487 191.04 112.78C191.04 113.033 191.033 113.213 191.02 113.32H184.54C184.54 114.453 184.753 115.367 185.18 116.06C185.647 116.847 186.36 117.24 187.32 117.24C188.56 117.24 189.36 116.693 189.72 115.6L190.74 115.84C190.593 116.347 190.34 116.787 189.98 117.16C189.633 117.533 189.233 117.8 188.78 117.96C188.367 118.107 187.893 118.193 187.36 118.22H187.32C185.907 118.22 184.853 117.713 184.16 116.7C183.52 115.793 183.2 114.64 183.2 113.24C183.2 111.747 183.56 110.553 184.28 109.66C185.013 108.753 186.013 108.3 187.28 108.3C188.573 108.3 189.533 108.733 190.16 109.6ZM196.332 118H195.032V108.5H196.292L196.332 110.02C196.998 108.873 198.005 108.3 199.352 108.3C200.752 108.3 201.638 108.96 202.012 110.28C202.318 109.64 202.752 109.153 203.312 108.82C203.885 108.473 204.518 108.3 205.212 108.3C206.172 108.3 206.898 108.62 207.392 109.26C207.792 109.78 208.032 110.5 208.112 111.42C208.138 111.927 208.152 112.34 208.152 112.66V118H206.852V112.38C206.852 111.433 206.718 110.687 206.452 110.14C206.158 109.567 205.665 109.28 204.972 109.28C204.465 109.28 203.998 109.44 203.572 109.76C203.145 110.067 202.812 110.473 202.572 110.98C202.345 111.5 202.232 112.007 202.232 112.5V118H200.912V112.38C200.912 111.34 200.765 110.567 200.472 110.06C200.192 109.54 199.725 109.28 199.072 109.28C198.538 109.28 198.058 109.44 197.632 109.76C197.218 110.067 196.898 110.48 196.672 111C196.445 111.52 196.332 112.047 196.332 112.58V118ZM218.281 116.92C217.215 117.787 216.081 118.22 214.881 118.22C214.068 118.22 213.401 118 212.881 117.56C212.375 117.12 212.121 116.507 212.121 115.72C212.121 115.133 212.295 114.607 212.641 114.14C212.868 113.833 213.335 113.533 214.041 113.24C214.441 113.093 215.115 112.933 216.061 112.76C216.221 112.72 216.628 112.653 217.281 112.56L218.201 112.44V112.04C218.201 111.013 218.035 110.307 217.701 109.92C217.368 109.52 216.788 109.32 215.961 109.32C214.828 109.32 213.941 109.72 213.301 110.52C213.301 110.507 213.035 110.253 212.501 109.76C213.275 108.787 214.455 108.3 216.041 108.3C218.361 108.3 219.521 109.447 219.521 111.74V118H218.421L218.281 116.92ZM218.201 113.3L217.281 113.46C216.281 113.633 215.568 113.767 215.141 113.86C214.595 114.007 214.155 114.213 213.821 114.48C213.515 114.72 213.361 115.073 213.361 115.54C213.361 116.727 213.948 117.32 215.121 117.32C216.108 117.32 217.135 116.867 218.201 115.96V113.3ZM224.014 118V108.5H225.314V118H224.014ZM223.994 106.48V104.82H225.294V106.48H223.994ZM229.723 118V108.5H231.003V108.8V109.38V110.04V110.3C231.256 109.62 231.723 109.107 232.403 108.76C233.043 108.453 233.683 108.3 234.323 108.3C235.043 108.3 235.63 108.44 236.083 108.72C236.55 109.013 236.87 109.353 237.043 109.74C237.243 110.207 237.376 110.667 237.443 111.12C237.47 111.493 237.483 111.733 237.483 111.84V112.58V118H236.183V112.42C236.183 111.673 236.103 111.04 235.943 110.52C235.77 110.027 235.45 109.693 234.983 109.52C234.756 109.427 234.47 109.38 234.123 109.38C233.203 109.38 232.496 109.627 232.003 110.12C231.576 110.547 231.283 111.2 231.123 112.08C231.056 112.507 231.023 112.933 231.023 113.36V118H229.723ZM248.061 112.46C248.034 110.34 247.188 109.28 245.521 109.28C244.668 109.28 244.028 109.593 243.601 110.22C243.174 110.807 242.921 111.553 242.841 112.46H248.061ZM248.441 109.6C249.028 110.427 249.321 111.487 249.321 112.78C249.321 113.033 249.314 113.213 249.301 113.32H242.821C242.821 114.453 243.034 115.367 243.461 116.06C243.928 116.847 244.641 117.24 245.601 117.24C246.841 117.24 247.641 116.693 248.001 115.6L249.021 115.84C248.874 116.347 248.621 116.787 248.261 117.16C247.914 117.533 247.514 117.8 247.061 117.96C246.648 118.107 246.174 118.193 245.641 118.22H245.601C244.188 118.22 243.134 117.713 242.441 116.7C241.801 115.793 241.481 114.64 241.481 113.24C241.481 111.747 241.841 110.553 242.561 109.66C243.294 108.753 244.294 108.3 245.561 108.3C246.854 108.3 247.814 108.733 248.441 109.6ZM265.313 116.92C264.246 117.787 263.113 118.22 261.913 118.22C261.099 118.22 260.433 118 259.913 117.56C259.406 117.12 259.153 116.507 259.153 115.72C259.153 115.133 259.326 114.607 259.673 114.14C259.899 113.833 260.366 113.533 261.073 113.24C261.473 113.093 262.146 112.933 263.093 112.76C263.253 112.72 263.659 112.653 264.313 112.56L265.233 112.44V112.04C265.233 111.013 265.066 110.307 264.733 109.92C264.399 109.52 263.819 109.32 262.993 109.32C261.859 109.32 260.973 109.72 260.333 110.52C260.333 110.507 260.066 110.253 259.533 109.76C260.306 108.787 261.486 108.3 263.073 108.3C265.393 108.3 266.553 109.447 266.553 111.74V118H265.453L265.313 116.92ZM265.233 113.3L264.313 113.46C263.313 113.633 262.599 113.767 262.173 113.86C261.626 114.007 261.186 114.213 260.853 114.48C260.546 114.72 260.393 115.073 260.393 115.54C260.393 116.727 260.979 117.32 262.153 117.32C263.139 117.32 264.166 116.867 265.233 115.96V113.3ZM277.306 108.5H278.626V118H277.346V116.22C277.106 116.847 276.672 117.34 276.046 117.7C275.419 118.047 274.746 118.22 274.026 118.22C273.212 118.22 272.579 118.047 272.126 117.7C271.699 117.393 271.392 116.967 271.206 116.42C271.032 115.913 270.932 115.367 270.906 114.78C270.892 114.62 270.886 114.347 270.886 113.96V108.5H272.206V114.24C272.206 115.24 272.359 115.987 272.666 116.48C272.986 116.96 273.512 117.2 274.246 117.2C275.139 117.2 275.852 116.92 276.386 116.36C276.839 115.907 277.126 115.367 277.246 114.74C277.286 114.487 277.306 114.227 277.306 113.96V108.5ZM294.056 117.7C293.59 118.007 293.043 118.16 292.416 118.16C291.59 118.16 290.99 117.913 290.616 117.42C290.256 116.913 290.076 116.1 290.076 114.98V109.44H288.676V108.5H290.176V105.48L291.416 105.14V108.5H293.476V109.44H291.416V115.58C291.416 116.633 291.843 117.16 292.696 117.16C292.976 117.16 293.35 117.053 293.816 116.84L294.056 117.7ZM299.033 110.54C298.66 111.287 298.473 112.187 298.473 113.24C298.473 114.093 298.593 114.84 298.833 115.48C299.073 116.213 299.5 116.72 300.113 117C300.433 117.16 300.8 117.24 301.213 117.24C302.027 117.24 302.66 116.96 303.113 116.4C303.513 115.907 303.767 115.247 303.873 114.42C303.927 114.1 303.953 113.707 303.953 113.24C303.953 112.427 303.833 111.687 303.593 111.02C303.327 110.287 302.9 109.78 302.313 109.5C301.953 109.353 301.587 109.28 301.213 109.28C300.173 109.28 299.447 109.7 299.033 110.54ZM304.173 109.6C304.92 110.453 305.293 111.667 305.293 113.24C305.293 114.813 304.927 116.04 304.193 116.92C303.473 117.787 302.48 118.22 301.213 118.22C299.947 118.22 298.947 117.787 298.213 116.92C297.493 116.053 297.133 114.833 297.133 113.26C297.133 111.673 297.5 110.453 298.233 109.6C298.967 108.733 299.96 108.3 301.213 108.3C302.453 108.3 303.44 108.733 304.173 109.6ZM313.896 117.7C313.43 118.007 312.883 118.16 312.256 118.16C311.43 118.16 310.83 117.913 310.456 117.42C310.096 116.913 309.916 116.1 309.916 114.98V109.44H308.516V108.5H310.016V105.48L311.256 105.14V108.5H313.316V109.44H311.256V115.58C311.256 116.633 311.683 117.16 312.536 117.16C312.816 117.16 313.19 117.053 313.656 116.84L313.896 117.7ZM323.113 116.92C322.047 117.787 320.913 118.22 319.713 118.22C318.9 118.22 318.233 118 317.713 117.56C317.207 117.12 316.953 116.507 316.953 115.72C316.953 115.133 317.127 114.607 317.473 114.14C317.7 113.833 318.167 113.533 318.873 113.24C319.273 113.093 319.947 112.933 320.893 112.76C321.053 112.72 321.46 112.653 322.113 112.56L323.033 112.44V112.04C323.033 111.013 322.867 110.307 322.533 109.92C322.2 109.52 321.62 109.32 320.793 109.32C319.66 109.32 318.773 109.72 318.133 110.52C318.133 110.507 317.867 110.253 317.333 109.76C318.107 108.787 319.287 108.3 320.873 108.3C323.193 108.3 324.353 109.447 324.353 111.74V118H323.253L323.113 116.92ZM323.033 113.3L322.113 113.46C321.113 113.633 320.4 113.767 319.973 113.86C319.427 114.007 318.987 114.213 318.653 114.48C318.347 114.72 318.193 115.073 318.193 115.54C318.193 116.727 318.78 117.32 319.953 117.32C320.94 117.32 321.967 116.867 323.033 115.96V113.3ZM328.806 118V104.32H330.126V118H328.806ZM334.733 116H336.253V118H334.733V116Z" fill="black"/>
</svg>
