<svg width="31" height="31" viewBox="0 0 31 31" fill="none" xmlns="http://www.w3.org/2000/svg">
<path fill-rule="evenodd" clip-rule="evenodd" d="M24.0976 26.992L26.9614 24.1281L25.9528 20.4639L26.3922 19.4144L29.7083 17.5432V13.4933L26.4016 11.6143L25.9696 10.5667L26.9909 6.90053L24.125 4.03881L20.4604 5.04715L19.4133 4.60811L17.5419 1.29166H13.492L11.613 4.59838L10.5656 5.03034L6.90007 4.00778L4.03866 6.86919L5.04717 10.5344L4.60812 11.5815L1.29167 13.4529V17.5016L4.59542 19.3848L5.02784 20.4333L4.00671 24.0988L6.8692 26.9613L10.5344 25.9528L11.5817 26.3919L13.4531 29.707H17.5019L19.3837 26.4032L20.432 25.9708L24.0976 26.992ZM24.3514 17.5997L23.2253 20.2892L24.0718 23.3644L23.3376 24.0986L20.2689 23.2437L17.5782 24.3534L16.0003 27.1237H14.9613L13.3964 24.3516L10.7099 23.2252L7.63306 24.0718L6.90012 23.3389L7.75498 20.2702L6.6454 17.5798L3.87501 16.0006V14.9614L6.64834 13.3965L7.7748 10.7099L6.92819 7.63305L7.6596 6.90163L10.7283 7.75768L13.4198 6.64762L14.9954 3.87499H16.0334L17.5983 6.64833L20.2849 7.77478L23.3623 6.928L24.0971 7.66172L23.2424 10.7298L24.3524 13.4211L27.125 14.9966V16.0347L24.3514 17.5997ZM15.5 20.6667C12.6465 20.6667 10.3333 18.3535 10.3333 15.5C10.3333 12.6465 12.6465 10.3333 15.5 10.3333C18.3535 10.3333 20.6667 12.6465 20.6667 15.5C20.6667 18.3535 18.3535 20.6667 15.5 20.6667ZM18.0833 15.5C18.0833 16.9267 16.9267 18.0833 15.5 18.0833C14.0733 18.0833 12.9167 16.9267 12.9167 15.5C12.9167 14.0733 14.0733 12.9167 15.5 12.9167C16.9267 12.9167 18.0833 14.0733 18.0833 15.5Z" fill="black"/>
</svg>