<svg width="129" height="293" viewBox="0 0 129 293" fill="none" xmlns="http://www.w3.org/2000/svg">
<g filter="url(#filter0_d)">
<path d="M69.5 94C69.5 91.2386 71.7386 89 74.5 89H97.7287C100.189 89 102.283 90.7892 102.667 93.2189L132.086 279.219C132.566 282.254 130.22 285 127.147 285H74.5C71.7386 285 69.5 282.761 69.5 280V94Z" fill="#95533E"/>
</g>
<g filter="url(#filter1_d)">
<path d="M67.2698 15.6396C68.1122 13.5254 70.9097 13.0823 72.3642 14.8327L141.6 98.1558C143.087 99.945 142.06 102.672 139.762 103.036L30.427 120.353C28.1294 120.717 26.3097 118.441 27.1708 116.28L67.2698 15.6396Z" fill="#76AE14"/>
</g>
<defs>
<filter id="filter0_d" x="65.5" y="89" width="70.6482" height="204" filterUnits="userSpaceOnUse" color-interpolation-filters="sRGB">
<feFlood flood-opacity="0" result="BackgroundImageFix"/>
<feColorMatrix in="SourceAlpha" type="matrix" values="0 0 0 0 0 0 0 0 0 0 0 0 0 0 0 0 0 0 127 0"/>
<feOffset dy="4"/>
<feGaussianBlur stdDeviation="2"/>
<feColorMatrix type="matrix" values="0 0 0 0 0 0 0 0 0 0 0 0 0 0 0 0 0 0 0.25 0"/>
<feBlend mode="normal" in2="BackgroundImageFix" result="effect1_dropShadow"/>
<feBlend mode="normal" in="SourceGraphic" in2="effect1_dropShadow" result="shape"/>
</filter>
<filter id="filter1_d" x="7.95235" y="4.65845" width="138.777" height="126.165" filterUnits="userSpaceOnUse" color-interpolation-filters="sRGB">
<feFlood flood-opacity="0" result="BackgroundImageFix"/>
<feColorMatrix in="SourceAlpha" type="matrix" values="0 0 0 0 0 0 0 0 0 0 0 0 0 0 0 0 0 0 127 0"/>
<feOffset dy="6"/>
<feGaussianBlur stdDeviation="2"/>
<feColorMatrix type="matrix" values="0 0 0 0 0 0 0 0 0 0 0 0 0 0 0 0 0 0 0.25 0"/>
<feBlend mode="normal" in2="BackgroundImageFix" result="effect1_dropShadow"/>
<feBlend mode="normal" in="SourceGraphic" in2="effect1_dropShadow" result="shape"/>
</filter>
</defs>
</svg>
