<svg width="236" height="22" viewBox="0 0 236 22" fill="none" xmlns="http://www.w3.org/2000/svg">
<path d="M7.71 4.23C7.35 5.37 7.12 6.13 7.02 6.51L4.65 13.92H12.18L9.81 6.51C9.27 4.91 8.79 3.42 8.37 2.04C8.19 2.7 7.97 3.43 7.71 4.23ZM0.36 21L7.14 0.629999H9.81L16.59 21H14.52L12.63 15.45H4.17L2.4 21H0.36ZM23.5929 6.75V9.42C23.8529 8.82 24.2229 8.3 24.7029 7.86C25.1829 7.42 25.6929 7.12 26.2329 6.96C26.7129 6.82 27.2429 6.75 27.8229 6.75V8.55C26.2829 8.55 25.1929 9.07 24.5529 10.11C23.9529 11.05 23.6529 12.21 23.6529 13.59V21H21.6729V6.75H23.5929ZM34.7374 6.75V9.42C34.9974 8.82 35.3674 8.3 35.8474 7.86C36.3274 7.42 36.8374 7.12 37.3774 6.96C37.8574 6.82 38.3874 6.75 38.9674 6.75V8.55C37.4274 8.55 36.3374 9.07 35.6974 10.11C35.0974 11.05 34.7974 12.21 34.7974 13.59V21H32.8174V6.75H34.7374ZM48.312 0.149998H51.012L53.442 4.65H52.152L49.662 1.59L47.142 4.65H45.852L48.312 0.149998ZM53.412 12.69C53.372 9.51 52.102 7.92 49.602 7.92C48.322 7.92 47.362 8.39 46.722 9.33C46.082 10.21 45.702 11.33 45.582 12.69H53.412ZM53.982 8.4C54.862 9.64 55.302 11.23 55.302 13.17C55.302 13.55 55.292 13.82 55.272 13.98H45.552C45.552 15.68 45.872 17.05 46.512 18.09C47.212 19.27 48.282 19.86 49.722 19.86C51.582 19.86 52.782 19.04 53.322 17.4L54.852 17.76C54.632 18.52 54.252 19.18 53.712 19.74C53.192 20.3 52.592 20.7 51.912 20.94C51.292 21.16 50.582 21.29 49.782 21.33H49.722C47.602 21.33 46.022 20.57 44.982 19.05C44.022 17.69 43.542 15.96 43.542 13.86C43.542 11.62 44.082 9.83 45.162 8.49C46.262 7.13 47.762 6.45 49.662 6.45C51.602 6.45 53.042 7.1 53.982 8.4ZM68.1295 20.55C67.4295 21.01 66.6095 21.24 65.6695 21.24C64.4295 21.24 63.5295 20.87 62.9695 20.13C62.4295 19.37 62.1595 18.15 62.1595 16.47V8.16H60.0595V6.75H62.3095V2.22L64.1695 1.71V6.75H67.2595V8.16H64.1695V17.37C64.1695 18.95 64.8095 19.74 66.0895 19.74C66.5095 19.74 67.0695 19.58 67.7695 19.26L68.1295 20.55ZM82.6151 12.69C82.5751 9.51 81.3051 7.92 78.8051 7.92C77.5251 7.92 76.5651 8.39 75.9251 9.33C75.2851 10.21 74.9051 11.33 74.7851 12.69H82.6151ZM83.1851 8.4C84.0651 9.64 84.5051 11.23 84.5051 13.17C84.5051 13.55 84.4951 13.82 84.4751 13.98H74.7551C74.7551 15.68 75.0751 17.05 75.7151 18.09C76.4151 19.27 77.4851 19.86 78.9251 19.86C80.7851 19.86 81.9851 19.04 82.5251 17.4L84.0551 17.76C83.8351 18.52 83.4551 19.18 82.9151 19.74C82.3951 20.3 81.7951 20.7 81.1151 20.94C80.4951 21.16 79.7851 21.29 78.9851 21.33H78.9251C76.8051 21.33 75.2251 20.57 74.1851 19.05C73.2251 17.69 72.7451 15.96 72.7451 13.86C72.7451 11.62 73.2851 9.83 74.3651 8.49C75.4651 7.13 76.9651 6.45 78.8651 6.45C80.8051 6.45 82.2451 7.1 83.1851 8.4ZM92.3527 6.75V9.42C92.6127 8.82 92.9827 8.3 93.4627 7.86C93.9427 7.42 94.4527 7.12 94.9927 6.96C95.4727 6.82 96.0027 6.75 96.5827 6.75V8.55C95.0427 8.55 93.9527 9.07 93.3127 10.11C92.7127 11.05 92.4127 12.21 92.4127 13.59V21H90.4327V6.75H92.3527ZM118.377 19.29C119.137 18.85 119.677 17.97 119.997 16.65C120.157 15.89 120.237 15.02 120.237 14.04C120.237 11.5 119.657 9.73 118.497 8.73C117.857 8.19 117.067 7.92 116.127 7.92C114.947 7.92 114.027 8.48 113.367 9.6C112.727 10.7 112.407 12.2 112.407 14.1C112.407 15.82 112.747 17.21 113.427 18.27C114.107 19.33 115.017 19.86 116.157 19.86C117.017 19.86 117.757 19.67 118.377 19.29ZM115.827 6.45C117.987 6.45 119.437 7.3 120.177 9V0.48H122.157V21H120.567L120.297 18.6C119.937 19.44 119.357 20.11 118.557 20.61C117.777 21.09 116.887 21.33 115.887 21.33C114.207 21.33 112.867 20.67 111.867 19.35C110.887 18.03 110.397 16.26 110.397 14.04C110.397 11.68 110.867 9.83 111.807 8.49C112.767 7.13 114.107 6.45 115.827 6.45ZM138.15 12.69C138.11 9.51 136.84 7.92 134.34 7.92C133.06 7.92 132.1 8.39 131.46 9.33C130.82 10.21 130.44 11.33 130.32 12.69H138.15ZM138.72 8.4C139.6 9.64 140.04 11.23 140.04 13.17C140.04 13.55 140.03 13.82 140.01 13.98H130.29C130.29 15.68 130.61 17.05 131.25 18.09C131.95 19.27 133.02 19.86 134.46 19.86C136.32 19.86 137.52 19.04 138.06 17.4L139.59 17.76C139.37 18.52 138.99 19.18 138.45 19.74C137.93 20.3 137.33 20.7 136.65 20.94C136.03 21.16 135.32 21.29 134.52 21.33H134.46C132.34 21.33 130.76 20.57 129.72 19.05C128.76 17.69 128.28 15.96 128.28 13.86C128.28 11.62 128.82 9.83 129.9 8.49C131 7.13 132.5 6.45 134.4 6.45C136.34 6.45 137.78 7.1 138.72 8.4ZM158.957 2.4C158.757 2.74 158.637 3.11 158.597 3.51C158.537 4.11 158.507 4.67 158.507 5.19V6.75H161.297V8.22H158.507V21H156.557V8.22H154.127V6.75H156.557V5.13C156.557 3.53 156.807 2.37 157.307 1.65C157.807 0.909999 158.637 0.539999 159.797 0.539999C160.557 0.539999 161.277 0.729999 161.957 1.11L161.507 2.4C160.827 2.12 160.307 1.98 159.947 1.98C159.447 1.98 159.117 2.12 158.957 2.4ZM176.509 6.75H178.489V21H176.569V18.33C176.209 19.27 175.559 20.01 174.619 20.55C173.679 21.07 172.669 21.33 171.589 21.33C170.369 21.33 169.419 21.07 168.739 20.55C168.099 20.09 167.639 19.45 167.359 18.63C167.099 17.87 166.949 17.05 166.909 16.17C166.889 15.93 166.879 15.52 166.879 14.94V6.75H168.859V15.36C168.859 16.86 169.089 17.98 169.549 18.72C170.029 19.44 170.819 19.8 171.919 19.8C173.259 19.8 174.329 19.38 175.129 18.54C175.809 17.86 176.239 17.05 176.419 16.11C176.479 15.73 176.509 15.34 176.509 14.94V6.75ZM187.476 21H185.526V6.75H187.416L187.476 9.03C188.476 7.31 189.986 6.45 192.006 6.45C194.106 6.45 195.436 7.44 195.996 9.42C196.456 8.46 197.106 7.73 197.946 7.23C198.806 6.71 199.756 6.45 200.796 6.45C202.236 6.45 203.326 6.93 204.066 7.89C204.666 8.67 205.026 9.75 205.146 11.13C205.186 11.89 205.206 12.51 205.206 12.99V21H203.256V12.57C203.256 11.15 203.056 10.03 202.656 9.21C202.216 8.35 201.476 7.92 200.436 7.92C199.676 7.92 198.976 8.16 198.336 8.64C197.696 9.1 197.196 9.71 196.836 10.47C196.496 11.25 196.326 12.01 196.326 12.75V21H194.346V12.57C194.346 11.01 194.126 9.85 193.686 9.09C193.266 8.31 192.566 7.92 191.586 7.92C190.786 7.92 190.066 8.16 189.426 8.64C188.806 9.1 188.326 9.72 187.986 10.5C187.646 11.28 187.476 12.07 187.476 12.87V21ZM221.06 12.69C221.02 9.51 219.75 7.92 217.25 7.92C215.97 7.92 215.01 8.39 214.37 9.33C213.73 10.21 213.35 11.33 213.23 12.69H221.06ZM221.63 8.4C222.51 9.64 222.95 11.23 222.95 13.17C222.95 13.55 222.94 13.82 222.92 13.98H213.2C213.2 15.68 213.52 17.05 214.16 18.09C214.86 19.27 215.93 19.86 217.37 19.86C219.23 19.86 220.43 19.04 220.97 17.4L222.5 17.76C222.28 18.52 221.9 19.18 221.36 19.74C220.84 20.3 220.24 20.7 219.56 20.94C218.94 21.16 218.23 21.29 217.43 21.33H217.37C215.25 21.33 213.67 20.57 212.63 19.05C211.67 17.69 211.19 15.96 211.19 13.86C211.19 11.62 211.73 9.83 212.81 8.49C213.91 7.13 215.41 6.45 217.31 6.45C219.25 6.45 220.69 7.1 221.63 8.4ZM230.798 6.75V9.42C231.058 8.82 231.428 8.3 231.908 7.86C232.388 7.42 232.898 7.12 233.438 6.96C233.918 6.82 234.448 6.75 235.028 6.75V8.55C233.488 8.55 232.398 9.07 231.758 10.11C231.158 11.05 230.858 12.21 230.858 13.59V21H228.878V6.75H230.798Z" fill="black"/>
</svg>
