<svg width="137" height="46" viewBox="0 0 137 46" fill="none" xmlns="http://www.w3.org/2000/svg">
<g filter="url(#filter0_d)">
<path d="M4 10C4 4.47715 8.47715 0 14 0H123C128.523 0 133 4.47715 133 10V28C133 33.5228 128.523 38 123 38H14C8.47715 38 4 33.5228 4 28V10Z" fill="#A5DEE5"/>
<path d="M34.4035 24V11.796H36.1675L40.0735 20.616L44.0875 11.796H45.6715V24H44.5735V13.344L40.5955 21.912H39.4795L35.5735 13.308V24H34.4035ZM51.192 17.286C50.856 17.958 50.688 18.768 50.688 19.716C50.688 20.484 50.796 21.156 51.012 21.732C51.228 22.392 51.612 22.848 52.164 23.1C52.452 23.244 52.782 23.316 53.154 23.316C53.886 23.316 54.456 23.064 54.864 22.56C55.224 22.116 55.452 21.522 55.548 20.778C55.596 20.49 55.62 20.136 55.62 19.716C55.62 18.984 55.512 18.318 55.296 17.718C55.056 17.058 54.672 16.602 54.144 16.35C53.82 16.218 53.49 16.152 53.154 16.152C52.218 16.152 51.564 16.53 51.192 17.286ZM55.818 16.44C56.49 17.208 56.826 18.3 56.826 19.716C56.826 21.132 56.496 22.236 55.836 23.028C55.188 23.808 54.294 24.198 53.154 24.198C52.014 24.198 51.114 23.808 50.454 23.028C49.806 22.248 49.482 21.15 49.482 19.734C49.482 18.306 49.812 17.208 50.472 16.44C51.132 15.66 52.026 15.27 53.154 15.27C54.27 15.27 55.158 15.66 55.818 16.44ZM64.9465 22.974C65.4025 22.71 65.7265 22.182 65.9185 21.39C66.0145 20.934 66.0625 20.412 66.0625 19.824C66.0625 18.3 65.7145 17.238 65.0185 16.638C64.6345 16.314 64.1605 16.152 63.5965 16.152C62.8885 16.152 62.3365 16.488 61.9405 17.16C61.5565 17.82 61.3645 18.72 61.3645 19.86C61.3645 20.892 61.5685 21.726 61.9765 22.362C62.3845 22.998 62.9305 23.316 63.6145 23.316C64.1305 23.316 64.5745 23.202 64.9465 22.974ZM63.4165 15.27C64.7125 15.27 65.5825 15.78 66.0265 16.8V11.688H67.2145V24H66.2605L66.0985 22.56C65.8825 23.064 65.5345 23.466 65.0545 23.766C64.5865 24.054 64.0525 24.198 63.4525 24.198C62.4445 24.198 61.6405 23.802 61.0405 23.01C60.4525 22.218 60.1585 21.156 60.1585 19.824C60.1585 18.408 60.4405 17.298 61.0045 16.494C61.5805 15.678 62.3845 15.27 63.4165 15.27ZM71.2667 24V15.45H72.4367V24H71.2667ZM71.2487 13.632V12.138H72.4187V13.632H71.2487ZM78.6004 12.84C78.4804 13.044 78.4084 13.266 78.3844 13.506C78.3484 13.866 78.3304 14.202 78.3304 14.514V15.45H80.0044V16.332H78.3304V24H77.1604V16.332H75.7024V15.45H77.1604V14.478C77.1604 13.518 77.3104 12.822 77.6104 12.39C77.9104 11.946 78.4084 11.724 79.1044 11.724C79.5604 11.724 79.9924 11.838 80.4004 12.066L80.1304 12.84C79.7224 12.672 79.4104 12.588 79.1944 12.588C78.8944 12.588 78.6964 12.672 78.6004 12.84ZM83.4975 24V15.45H84.6675V24H83.4975ZM83.4795 13.632V12.138H84.6495V13.632H83.4795ZM94.2692 19.014C94.2452 17.106 93.4832 16.152 91.9832 16.152C91.2152 16.152 90.6392 16.434 90.2552 16.998C89.8712 17.526 89.6432 18.198 89.5712 19.014H94.2692ZM94.6112 16.44C95.1392 17.184 95.4032 18.138 95.4032 19.302C95.4032 19.53 95.3972 19.692 95.3852 19.788H89.5532C89.5532 20.808 89.7452 21.63 90.1292 22.254C90.5492 22.962 91.1912 23.316 92.0552 23.316C93.1712 23.316 93.8912 22.824 94.2152 21.84L95.1332 22.056C95.0012 22.512 94.7732 22.908 94.4492 23.244C94.1372 23.58 93.7772 23.82 93.3692 23.964C92.9972 24.096 92.5712 24.174 92.0912 24.198H92.0552C90.7832 24.198 89.8352 23.742 89.2112 22.83C88.6352 22.014 88.3472 20.976 88.3472 19.716C88.3472 18.372 88.6712 17.298 89.3192 16.494C89.9792 15.678 90.8792 15.27 92.0192 15.27C93.1832 15.27 94.0472 15.66 94.6112 16.44ZM100.112 15.45V17.052C100.268 16.692 100.49 16.38 100.778 16.116C101.066 15.852 101.372 15.672 101.696 15.576C101.984 15.492 102.302 15.45 102.65 15.45V16.53C101.726 16.53 101.072 16.842 100.688 17.466C100.328 18.03 100.148 18.726 100.148 19.554V24H98.9598V15.45H100.112Z" fill="black"/>
</g>
<defs>
<filter id="filter0_d" x="0" y="0" width="137" height="46" filterUnits="userSpaceOnUse" color-interpolation-filters="sRGB">
<feFlood flood-opacity="0" result="BackgroundImageFix"/>
<feColorMatrix in="SourceAlpha" type="matrix" values="0 0 0 0 0 0 0 0 0 0 0 0 0 0 0 0 0 0 127 0"/>
<feOffset dy="4"/>
<feGaussianBlur stdDeviation="2"/>
<feColorMatrix type="matrix" values="0 0 0 0 0 0 0 0 0 0 0 0 0 0 0 0 0 0 0.25 0"/>
<feBlend mode="normal" in2="BackgroundImageFix" result="effect1_dropShadow"/>
<feBlend mode="normal" in="SourceGraphic" in2="effect1_dropShadow" result="shape"/>
</filter>
</defs>
</svg>
