<svg width="334" height="218" viewBox="0 0 334 218" fill="none" xmlns="http://www.w3.org/2000/svg">
<g filter="url(#filter0_d)">
<rect x="5" y="1" width="323.568" height="207.442" rx="19" fill="#A5DEE5" stroke="#A5DEE5" stroke-width="2"/>
<path d="M106.901 30.4421H98.7113V18.2201H106.811V19.1561H99.9533V23.4401H105.911V24.4121H99.9533V29.5061H106.901V30.4421ZM115.42 21.8921H116.554L113.278 30.4421H112.216L109.012 21.8921H110.29L112.792 29.1821L115.42 21.8921ZM121.079 23.7281C120.743 24.4001 120.575 25.2101 120.575 26.1581C120.575 26.9261 120.683 27.5981 120.899 28.1741C121.115 28.8341 121.499 29.2901 122.051 29.5421C122.339 29.6861 122.669 29.7581 123.041 29.7581C123.773 29.7581 124.343 29.5061 124.751 29.0021C125.111 28.5581 125.339 27.9641 125.435 27.2201C125.483 26.9321 125.507 26.5781 125.507 26.1581C125.507 25.4261 125.399 24.7601 125.183 24.1601C124.943 23.5001 124.559 23.0441 124.031 22.7921C123.707 22.6601 123.377 22.5941 123.041 22.5941C122.105 22.5941 121.451 22.9721 121.079 23.7281ZM125.705 22.8821C126.377 23.6501 126.713 24.7421 126.713 26.1581C126.713 27.5741 126.383 28.6781 125.723 29.4701C125.075 30.2501 124.181 30.6401 123.041 30.6401C121.901 30.6401 121.001 30.2501 120.341 29.4701C119.693 28.6901 119.369 27.5921 119.369 26.1761C119.369 24.7481 119.699 23.6501 120.359 22.8821C121.019 22.1021 121.913 21.7121 123.041 21.7121C124.157 21.7121 125.045 22.1021 125.705 22.8821ZM130.406 30.4421V18.1301H131.594V30.4421H130.406ZM141.391 21.8921H142.579V30.4421H141.427V28.8401C141.211 29.4041 140.821 29.8481 140.257 30.1721C139.693 30.4841 139.087 30.6401 138.439 30.6401C137.707 30.6401 137.137 30.4841 136.729 30.1721C136.345 29.8961 136.069 29.5121 135.901 29.0201C135.745 28.5641 135.655 28.0721 135.631 27.5441C135.619 27.4001 135.613 27.1541 135.613 26.8061V21.8921H136.801V27.0581C136.801 27.9581 136.939 28.6301 137.215 29.0741C137.503 29.5061 137.977 29.7221 138.637 29.7221C139.441 29.7221 140.083 29.4701 140.563 28.9661C140.971 28.5581 141.229 28.0721 141.337 27.5081C141.373 27.2801 141.391 27.0461 141.391 26.8061V21.8921ZM150.905 30.1721C150.485 30.4481 149.993 30.5861 149.429 30.5861C148.685 30.5861 148.145 30.3641 147.809 29.9201C147.485 29.4641 147.323 28.7321 147.323 27.7241V22.7381H146.063V21.8921H147.413V19.1741L148.529 18.8681V21.8921H150.383V22.7381H148.529V28.2641C148.529 29.2121 148.913 29.6861 149.681 29.6861C149.933 29.6861 150.269 29.5901 150.689 29.3981L150.905 30.1721ZM154.053 30.4421V21.8921H155.223V30.4421H154.053ZM154.035 20.0741V18.5801H155.205V20.0741H154.035ZM160.612 23.7281C160.276 24.4001 160.108 25.2101 160.108 26.1581C160.108 26.9261 160.216 27.5981 160.432 28.1741C160.648 28.8341 161.032 29.2901 161.584 29.5421C161.872 29.6861 162.202 29.7581 162.574 29.7581C163.306 29.7581 163.876 29.5061 164.284 29.0021C164.644 28.5581 164.872 27.9641 164.968 27.2201C165.016 26.9321 165.04 26.5781 165.04 26.1581C165.04 25.4261 164.932 24.7601 164.716 24.1601C164.476 23.5001 164.092 23.0441 163.564 22.7921C163.24 22.6601 162.91 22.5941 162.574 22.5941C161.638 22.5941 160.984 22.9721 160.612 23.7281ZM165.238 22.8821C165.91 23.6501 166.246 24.7421 166.246 26.1581C166.246 27.5741 165.916 28.6781 165.256 29.4701C164.608 30.2501 163.714 30.6401 162.574 30.6401C161.434 30.6401 160.534 30.2501 159.874 29.4701C159.226 28.6901 158.902 27.5921 158.902 26.1761C158.902 24.7481 159.232 23.6501 159.892 22.8821C160.552 22.1021 161.446 21.7121 162.574 21.7121C163.69 21.7121 164.578 22.1021 165.238 22.8821ZM169.885 30.4421V21.8921H171.037V22.1621V22.6841V23.2781V23.5121C171.265 22.9001 171.685 22.4381 172.297 22.1261C172.873 21.8501 173.449 21.7121 174.025 21.7121C174.673 21.7121 175.201 21.8381 175.609 22.0901C176.029 22.3541 176.317 22.6601 176.473 23.0081C176.653 23.4281 176.773 23.8421 176.833 24.2501C176.857 24.5861 176.869 24.8021 176.869 24.8981V25.5641V30.4421H175.699V25.4201C175.699 24.7481 175.627 24.1781 175.483 23.7101C175.327 23.2661 175.039 22.9661 174.619 22.8101C174.415 22.7261 174.157 22.6841 173.845 22.6841C173.017 22.6841 172.381 22.9061 171.937 23.3501C171.553 23.7341 171.289 24.3221 171.145 25.1141C171.085 25.4981 171.055 25.8821 171.055 26.2661V30.4421H169.885ZM190.799 29.4161C191.255 29.1521 191.579 28.6241 191.771 27.8321C191.867 27.3761 191.915 26.8541 191.915 26.2661C191.915 24.7421 191.567 23.6801 190.871 23.0801C190.487 22.7561 190.013 22.5941 189.449 22.5941C188.741 22.5941 188.189 22.9301 187.793 23.6021C187.409 24.2621 187.217 25.1621 187.217 26.3021C187.217 27.3341 187.421 28.1681 187.829 28.8041C188.237 29.4401 188.783 29.7581 189.467 29.7581C189.983 29.7581 190.427 29.6441 190.799 29.4161ZM189.269 21.7121C190.565 21.7121 191.435 22.2221 191.879 23.2421V18.1301H193.067V30.4421H192.113L191.951 29.0021C191.735 29.5061 191.387 29.9081 190.907 30.2081C190.439 30.4961 189.905 30.6401 189.305 30.6401C188.297 30.6401 187.493 30.2441 186.893 29.4521C186.305 28.6601 186.011 27.5981 186.011 26.2661C186.011 24.8501 186.293 23.7401 186.857 22.9361C187.433 22.1201 188.237 21.7121 189.269 21.7121ZM202.663 25.4561C202.639 23.5481 201.877 22.5941 200.377 22.5941C199.609 22.5941 199.033 22.8761 198.649 23.4401C198.265 23.9681 198.037 24.6401 197.965 25.4561H202.663ZM203.005 22.8821C203.533 23.6261 203.797 24.5801 203.797 25.7441C203.797 25.9721 203.791 26.1341 203.779 26.2301H197.947C197.947 27.2501 198.139 28.0721 198.523 28.6961C198.943 29.4041 199.585 29.7581 200.449 29.7581C201.565 29.7581 202.285 29.2661 202.609 28.2821L203.527 28.4981C203.395 28.9541 203.167 29.3501 202.843 29.6861C202.531 30.0221 202.171 30.2621 201.763 30.4061C201.391 30.5381 200.965 30.6161 200.485 30.6401H200.449C199.177 30.6401 198.229 30.1841 197.605 29.2721C197.029 28.4561 196.741 27.4181 196.741 26.1581C196.741 24.8141 197.065 23.7401 197.713 22.9361C198.373 22.1201 199.273 21.7121 200.413 21.7121C201.577 21.7121 202.441 22.1021 203.005 22.8821ZM213.005 30.4421V18.1301H214.193V30.4421H213.005ZM223.505 29.4701C222.545 30.2501 221.525 30.6401 220.445 30.6401C219.713 30.6401 219.113 30.4421 218.645 30.0461C218.189 29.6501 217.961 29.0981 217.961 28.3901C217.961 27.8621 218.117 27.3881 218.429 26.9681C218.633 26.6921 219.053 26.4221 219.689 26.1581C220.049 26.0261 220.655 25.8821 221.507 25.7261C221.651 25.6901 222.017 25.6301 222.605 25.5461L223.433 25.4381V25.0781C223.433 24.1541 223.283 23.5181 222.983 23.1701C222.683 22.8101 222.161 22.6301 221.417 22.6301C220.397 22.6301 219.599 22.9901 219.023 23.7101C219.023 23.6981 218.783 23.4701 218.303 23.0261C218.999 22.1501 220.061 21.7121 221.489 21.7121C223.577 21.7121 224.621 22.7441 224.621 24.8081V30.4421H223.631L223.505 29.4701ZM223.433 26.2121L222.605 26.3561C221.705 26.5121 221.063 26.6321 220.679 26.7161C220.187 26.8481 219.791 27.0341 219.491 27.2741C219.215 27.4901 219.077 27.8081 219.077 28.2281C219.077 29.2961 219.605 29.8301 220.661 29.8301C221.549 29.8301 222.473 29.4221 223.433 28.6061V26.2121ZM42.2083 45.3061C42.7723 44.9101 43.4623 44.7121 44.2783 44.7121C44.9383 44.7121 45.5563 44.8921 46.1323 45.2521C46.7323 45.6601 47.1523 46.3501 47.3923 47.3221L46.4023 47.5921C46.2103 46.9081 45.9463 46.4041 45.6103 46.0801C45.2863 45.7561 44.8603 45.5941 44.3323 45.5941C43.4803 45.5941 42.8383 45.9061 42.4063 46.5301C41.9743 47.1541 41.7583 48.0301 41.7583 49.1581C41.7583 50.2621 41.9503 51.1261 42.3343 51.7501C42.7303 52.4221 43.3543 52.7581 44.2063 52.7581C45.3103 52.7581 46.0543 52.1101 46.4383 50.8141L47.3563 51.0841C47.1643 51.9601 46.7503 52.6201 46.1143 53.0641C45.5503 53.4481 44.9083 53.6401 44.1883 53.6401C43.0243 53.6401 42.1243 53.2441 41.4883 52.4521C40.8643 51.6481 40.5523 50.5561 40.5523 49.1761C40.5523 47.3641 41.1043 46.0741 42.2083 45.3061ZM52.2537 46.7281C51.9177 47.4001 51.7497 48.2101 51.7497 49.1581C51.7497 49.9261 51.8577 50.5981 52.0737 51.1741C52.2897 51.8341 52.6737 52.2901 53.2257 52.5421C53.5137 52.6861 53.8437 52.7581 54.2157 52.7581C54.9477 52.7581 55.5177 52.5061 55.9257 52.0021C56.2857 51.5581 56.5137 50.9641 56.6097 50.2201C56.6577 49.9321 56.6817 49.5781 56.6817 49.1581C56.6817 48.4261 56.5737 47.7601 56.3577 47.1601C56.1177 46.5001 55.7337 46.0441 55.2057 45.7921C54.8817 45.6601 54.5517 45.5941 54.2157 45.5941C53.2797 45.5941 52.6257 45.9721 52.2537 46.7281ZM56.8797 45.8821C57.5517 46.6501 57.8877 47.7421 57.8877 49.1581C57.8877 50.5741 57.5577 51.6781 56.8977 52.4701C56.2497 53.2501 55.3557 53.6401 54.2157 53.6401C53.0757 53.6401 52.1757 53.2501 51.5157 52.4701C50.8677 51.6901 50.5437 50.5921 50.5437 49.1761C50.5437 47.7481 50.8737 46.6501 51.5337 45.8821C52.1937 45.1021 53.0877 44.7121 54.2157 44.7121C55.3317 44.7121 56.2197 45.1021 56.8797 45.8821ZM61.5263 53.4421V44.8921H62.6783V45.1621V45.6841V46.2781V46.5121C62.9063 45.9001 63.3263 45.4381 63.9383 45.1261C64.5143 44.8501 65.0903 44.7121 65.6663 44.7121C66.3143 44.7121 66.8423 44.8381 67.2503 45.0901C67.6703 45.3541 67.9583 45.6601 68.1143 46.0081C68.2943 46.4281 68.4143 46.8421 68.4743 47.2501C68.4983 47.5861 68.5103 47.8021 68.5103 47.8981V48.5641V53.4421H67.3403V48.4201C67.3403 47.7481 67.2683 47.1781 67.1243 46.7101C66.9683 46.2661 66.6803 45.9661 66.2603 45.8101C66.0563 45.7261 65.7983 45.6841 65.4863 45.6841C64.6583 45.6841 64.0223 45.9061 63.5783 46.3501C63.1943 46.7341 62.9303 47.3221 62.7863 48.1141C62.7263 48.4981 62.6963 48.8821 62.6963 49.2661V53.4421H61.5263ZM77.5446 46.8361C77.2086 46.0201 76.4946 45.6121 75.4026 45.6121C73.9986 45.6121 73.2966 46.1101 73.2966 47.1061C73.2966 47.4661 73.4346 47.7601 73.7106 47.9881C73.9266 48.1921 74.2926 48.3421 74.8086 48.4381C75.0006 48.4981 75.2406 48.5521 75.5286 48.6001C76.5246 48.7801 77.2566 49.0621 77.7246 49.4461C78.1926 49.8181 78.4266 50.3521 78.4266 51.0481C78.4266 52.7761 77.2986 53.6401 75.0426 53.6401C74.3226 53.6401 73.6926 53.4961 73.1526 53.2081C72.5286 52.8721 72.1086 52.3201 71.8926 51.5521L72.7926 51.2101C72.9966 51.7501 73.2786 52.1401 73.6386 52.3801C74.0106 52.6201 74.5206 52.7401 75.1686 52.7401C76.6206 52.7401 77.3466 52.2541 77.3466 51.2821C77.3466 50.7541 77.1786 50.3761 76.8426 50.1481C76.5066 49.9321 75.8046 49.7161 74.7366 49.5001C74.1966 49.3801 73.6986 49.2061 73.2426 48.9781C72.8226 48.7861 72.5166 48.4441 72.3246 47.9521C72.2286 47.6881 72.1806 47.4001 72.1806 47.0881C72.1806 46.3561 72.4686 45.7801 73.0446 45.3601C73.6206 44.9281 74.3826 44.7121 75.3306 44.7121C76.1106 44.7121 76.7346 44.8441 77.2026 45.1081C77.6826 45.3601 78.0666 45.7861 78.3546 46.3861L77.5446 46.8361ZM83.3705 46.7281C83.0345 47.4001 82.8665 48.2101 82.8665 49.1581C82.8665 49.9261 82.9745 50.5981 83.1905 51.1741C83.4065 51.8341 83.7905 52.2901 84.3425 52.5421C84.6305 52.6861 84.9605 52.7581 85.3325 52.7581C86.0645 52.7581 86.6345 52.5061 87.0425 52.0021C87.4025 51.5581 87.6305 50.9641 87.7265 50.2201C87.7745 49.9321 87.7985 49.5781 87.7985 49.1581C87.7985 48.4261 87.6905 47.7601 87.4745 47.1601C87.2345 46.5001 86.8505 46.0441 86.3225 45.7921C85.9985 45.6601 85.6685 45.5941 85.3325 45.5941C84.3965 45.5941 83.7425 45.9721 83.3705 46.7281ZM87.9965 45.8821C88.6685 46.6501 89.0045 47.7421 89.0045 49.1581C89.0045 50.5741 88.6745 51.6781 88.0145 52.4701C87.3665 53.2501 86.4725 53.6401 85.3325 53.6401C84.1925 53.6401 83.2925 53.2501 82.6325 52.4701C81.9845 51.6901 81.6605 50.5921 81.6605 49.1761C81.6605 47.7481 81.9905 46.6501 82.6505 45.8821C83.3105 45.1021 84.2045 44.7121 85.3325 44.7121C86.4485 44.7121 87.3365 45.1021 87.9965 45.8821ZM93.8131 53.4421H92.6431V44.8921H93.7771L93.8131 46.2601C94.4131 45.2281 95.3191 44.7121 96.5311 44.7121C97.7911 44.7121 98.5891 45.3061 98.9251 46.4941C99.2011 45.9181 99.5911 45.4801 100.095 45.1801C100.611 44.8681 101.181 44.7121 101.805 44.7121C102.669 44.7121 103.323 45.0001 103.767 45.5761C104.127 46.0441 104.343 46.6921 104.415 47.5201C104.439 47.9761 104.451 48.3481 104.451 48.6361V53.4421H103.281V48.3841C103.281 47.5321 103.161 46.8601 102.921 46.3681C102.657 45.8521 102.213 45.5941 101.589 45.5941C101.133 45.5941 100.713 45.7381 100.329 46.0261C99.9451 46.3021 99.6451 46.6681 99.4291 47.1241C99.2251 47.5921 99.1231 48.0481 99.1231 48.4921V53.4421H97.9351V48.3841C97.9351 47.4481 97.8031 46.7521 97.5391 46.2961C97.2871 45.8281 96.8671 45.5941 96.2791 45.5941C95.7991 45.5941 95.3671 45.7381 94.9831 46.0261C94.6111 46.3021 94.3231 46.6741 94.1191 47.1421C93.9151 47.6101 93.8131 48.0841 93.8131 48.5641V53.4421ZM109.5 53.4421H108.33V44.8921H109.464L109.5 46.2601C110.1 45.2281 111.006 44.7121 112.218 44.7121C113.478 44.7121 114.276 45.3061 114.612 46.4941C114.888 45.9181 115.278 45.4801 115.782 45.1801C116.298 44.8681 116.868 44.7121 117.492 44.7121C118.356 44.7121 119.01 45.0001 119.454 45.5761C119.814 46.0441 120.03 46.6921 120.102 47.5201C120.126 47.9761 120.138 48.3481 120.138 48.6361V53.4421H118.968V48.3841C118.968 47.5321 118.848 46.8601 118.608 46.3681C118.344 45.8521 117.9 45.5941 117.276 45.5941C116.82 45.5941 116.4 45.7381 116.016 46.0261C115.632 46.3021 115.332 46.6681 115.116 47.1241C114.912 47.5921 114.81 48.0481 114.81 48.4921V53.4421H113.622V48.3841C113.622 47.4481 113.49 46.7521 113.226 46.2961C112.974 45.8281 112.554 45.5941 111.966 45.5941C111.486 45.5941 111.054 45.7381 110.67 46.0261C110.298 46.3021 110.01 46.6741 109.806 47.1421C109.602 47.6101 109.5 48.0841 109.5 48.5641V53.4421ZM129.254 52.4701C128.294 53.2501 127.274 53.6401 126.194 53.6401C125.462 53.6401 124.862 53.4421 124.394 53.0461C123.938 52.6501 123.71 52.0981 123.71 51.3901C123.71 50.8621 123.866 50.3881 124.178 49.9681C124.382 49.6921 124.802 49.4221 125.438 49.1581C125.798 49.0261 126.404 48.8821 127.256 48.7261C127.4 48.6901 127.766 48.6301 128.354 48.5461L129.182 48.4381V48.0781C129.182 47.1541 129.032 46.5181 128.732 46.1701C128.432 45.8101 127.91 45.6301 127.166 45.6301C126.146 45.6301 125.348 45.9901 124.772 46.7101C124.772 46.6981 124.532 46.4701 124.052 46.0261C124.748 45.1501 125.81 44.7121 127.238 44.7121C129.326 44.7121 130.37 45.7441 130.37 47.8081V53.4421H129.38L129.254 52.4701ZM129.182 49.2121L128.354 49.3561C127.454 49.5121 126.812 49.6321 126.428 49.7161C125.936 49.8481 125.54 50.0341 125.24 50.2741C124.964 50.4901 124.826 50.8081 124.826 51.2281C124.826 52.2961 125.354 52.8301 126.41 52.8301C127.298 52.8301 128.222 52.4221 129.182 51.6061V49.2121ZM138.428 53.1721C138.008 53.4481 137.516 53.5861 136.952 53.5861C136.208 53.5861 135.668 53.3641 135.332 52.9201C135.008 52.4641 134.846 51.7321 134.846 50.7241V45.7381H133.586V44.8921H134.936V42.1741L136.052 41.8681V44.8921H137.906V45.7381H136.052V51.2641C136.052 52.2121 136.436 52.6861 137.204 52.6861C137.456 52.6861 137.792 52.5901 138.212 52.3981L138.428 53.1721ZM141.576 53.4421V44.8921H142.746V53.4421H141.576ZM141.558 43.0741V41.5801H142.728V43.0741H141.558ZM148.135 46.7281C147.799 47.4001 147.631 48.2101 147.631 49.1581C147.631 49.9261 147.739 50.5981 147.955 51.1741C148.171 51.8341 148.555 52.2901 149.107 52.5421C149.395 52.6861 149.725 52.7581 150.097 52.7581C150.829 52.7581 151.399 52.5061 151.807 52.0021C152.167 51.5581 152.395 50.9641 152.491 50.2201C152.539 49.9321 152.563 49.5781 152.563 49.1581C152.563 48.4261 152.455 47.7601 152.239 47.1601C151.999 46.5001 151.615 46.0441 151.087 45.7921C150.763 45.6601 150.433 45.5941 150.097 45.5941C149.161 45.5941 148.507 45.9721 148.135 46.7281ZM152.761 45.8821C153.433 46.6501 153.769 47.7421 153.769 49.1581C153.769 50.5741 153.439 51.6781 152.779 52.4701C152.131 53.2501 151.237 53.6401 150.097 53.6401C148.957 53.6401 148.057 53.2501 147.397 52.4701C146.749 51.6901 146.425 50.5921 146.425 49.1761C146.425 47.7481 146.755 46.6501 147.415 45.8821C148.075 45.1021 148.969 44.7121 150.097 44.7121C151.213 44.7121 152.101 45.1021 152.761 45.8821ZM157.408 53.4421V44.8921H158.56V45.1621V45.6841V46.2781V46.5121C158.788 45.9001 159.208 45.4381 159.82 45.1261C160.396 44.8501 160.972 44.7121 161.548 44.7121C162.196 44.7121 162.724 44.8381 163.132 45.0901C163.552 45.3541 163.84 45.6601 163.996 46.0081C164.176 46.4281 164.296 46.8421 164.356 47.2501C164.38 47.5861 164.392 47.8021 164.392 47.8981V48.5641V53.4421H163.222V48.4201C163.222 47.7481 163.15 47.1781 163.006 46.7101C162.85 46.2661 162.562 45.9661 162.142 45.8101C161.938 45.7261 161.68 45.6841 161.368 45.6841C160.54 45.6841 159.904 45.9061 159.46 46.3501C159.076 46.7341 158.812 47.3221 158.668 48.1141C158.608 48.4981 158.578 48.8821 158.578 49.2661V53.4421H157.408ZM178.322 52.4161C178.778 52.1521 179.102 51.6241 179.294 50.8321C179.39 50.3761 179.438 49.8541 179.438 49.2661C179.438 47.7421 179.09 46.6801 178.394 46.0801C178.01 45.7561 177.536 45.5941 176.972 45.5941C176.264 45.5941 175.712 45.9301 175.316 46.6021C174.932 47.2621 174.74 48.1621 174.74 49.3021C174.74 50.3341 174.944 51.1681 175.352 51.8041C175.76 52.4401 176.306 52.7581 176.99 52.7581C177.506 52.7581 177.95 52.6441 178.322 52.4161ZM176.792 44.7121C178.088 44.7121 178.958 45.2221 179.402 46.2421V41.1301H180.59V53.4421H179.636L179.474 52.0021C179.258 52.5061 178.91 52.9081 178.43 53.2081C177.962 53.4961 177.428 53.6401 176.828 53.6401C175.82 53.6401 175.016 53.2441 174.416 52.4521C173.828 51.6601 173.534 50.5981 173.534 49.2661C173.534 47.8501 173.816 46.7401 174.38 45.9361C174.956 45.1201 175.76 44.7121 176.792 44.7121ZM190.186 48.4561C190.162 46.5481 189.4 45.5941 187.9 45.5941C187.132 45.5941 186.556 45.8761 186.172 46.4401C185.788 46.9681 185.56 47.6401 185.488 48.4561H190.186ZM190.528 45.8821C191.056 46.6261 191.32 47.5801 191.32 48.7441C191.32 48.9721 191.314 49.1341 191.302 49.2301H185.47C185.47 50.2501 185.662 51.0721 186.046 51.6961C186.466 52.4041 187.108 52.7581 187.972 52.7581C189.088 52.7581 189.808 52.2661 190.132 51.2821L191.05 51.4981C190.918 51.9541 190.69 52.3501 190.366 52.6861C190.054 53.0221 189.694 53.2621 189.286 53.4061C188.914 53.5381 188.488 53.6161 188.008 53.6401H187.972C186.7 53.6401 185.752 53.1841 185.128 52.2721C184.552 51.4561 184.264 50.4181 184.264 49.1581C184.264 47.8141 184.588 46.7401 185.236 45.9361C185.896 45.1201 186.796 44.7121 187.936 44.7121C189.1 44.7121 189.964 45.1021 190.528 45.8821ZM201.842 45.3061C202.406 44.9101 203.096 44.7121 203.912 44.7121C204.572 44.7121 205.19 44.8921 205.766 45.2521C206.366 45.6601 206.786 46.3501 207.026 47.3221L206.036 47.5921C205.844 46.9081 205.58 46.4041 205.244 46.0801C204.92 45.7561 204.494 45.5941 203.966 45.5941C203.114 45.5941 202.472 45.9061 202.04 46.5301C201.608 47.1541 201.392 48.0301 201.392 49.1581C201.392 50.2621 201.584 51.1261 201.968 51.7501C202.364 52.4221 202.988 52.7581 203.84 52.7581C204.944 52.7581 205.688 52.1101 206.072 50.8141L206.99 51.0841C206.798 51.9601 206.384 52.6201 205.748 53.0641C205.184 53.4481 204.542 53.6401 203.822 53.6401C202.658 53.6401 201.758 53.2441 201.122 52.4521C200.498 51.6481 200.186 50.5561 200.186 49.1761C200.186 47.3641 200.738 46.0741 201.842 45.3061ZM210.556 53.4421V44.8921H211.726V53.4421H210.556ZM210.538 43.0741V41.5801H211.708V43.0741H210.538ZM215.999 55.6741L216.701 55.0081C217.145 55.7401 217.943 56.1061 219.095 56.1061C220.667 56.1061 221.453 55.1401 221.453 53.2081V52.3621C220.805 53.2141 219.947 53.6401 218.879 53.6401C217.787 53.6401 216.935 53.2261 216.323 52.3981C215.723 51.5701 215.423 50.4541 215.423 49.0501C215.423 47.2981 215.933 46.0441 216.953 45.2881C217.481 44.9041 218.105 44.7121 218.825 44.7121C219.929 44.7121 220.841 45.1441 221.561 46.0081L221.633 44.8921H222.569V53.2801C222.569 54.4081 222.257 55.3141 221.633 55.9981C221.009 56.6821 220.139 57.0241 219.023 57.0241C217.547 57.0241 216.539 56.5741 215.999 55.6741ZM221.453 48.9061C221.453 47.8141 221.255 47.0101 220.859 46.4941C220.523 46.0501 220.103 45.7741 219.599 45.6661C219.407 45.6181 219.191 45.5941 218.951 45.5941C218.147 45.5941 217.547 45.9481 217.151 46.6561C216.779 47.2921 216.593 48.0781 216.593 49.0141C216.593 50.2021 216.797 51.1261 217.205 51.7861C217.625 52.4341 218.195 52.7581 218.915 52.7581C219.431 52.7581 219.893 52.6261 220.301 52.3621C220.757 52.0741 221.087 51.5221 221.291 50.7061C221.399 50.2741 221.453 49.7641 221.453 49.1761V48.9061ZM231.731 52.4701C230.771 53.2501 229.751 53.6401 228.671 53.6401C227.939 53.6401 227.339 53.4421 226.871 53.0461C226.415 52.6501 226.187 52.0981 226.187 51.3901C226.187 50.8621 226.343 50.3881 226.655 49.9681C226.859 49.6921 227.279 49.4221 227.915 49.1581C228.275 49.0261 228.881 48.8821 229.733 48.7261C229.877 48.6901 230.243 48.6301 230.831 48.5461L231.659 48.4381V48.0781C231.659 47.1541 231.509 46.5181 231.209 46.1701C230.909 45.8101 230.387 45.6301 229.643 45.6301C228.623 45.6301 227.825 45.9901 227.249 46.7101C227.249 46.6981 227.009 46.4701 226.529 46.0261C227.225 45.1501 228.287 44.7121 229.715 44.7121C231.803 44.7121 232.847 45.7441 232.847 47.8081V53.4421H231.857L231.731 52.4701ZM231.659 49.2121L230.831 49.3561C229.931 49.5121 229.289 49.6321 228.905 49.7161C228.413 49.8481 228.017 50.0341 227.717 50.2741C227.441 50.4901 227.303 50.8081 227.303 51.2281C227.303 52.2961 227.831 52.8301 228.887 52.8301C229.775 52.8301 230.699 52.4221 231.659 51.6061V49.2121ZM237.917 44.8921V46.4941C238.073 46.1341 238.295 45.8221 238.583 45.5581C238.871 45.2941 239.177 45.1141 239.501 45.0181C239.789 44.9341 240.107 44.8921 240.455 44.8921V45.9721C239.531 45.9721 238.877 46.2841 238.493 46.9081C238.133 47.4721 237.953 48.1681 237.953 48.9961V53.4421H236.765V44.8921H237.917ZM249.122 48.4561C249.098 46.5481 248.336 45.5941 246.836 45.5941C246.068 45.5941 245.492 45.8761 245.108 46.4401C244.724 46.9681 244.496 47.6401 244.424 48.4561H249.122ZM249.464 45.8821C249.992 46.6261 250.256 47.5801 250.256 48.7441C250.256 48.9721 250.25 49.1341 250.238 49.2301H244.406C244.406 50.2501 244.598 51.0721 244.982 51.6961C245.402 52.4041 246.044 52.7581 246.908 52.7581C248.024 52.7581 248.744 52.2661 249.068 51.2821L249.986 51.4981C249.854 51.9541 249.626 52.3501 249.302 52.6861C248.99 53.0221 248.63 53.2621 248.222 53.4061C247.85 53.5381 247.424 53.6161 246.944 53.6401H246.908C245.636 53.6401 244.688 53.1841 244.064 52.2721C243.488 51.4561 243.2 50.4181 243.2 49.1581C243.2 47.8141 243.524 46.7401 244.172 45.9361C244.832 45.1201 245.732 44.7121 246.872 44.7121C248.036 44.7121 248.9 45.1021 249.464 45.8821ZM257.953 53.1721C257.533 53.4481 257.041 53.5861 256.477 53.5861C255.733 53.5861 255.193 53.3641 254.857 52.9201C254.533 52.4641 254.371 51.7321 254.371 50.7241V45.7381H253.111V44.8921H254.461V42.1741L255.577 41.8681V44.8921H257.431V45.7381H255.577V51.2641C255.577 52.2121 255.961 52.6861 256.729 52.6861C256.981 52.6861 257.317 52.5901 257.737 52.3981L257.953 53.1721ZM265.114 53.1721C264.694 53.4481 264.202 53.5861 263.638 53.5861C262.894 53.5861 262.354 53.3641 262.018 52.9201C261.694 52.4641 261.532 51.7321 261.532 50.7241V45.7381H260.272V44.8921H261.622V42.1741L262.738 41.8681V44.8921H264.592V45.7381H262.738V51.2641C262.738 52.2121 263.122 52.6861 263.89 52.6861C264.142 52.6861 264.478 52.5901 264.898 52.3981L265.114 53.1721ZM273.805 48.4561C273.781 46.5481 273.019 45.5941 271.519 45.5941C270.751 45.5941 270.175 45.8761 269.791 46.4401C269.407 46.9681 269.179 47.6401 269.107 48.4561H273.805ZM274.147 45.8821C274.675 46.6261 274.939 47.5801 274.939 48.7441C274.939 48.9721 274.933 49.1341 274.921 49.2301H269.089C269.089 50.2501 269.281 51.0721 269.665 51.6961C270.085 52.4041 270.727 52.7581 271.591 52.7581C272.707 52.7581 273.427 52.2661 273.751 51.2821L274.669 51.4981C274.537 51.9541 274.309 52.3501 273.985 52.6861C273.673 53.0221 273.313 53.2621 272.905 53.4061C272.533 53.5381 272.107 53.6161 271.627 53.6401H271.591C270.319 53.6401 269.371 53.1841 268.747 52.2721C268.171 51.4561 267.883 50.4181 267.883 49.1581C267.883 47.8141 268.207 46.7401 268.855 45.9361C269.515 45.1201 270.415 44.7121 271.555 44.7121C272.719 44.7121 273.583 45.1021 274.147 45.8821ZM283.68 46.8361C283.344 46.0201 282.63 45.6121 281.538 45.6121C280.134 45.6121 279.432 46.1101 279.432 47.1061C279.432 47.4661 279.57 47.7601 279.846 47.9881C280.062 48.1921 280.428 48.3421 280.944 48.4381C281.136 48.4981 281.376 48.5521 281.664 48.6001C282.66 48.7801 283.392 49.0621 283.86 49.4461C284.328 49.8181 284.562 50.3521 284.562 51.0481C284.562 52.7761 283.434 53.6401 281.178 53.6401C280.458 53.6401 279.828 53.4961 279.288 53.2081C278.664 52.8721 278.244 52.3201 278.028 51.5521L278.928 51.2101C279.132 51.7501 279.414 52.1401 279.774 52.3801C280.146 52.6201 280.656 52.7401 281.304 52.7401C282.756 52.7401 283.482 52.2541 283.482 51.2821C283.482 50.7541 283.314 50.3761 282.978 50.1481C282.642 49.9321 281.94 49.7161 280.872 49.5001C280.332 49.3801 279.834 49.2061 279.378 48.9781C278.958 48.7861 278.652 48.4441 278.46 47.9521C278.364 47.6881 278.316 47.4001 278.316 47.0881C278.316 46.3561 278.604 45.7801 279.18 45.3601C279.756 44.9281 280.518 44.7121 281.466 44.7121C282.246 44.7121 282.87 44.8441 283.338 45.1081C283.818 45.3601 284.202 45.7861 284.49 46.3861L283.68 46.8361Z" fill="black"/>
<line x1="52.0154" y1="78.5408" x2="52.0154" y2="176.894" stroke="black"/>
<line x1="296.132" y1="167.488" x2="30.3974" y2="167.488" stroke="black"/>
<path d="M52.1853 93.3314C83.5075 99.3953 112.318 118.813 122.808 127.764C129.302 136.058 146.575 152.384 163.725 151.341C185.163 150.037 217.844 144.636 227.448 155.146" stroke="black" stroke-width="5"/>
</g>
<defs>
<filter id="filter0_d" x="0" y="0" width="333.568" height="217.442" filterUnits="userSpaceOnUse" color-interpolation-filters="sRGB">
<feFlood flood-opacity="0" result="BackgroundImageFix"/>
<feColorMatrix in="SourceAlpha" type="matrix" values="0 0 0 0 0 0 0 0 0 0 0 0 0 0 0 0 0 0 127 0"/>
<feOffset dy="4"/>
<feGaussianBlur stdDeviation="2"/>
<feColorMatrix type="matrix" values="0 0 0 0 0 0 0 0 0 0 0 0 0 0 0 0 0 0 0.25 0"/>
<feBlend mode="normal" in2="BackgroundImageFix" result="effect1_dropShadow"/>
<feBlend mode="normal" in="SourceGraphic" in2="effect1_dropShadow" result="shape"/>
</filter>
</defs>
</svg>
