<svg width="334" height="150" viewBox="0 0 334 150" fill="none" xmlns="http://www.w3.org/2000/svg">
<g filter="url(#filter0_d)">
<rect x="4" width="326" height="142" rx="20" fill="#A5DEE5"/>
</g>
<path d="M49.8215 16.778H54.0335C55.7855 16.778 57.1055 17.222 57.9935 18.11C58.8935 19.022 59.3435 20.6 59.3435 22.844C59.3435 25.748 58.5695 27.596 57.0215 28.388C56.2535 28.796 55.2395 29 53.9795 29H49.8215V16.778ZM51.0635 17.732V28.046H53.5835C55.2995 28.046 56.4935 27.644 57.1655 26.84C57.8255 26.024 58.1555 24.692 58.1555 22.844C58.1555 21.164 57.8735 19.904 57.3095 19.064C56.7215 18.176 55.6355 17.732 54.0515 17.732H51.0635ZM68.8005 24.014C68.7765 22.106 68.0145 21.152 66.5145 21.152C65.7465 21.152 65.1705 21.434 64.7865 21.998C64.4025 22.526 64.1745 23.198 64.1025 24.014H68.8005ZM69.1425 21.44C69.6705 22.184 69.9345 23.138 69.9345 24.302C69.9345 24.53 69.9285 24.692 69.9165 24.788H64.0845C64.0845 25.808 64.2765 26.63 64.6605 27.254C65.0805 27.962 65.7225 28.316 66.5865 28.316C67.7025 28.316 68.4225 27.824 68.7465 26.84L69.6645 27.056C69.5325 27.512 69.3045 27.908 68.9805 28.244C68.6685 28.58 68.3085 28.82 67.9005 28.964C67.5285 29.096 67.1025 29.174 66.6225 29.198H66.5865C65.3145 29.198 64.3665 28.742 63.7425 27.83C63.1665 27.014 62.8785 25.976 62.8785 24.716C62.8785 23.372 63.2025 22.298 63.8505 21.494C64.5105 20.678 65.4105 20.27 66.5505 20.27C67.7145 20.27 68.5785 20.66 69.1425 21.44ZM74.661 21.836C75.213 20.792 76.077 20.27 77.253 20.27C78.369 20.27 79.209 20.696 79.773 21.548C80.289 22.352 80.547 23.39 80.547 24.662C80.547 26.486 80.073 27.788 79.125 28.568C78.657 28.952 78.081 29.156 77.397 29.18C76.725 29.216 76.185 29.096 75.777 28.82C75.333 28.568 74.985 28.202 74.733 27.722V28.838V31.916H73.563V20.45H74.589L74.661 21.836ZM77.109 21.152C76.341 21.152 75.765 21.386 75.381 21.854C75.033 22.262 74.829 22.838 74.769 23.582C74.733 23.882 74.715 24.248 74.715 24.68C74.715 27.104 75.519 28.316 77.127 28.316C77.811 28.316 78.351 27.992 78.747 27.344C79.155 26.696 79.359 25.802 79.359 24.662C79.359 23.606 79.155 22.76 78.747 22.124C78.339 21.476 77.793 21.152 77.109 21.152ZM89.9104 20.45H91.0984V29H89.9464V27.398C89.7304 27.962 89.3404 28.406 88.7764 28.73C88.2124 29.042 87.6064 29.198 86.9584 29.198C86.2264 29.198 85.6564 29.042 85.2484 28.73C84.8644 28.454 84.5884 28.07 84.4204 27.578C84.2644 27.122 84.1744 26.63 84.1504 26.102C84.1384 25.958 84.1324 25.712 84.1324 25.364V20.45H85.3204V25.616C85.3204 26.516 85.4584 27.188 85.7344 27.632C86.0224 28.064 86.4964 28.28 87.1564 28.28C87.9604 28.28 88.6024 28.028 89.0824 27.524C89.4904 27.116 89.7484 26.63 89.8564 26.066C89.8924 25.838 89.9104 25.604 89.9104 25.364V20.45ZM95.4104 29V20.45H96.5804V29H95.4104ZM95.3924 18.632V17.138H96.5624V18.632H95.3924ZM105.696 22.394C105.36 21.578 104.646 21.17 103.554 21.17C102.15 21.17 101.448 21.668 101.448 22.664C101.448 23.024 101.586 23.318 101.862 23.546C102.078 23.75 102.444 23.9 102.96 23.996C103.152 24.056 103.392 24.11 103.68 24.158C104.676 24.338 105.408 24.62 105.876 25.004C106.344 25.376 106.578 25.91 106.578 26.606C106.578 28.334 105.45 29.198 103.194 29.198C102.474 29.198 101.844 29.054 101.304 28.766C100.68 28.43 100.26 27.878 100.044 27.11L100.944 26.768C101.148 27.308 101.43 27.698 101.79 27.938C102.162 28.178 102.672 28.298 103.32 28.298C104.772 28.298 105.498 27.812 105.498 26.84C105.498 26.312 105.33 25.934 104.994 25.706C104.658 25.49 103.956 25.274 102.888 25.058C102.348 24.938 101.85 24.764 101.394 24.536C100.974 24.344 100.668 24.002 100.476 23.51C100.38 23.246 100.332 22.958 100.332 22.646C100.332 21.914 100.62 21.338 101.196 20.918C101.772 20.486 102.534 20.27 103.482 20.27C104.262 20.27 104.886 20.402 105.354 20.666C105.834 20.918 106.218 21.344 106.506 21.944L105.696 22.394ZM119.766 28.73C119.346 29.006 118.854 29.144 118.29 29.144C117.546 29.144 117.006 28.922 116.67 28.478C116.346 28.022 116.184 27.29 116.184 26.282V21.296H114.924V20.45H116.274V17.732L117.39 17.426V20.45H119.244V21.296H117.39V26.822C117.39 27.77 117.774 28.244 118.542 28.244C118.794 28.244 119.13 28.148 119.55 27.956L119.766 28.73ZM123.939 20.45V22.052C124.095 21.692 124.317 21.38 124.605 21.116C124.893 20.852 125.199 20.672 125.523 20.576C125.811 20.492 126.129 20.45 126.477 20.45V21.53C125.553 21.53 124.899 21.842 124.515 22.466C124.155 23.03 123.975 23.726 123.975 24.554V29H122.787V20.45H123.939ZM130.932 22.286C130.596 22.958 130.428 23.768 130.428 24.716C130.428 25.484 130.536 26.156 130.752 26.732C130.968 27.392 131.352 27.848 131.904 28.1C132.192 28.244 132.522 28.316 132.894 28.316C133.626 28.316 134.196 28.064 134.604 27.56C134.964 27.116 135.192 26.522 135.288 25.778C135.336 25.49 135.36 25.136 135.36 24.716C135.36 23.984 135.252 23.318 135.036 22.718C134.796 22.058 134.412 21.602 133.884 21.35C133.56 21.218 133.23 21.152 132.894 21.152C131.958 21.152 131.304 21.53 130.932 22.286ZM135.558 21.44C136.23 22.208 136.566 23.3 136.566 24.716C136.566 26.132 136.236 27.236 135.576 28.028C134.928 28.808 134.034 29.198 132.894 29.198C131.754 29.198 130.854 28.808 130.194 28.028C129.546 27.248 129.222 26.15 129.222 24.734C129.222 23.306 129.552 22.208 130.212 21.44C130.872 20.66 131.766 20.27 132.894 20.27C134.01 20.27 134.898 20.66 135.558 21.44ZM140.294 29V20.45H141.464V29H140.294ZM140.276 18.632V17.138H141.446V18.632H140.276ZM150.58 22.394C150.244 21.578 149.53 21.17 148.438 21.17C147.034 21.17 146.332 21.668 146.332 22.664C146.332 23.024 146.47 23.318 146.746 23.546C146.962 23.75 147.328 23.9 147.844 23.996C148.036 24.056 148.276 24.11 148.564 24.158C149.56 24.338 150.292 24.62 150.76 25.004C151.228 25.376 151.462 25.91 151.462 26.606C151.462 28.334 150.334 29.198 148.078 29.198C147.358 29.198 146.728 29.054 146.188 28.766C145.564 28.43 145.144 27.878 144.928 27.11L145.828 26.768C146.032 27.308 146.314 27.698 146.674 27.938C147.046 28.178 147.556 28.298 148.204 28.298C149.656 28.298 150.382 27.812 150.382 26.84C150.382 26.312 150.214 25.934 149.878 25.706C149.542 25.49 148.84 25.274 147.772 25.058C147.232 24.938 146.734 24.764 146.278 24.536C145.858 24.344 145.552 24.002 145.36 23.51C145.264 23.246 145.216 22.958 145.216 22.646C145.216 21.914 145.504 21.338 146.08 20.918C146.656 20.486 147.418 20.27 148.366 20.27C149.146 20.27 149.77 20.402 150.238 20.666C150.718 20.918 151.102 21.344 151.39 21.944L150.58 22.394ZM161.716 29H160.546V20.45H161.68L161.716 21.818C162.316 20.786 163.222 20.27 164.434 20.27C165.694 20.27 166.492 20.864 166.828 22.052C167.104 21.476 167.494 21.038 167.998 20.738C168.514 20.426 169.084 20.27 169.708 20.27C170.572 20.27 171.226 20.558 171.67 21.134C172.03 21.602 172.246 22.25 172.318 23.078C172.342 23.534 172.354 23.906 172.354 24.194V29H171.184V23.942C171.184 23.09 171.064 22.418 170.824 21.926C170.56 21.41 170.116 21.152 169.492 21.152C169.036 21.152 168.616 21.296 168.232 21.584C167.848 21.86 167.548 22.226 167.332 22.682C167.128 23.15 167.026 23.606 167.026 24.05V29H165.838V23.942C165.838 23.006 165.706 22.31 165.442 21.854C165.19 21.386 164.77 21.152 164.182 21.152C163.702 21.152 163.27 21.296 162.886 21.584C162.514 21.86 162.226 22.232 162.022 22.7C161.818 23.168 161.716 23.642 161.716 24.122V29ZM177.655 22.286C177.319 22.958 177.151 23.768 177.151 24.716C177.151 25.484 177.259 26.156 177.475 26.732C177.691 27.392 178.075 27.848 178.627 28.1C178.915 28.244 179.245 28.316 179.617 28.316C180.349 28.316 180.919 28.064 181.327 27.56C181.687 27.116 181.915 26.522 182.011 25.778C182.059 25.49 182.083 25.136 182.083 24.716C182.083 23.984 181.975 23.318 181.759 22.718C181.519 22.058 181.135 21.602 180.607 21.35C180.283 21.218 179.953 21.152 179.617 21.152C178.681 21.152 178.027 21.53 177.655 22.286ZM182.281 21.44C182.953 22.208 183.289 23.3 183.289 24.716C183.289 26.132 182.959 27.236 182.299 28.028C181.651 28.808 180.757 29.198 179.617 29.198C178.477 29.198 177.577 28.808 176.917 28.028C176.269 27.248 175.945 26.15 175.945 24.734C175.945 23.306 176.275 22.208 176.935 21.44C177.595 20.66 178.489 20.27 179.617 20.27C180.733 20.27 181.621 20.66 182.281 21.44ZM187.017 29V20.45H188.187V29H187.017ZM186.999 18.632V17.138H188.169V18.632H186.999ZM197.303 22.394C196.967 21.578 196.253 21.17 195.161 21.17C193.757 21.17 193.055 21.668 193.055 22.664C193.055 23.024 193.193 23.318 193.469 23.546C193.685 23.75 194.051 23.9 194.567 23.996C194.759 24.056 194.999 24.11 195.287 24.158C196.283 24.338 197.015 24.62 197.483 25.004C197.951 25.376 198.185 25.91 198.185 26.606C198.185 28.334 197.057 29.198 194.801 29.198C194.081 29.198 193.451 29.054 192.911 28.766C192.287 28.43 191.867 27.878 191.651 27.11L192.551 26.768C192.755 27.308 193.037 27.698 193.397 27.938C193.769 28.178 194.279 28.298 194.927 28.298C196.379 28.298 197.105 27.812 197.105 26.84C197.105 26.312 196.937 25.934 196.601 25.706C196.265 25.49 195.563 25.274 194.495 25.058C193.955 24.938 193.457 24.764 193.001 24.536C192.581 24.344 192.275 24.002 192.083 23.51C191.987 23.246 191.939 22.958 191.939 22.646C191.939 21.914 192.227 21.338 192.803 20.918C193.379 20.486 194.141 20.27 195.089 20.27C195.869 20.27 196.493 20.402 196.961 20.666C197.441 20.918 197.825 21.344 198.113 21.944L197.303 22.394ZM212.794 20.45H213.928L210.652 29H209.59L206.386 20.45H207.664L210.166 27.74L212.794 20.45ZM218.453 22.286C218.117 22.958 217.949 23.768 217.949 24.716C217.949 25.484 218.057 26.156 218.273 26.732C218.489 27.392 218.873 27.848 219.425 28.1C219.713 28.244 220.043 28.316 220.415 28.316C221.147 28.316 221.717 28.064 222.125 27.56C222.485 27.116 222.713 26.522 222.809 25.778C222.857 25.49 222.881 25.136 222.881 24.716C222.881 23.984 222.773 23.318 222.557 22.718C222.317 22.058 221.933 21.602 221.405 21.35C221.081 21.218 220.751 21.152 220.415 21.152C219.479 21.152 218.825 21.53 218.453 22.286ZM223.079 21.44C223.751 22.208 224.087 23.3 224.087 24.716C224.087 26.132 223.757 27.236 223.097 28.028C222.449 28.808 221.555 29.198 220.415 29.198C219.275 29.198 218.375 28.808 217.715 28.028C217.067 27.248 216.743 26.15 216.743 24.734C216.743 23.306 217.073 22.208 217.733 21.44C218.393 20.66 219.287 20.27 220.415 20.27C221.531 20.27 222.419 20.66 223.079 21.44ZM233.45 20.45H234.638V29H233.486V27.398C233.27 27.962 232.88 28.406 232.316 28.73C231.752 29.042 231.146 29.198 230.498 29.198C229.766 29.198 229.196 29.042 228.788 28.73C228.404 28.454 228.128 28.07 227.96 27.578C227.804 27.122 227.714 26.63 227.69 26.102C227.678 25.958 227.672 25.712 227.672 25.364V20.45H228.86V25.616C228.86 26.516 228.998 27.188 229.274 27.632C229.562 28.064 230.036 28.28 230.696 28.28C231.5 28.28 232.142 28.028 232.622 27.524C233.03 27.116 233.288 26.63 233.396 26.066C233.432 25.838 233.45 25.604 233.45 25.364V20.45ZM244.008 22.394C243.672 21.578 242.958 21.17 241.866 21.17C240.462 21.17 239.76 21.668 239.76 22.664C239.76 23.024 239.898 23.318 240.174 23.546C240.39 23.75 240.756 23.9 241.272 23.996C241.464 24.056 241.704 24.11 241.992 24.158C242.988 24.338 243.72 24.62 244.188 25.004C244.656 25.376 244.89 25.91 244.89 26.606C244.89 28.334 243.762 29.198 241.506 29.198C240.786 29.198 240.156 29.054 239.616 28.766C238.992 28.43 238.572 27.878 238.356 27.11L239.256 26.768C239.46 27.308 239.742 27.698 240.102 27.938C240.474 28.178 240.984 28.298 241.632 28.298C243.084 28.298 243.81 27.812 243.81 26.84C243.81 26.312 243.642 25.934 243.306 25.706C242.97 25.49 242.268 25.274 241.2 25.058C240.66 24.938 240.162 24.764 239.706 24.536C239.286 24.344 238.98 24.002 238.788 23.51C238.692 23.246 238.644 22.958 238.644 22.646C238.644 21.914 238.932 21.338 239.508 20.918C240.084 20.486 240.846 20.27 241.794 20.27C242.574 20.27 243.198 20.402 243.666 20.666C244.146 20.918 244.53 21.344 244.818 21.944L244.008 22.394ZM259.212 28.028C258.252 28.808 257.232 29.198 256.152 29.198C255.42 29.198 254.82 29 254.352 28.604C253.896 28.208 253.668 27.656 253.668 26.948C253.668 26.42 253.824 25.946 254.136 25.526C254.34 25.25 254.76 24.98 255.396 24.716C255.756 24.584 256.362 24.44 257.214 24.284C257.358 24.248 257.724 24.188 258.312 24.104L259.14 23.996V23.636C259.14 22.712 258.99 22.076 258.69 21.728C258.39 21.368 257.868 21.188 257.124 21.188C256.104 21.188 255.306 21.548 254.73 22.268C254.73 22.256 254.49 22.028 254.01 21.584C254.706 20.708 255.768 20.27 257.196 20.27C259.284 20.27 260.328 21.302 260.328 23.366V29H259.338L259.212 28.028ZM259.14 24.77L258.312 24.914C257.412 25.07 256.77 25.19 256.386 25.274C255.894 25.406 255.498 25.592 255.198 25.832C254.922 26.048 254.784 26.366 254.784 26.786C254.784 27.854 255.312 28.388 256.368 28.388C257.256 28.388 258.18 27.98 259.14 27.164V24.77ZM269.719 20.45H270.853L267.577 29H266.515L263.311 20.45H264.589L267.091 27.74L269.719 20.45ZM279.59 24.014C279.566 22.106 278.804 21.152 277.304 21.152C276.536 21.152 275.96 21.434 275.576 21.998C275.192 22.526 274.964 23.198 274.892 24.014H279.59ZM279.932 21.44C280.46 22.184 280.724 23.138 280.724 24.302C280.724 24.53 280.718 24.692 280.706 24.788H274.874C274.874 25.808 275.066 26.63 275.45 27.254C275.87 27.962 276.512 28.316 277.376 28.316C278.492 28.316 279.212 27.824 279.536 26.84L280.454 27.056C280.322 27.512 280.094 27.908 279.77 28.244C279.458 28.58 279.098 28.82 278.69 28.964C278.318 29.096 277.892 29.174 277.412 29.198H277.376C276.104 29.198 275.156 28.742 274.532 27.83C273.956 27.014 273.668 25.976 273.668 24.716C273.668 23.372 273.992 22.298 274.64 21.494C275.3 20.678 276.2 20.27 277.34 20.27C278.504 20.27 279.368 20.66 279.932 21.44ZM283.975 21.314V20.45H290.239V21.26L285.145 28.154H290.221V29H283.795V28.208L288.835 21.314H283.975ZM106.789 39.49H108.409L105.853 42.19H105.079L106.789 39.49ZM107.725 47.014C107.701 45.106 106.939 44.152 105.439 44.152C104.671 44.152 104.095 44.434 103.711 44.998C103.327 45.526 103.099 46.198 103.027 47.014H107.725ZM108.067 44.44C108.595 45.184 108.859 46.138 108.859 47.302C108.859 47.53 108.853 47.692 108.841 47.788H103.009C103.009 48.808 103.201 49.63 103.585 50.254C104.005 50.962 104.647 51.316 105.511 51.316C106.627 51.316 107.347 50.824 107.671 49.84L108.589 50.056C108.457 50.512 108.229 50.908 107.905 51.244C107.593 51.58 107.233 51.82 106.825 51.964C106.453 52.096 106.027 52.174 105.547 52.198H105.511C104.239 52.198 103.291 51.742 102.667 50.83C102.091 50.014 101.803 48.976 101.803 47.716C101.803 46.372 102.127 45.298 102.775 44.494C103.435 43.678 104.335 43.27 105.475 43.27C106.639 43.27 107.503 43.66 108.067 44.44ZM113.82 43.864C114.384 43.468 115.074 43.27 115.89 43.27C116.55 43.27 117.168 43.45 117.744 43.81C118.344 44.218 118.764 44.908 119.004 45.88L118.014 46.15C117.822 45.466 117.558 44.962 117.222 44.638C116.898 44.314 116.472 44.152 115.944 44.152C115.092 44.152 114.45 44.464 114.018 45.088C113.586 45.712 113.37 46.588 113.37 47.716C113.37 48.82 113.562 49.684 113.946 50.308C114.342 50.98 114.966 51.316 115.818 51.316C116.922 51.316 117.666 50.668 118.05 49.372L118.968 49.642C118.776 50.518 118.362 51.178 117.726 51.622C117.162 52.006 116.52 52.198 115.8 52.198C114.636 52.198 113.736 51.802 113.1 51.01C112.476 50.206 112.164 49.114 112.164 47.734C112.164 45.922 112.716 44.632 113.82 43.864ZM123.865 45.286C123.529 45.958 123.361 46.768 123.361 47.716C123.361 48.484 123.469 49.156 123.685 49.732C123.901 50.392 124.285 50.848 124.837 51.1C125.125 51.244 125.455 51.316 125.827 51.316C126.559 51.316 127.129 51.064 127.537 50.56C127.897 50.116 128.125 49.522 128.221 48.778C128.269 48.49 128.293 48.136 128.293 47.716C128.293 46.984 128.185 46.318 127.969 45.718C127.729 45.058 127.345 44.602 126.817 44.35C126.493 44.218 126.163 44.152 125.827 44.152C124.891 44.152 124.237 44.53 123.865 45.286ZM128.491 44.44C129.163 45.208 129.499 46.3 129.499 47.716C129.499 49.132 129.169 50.236 128.509 51.028C127.861 51.808 126.967 52.198 125.827 52.198C124.687 52.198 123.787 51.808 123.127 51.028C122.479 50.248 122.155 49.15 122.155 47.734C122.155 46.306 122.485 45.208 123.145 44.44C123.805 43.66 124.699 43.27 125.827 43.27C126.943 43.27 127.831 43.66 128.491 44.44ZM133.138 52V43.45H134.29V43.72V44.242V44.836V45.07C134.518 44.458 134.938 43.996 135.55 43.684C136.126 43.408 136.702 43.27 137.278 43.27C137.926 43.27 138.454 43.396 138.862 43.648C139.282 43.912 139.57 44.218 139.726 44.566C139.906 44.986 140.026 45.4 140.086 45.808C140.11 46.144 140.122 46.36 140.122 46.456V47.122V52H138.952V46.978C138.952 46.306 138.88 45.736 138.736 45.268C138.58 44.824 138.292 44.524 137.872 44.368C137.668 44.284 137.41 44.242 137.098 44.242C136.27 44.242 135.634 44.464 135.19 44.908C134.806 45.292 134.542 45.88 134.398 46.672C134.338 47.056 134.308 47.44 134.308 47.824V52H133.138ZM145.43 45.286C145.094 45.958 144.926 46.768 144.926 47.716C144.926 48.484 145.034 49.156 145.25 49.732C145.466 50.392 145.85 50.848 146.402 51.1C146.69 51.244 147.02 51.316 147.392 51.316C148.124 51.316 148.694 51.064 149.102 50.56C149.462 50.116 149.69 49.522 149.786 48.778C149.834 48.49 149.858 48.136 149.858 47.716C149.858 46.984 149.75 46.318 149.534 45.718C149.294 45.058 148.91 44.602 148.382 44.35C148.058 44.218 147.728 44.152 147.392 44.152C146.456 44.152 145.802 44.53 145.43 45.286ZM150.056 44.44C150.728 45.208 151.064 46.3 151.064 47.716C151.064 49.132 150.734 50.236 150.074 51.028C149.426 51.808 148.532 52.198 147.392 52.198C146.252 52.198 145.352 51.808 144.692 51.028C144.044 50.248 143.72 49.15 143.72 47.734C143.72 46.306 144.05 45.208 144.71 44.44C145.37 43.66 146.264 43.27 147.392 43.27C148.508 43.27 149.396 43.66 150.056 44.44ZM155.873 52H154.703V43.45H155.837L155.873 44.818C156.473 43.786 157.379 43.27 158.591 43.27C159.851 43.27 160.649 43.864 160.985 45.052C161.261 44.476 161.651 44.038 162.155 43.738C162.671 43.426 163.241 43.27 163.865 43.27C164.729 43.27 165.383 43.558 165.827 44.134C166.187 44.602 166.403 45.25 166.475 46.078C166.499 46.534 166.511 46.906 166.511 47.194V52H165.341V46.942C165.341 46.09 165.221 45.418 164.981 44.926C164.717 44.41 164.273 44.152 163.649 44.152C163.193 44.152 162.773 44.296 162.389 44.584C162.005 44.86 161.705 45.226 161.489 45.682C161.285 46.15 161.183 46.606 161.183 47.05V52H159.995V46.942C159.995 46.006 159.863 45.31 159.599 44.854C159.347 44.386 158.927 44.152 158.339 44.152C157.859 44.152 157.427 44.296 157.043 44.584C156.671 44.86 156.383 45.232 156.179 45.7C155.975 46.168 155.873 46.642 155.873 47.122V52ZM170.48 52V43.45H171.65V52H170.48ZM170.462 41.632V40.138H171.632V41.632H170.462ZM180.765 45.394C180.429 44.578 179.715 44.17 178.623 44.17C177.219 44.17 176.517 44.668 176.517 45.664C176.517 46.024 176.655 46.318 176.931 46.546C177.147 46.75 177.513 46.9 178.029 46.996C178.221 47.056 178.461 47.11 178.749 47.158C179.745 47.338 180.477 47.62 180.945 48.004C181.413 48.376 181.647 48.91 181.647 49.606C181.647 51.334 180.519 52.198 178.263 52.198C177.543 52.198 176.913 52.054 176.373 51.766C175.749 51.43 175.329 50.878 175.113 50.11L176.013 49.768C176.217 50.308 176.499 50.698 176.859 50.938C177.231 51.178 177.741 51.298 178.389 51.298C179.841 51.298 180.567 50.812 180.567 49.84C180.567 49.312 180.399 48.934 180.063 48.706C179.727 48.49 179.025 48.274 177.957 48.058C177.417 47.938 176.919 47.764 176.463 47.536C176.043 47.344 175.737 47.002 175.545 46.51C175.449 46.246 175.401 45.958 175.401 45.646C175.401 44.914 175.689 44.338 176.265 43.918C176.841 43.486 177.603 43.27 178.551 43.27C179.331 43.27 179.955 43.402 180.423 43.666C180.903 43.918 181.287 44.344 181.575 44.944L180.765 45.394ZM189.867 39.49H191.487L188.931 42.19H188.157L189.867 39.49ZM190.803 47.014C190.779 45.106 190.017 44.152 188.517 44.152C187.749 44.152 187.173 44.434 186.789 44.998C186.405 45.526 186.177 46.198 186.105 47.014H190.803ZM191.145 44.44C191.673 45.184 191.937 46.138 191.937 47.302C191.937 47.53 191.931 47.692 191.919 47.788H186.087C186.087 48.808 186.279 49.63 186.663 50.254C187.083 50.962 187.725 51.316 188.589 51.316C189.705 51.316 190.425 50.824 190.749 49.84L191.667 50.056C191.535 50.512 191.307 50.908 190.983 51.244C190.671 51.58 190.311 51.82 189.903 51.964C189.531 52.096 189.105 52.174 188.625 52.198H188.589C187.317 52.198 186.369 51.742 185.745 50.83C185.169 50.014 184.881 48.976 184.881 47.716C184.881 46.372 185.205 45.298 185.853 44.494C186.513 43.678 187.413 43.27 188.553 43.27C189.717 43.27 190.581 43.66 191.145 44.44ZM208.057 45.448C208.669 46.204 208.975 47.104 208.975 48.148C208.975 49.132 208.747 49.942 208.291 50.578C207.799 51.274 207.145 51.742 206.329 51.982C205.861 52.114 205.387 52.18 204.907 52.18C202.939 52.18 201.589 51.262 200.857 49.426L201.901 49.012C202.213 49.696 202.627 50.236 203.143 50.632C203.659 51.016 204.217 51.208 204.817 51.208C205.789 51.208 206.521 50.902 207.013 50.29C207.493 49.714 207.733 49.024 207.733 48.22C207.733 47.44 207.511 46.756 207.067 46.168C206.599 45.556 205.927 45.25 205.051 45.25C204.127 45.25 203.221 45.598 202.333 46.294L201.559 45.79L202.369 39.778H208.219V40.84H203.467L202.891 44.854L202.927 44.836C203.635 44.452 204.361 44.26 205.105 44.26C206.437 44.26 207.421 44.656 208.057 45.448ZM218.39 41.236C217.934 40.768 217.394 40.534 216.77 40.534C216.146 40.534 215.6 40.768 215.132 41.236C214.676 41.692 214.34 42.328 214.124 43.144C213.896 43.936 213.782 44.872 213.782 45.952C213.782 48.1 214.226 49.624 215.114 50.524C215.57 50.992 216.116 51.226 216.752 51.226C217.388 51.226 217.934 51.004 218.39 50.56C218.846 50.104 219.182 49.474 219.398 48.67C219.602 47.878 219.704 46.972 219.704 45.952C219.704 43.72 219.266 42.148 218.39 41.236ZM219.956 50.452C219.236 51.616 218.168 52.198 216.752 52.198C215.348 52.198 214.286 51.616 213.566 50.452C212.858 49.312 212.504 47.812 212.504 45.952C212.504 44.068 212.858 42.544 213.566 41.38C214.31 40.156 215.372 39.544 216.752 39.544C218.132 39.544 219.194 40.156 219.938 41.38C220.646 42.544 221 44.068 221 45.952C221 47.836 220.652 49.336 219.956 50.452ZM237.724 51.388C237.184 51.916 236.29 52.18 235.042 52.18C233.698 52.18 232.624 51.76 231.82 50.92C231.016 50.08 230.524 48.808 230.344 47.104H229.21V46.384H230.272V45.862V45.34H229.21V44.638H230.326C230.494 42.934 230.974 41.656 231.766 40.804C232.57 39.952 233.65 39.526 235.006 39.526C236.014 39.526 236.842 39.754 237.49 40.21C238.162 40.678 238.636 41.536 238.912 42.784L237.796 43.036C237.664 42.496 237.52 42.058 237.364 41.722C237.184 41.362 236.92 41.062 236.572 40.822C236.236 40.618 235.732 40.516 235.06 40.516C233.932 40.516 233.104 40.882 232.576 41.614C232.072 42.334 231.748 43.342 231.604 44.638H234.664V45.34H231.55V45.862V46.384H234.664V47.104H231.604C231.76 48.484 232.12 49.516 232.684 50.2C233.248 50.872 234.04 51.208 235.06 51.208C235.708 51.208 236.2 51.106 236.536 50.902C236.908 50.698 237.19 50.428 237.382 50.092C237.562 49.744 237.748 49.324 237.94 48.832L238.948 49.156C238.66 50.14 238.252 50.884 237.724 51.388Z" fill="black"/>
<path d="M69.2305 87L65.0545 74.778H66.3505L68.7985 82.032L69.2665 83.436C69.4345 83.988 69.6265 84.576 69.8425 85.2C69.9385 84.9 70.1305 84.33 70.4185 83.49C70.7065 82.65 70.8745 82.164 70.9225 82.032L73.3345 74.778H74.5585L70.3825 87H69.2305ZM78.9512 80.286C78.6152 80.958 78.4472 81.768 78.4472 82.716C78.4472 83.484 78.5552 84.156 78.7712 84.732C78.9872 85.392 79.3712 85.848 79.9232 86.1C80.2112 86.244 80.5412 86.316 80.9132 86.316C81.6452 86.316 82.2152 86.064 82.6232 85.56C82.9832 85.116 83.2112 84.522 83.3072 83.778C83.3552 83.49 83.3792 83.136 83.3792 82.716C83.3792 81.984 83.2712 81.318 83.0552 80.718C82.8152 80.058 82.4312 79.602 81.9032 79.35C81.5792 79.218 81.2492 79.152 80.9132 79.152C79.9772 79.152 79.3232 79.53 78.9512 80.286ZM83.5772 79.44C84.2492 80.208 84.5852 81.3 84.5852 82.716C84.5852 84.132 84.2552 85.236 83.5952 86.028C82.9472 86.808 82.0532 87.198 80.9132 87.198C79.7732 87.198 78.8732 86.808 78.2132 86.028C77.5652 85.248 77.2412 84.15 77.2412 82.734C77.2412 81.306 77.5712 80.208 78.2312 79.44C78.8912 78.66 79.7852 78.27 80.9132 78.27C82.0292 78.27 82.9172 78.66 83.5772 79.44ZM93.9477 78.45H95.1357V87H93.9837V85.398C93.7677 85.962 93.3777 86.406 92.8137 86.73C92.2497 87.042 91.6437 87.198 90.9957 87.198C90.2637 87.198 89.6937 87.042 89.2857 86.73C88.9017 86.454 88.6257 86.07 88.4577 85.578C88.3017 85.122 88.2117 84.63 88.1877 84.102C88.1757 83.958 88.1697 83.712 88.1697 83.364V78.45H89.3577V83.616C89.3577 84.516 89.4957 85.188 89.7717 85.632C90.0597 86.064 90.5337 86.28 91.1937 86.28C91.9977 86.28 92.6397 86.028 93.1197 85.524C93.5277 85.116 93.7857 84.63 93.8937 84.066C93.9297 83.838 93.9477 83.604 93.9477 83.364V78.45ZM104.506 80.394C104.17 79.578 103.456 79.17 102.364 79.17C100.96 79.17 100.258 79.668 100.258 80.664C100.258 81.024 100.396 81.318 100.672 81.546C100.888 81.75 101.254 81.9 101.77 81.996C101.962 82.056 102.202 82.11 102.49 82.158C103.486 82.338 104.218 82.62 104.686 83.004C105.154 83.376 105.388 83.91 105.388 84.606C105.388 86.334 104.26 87.198 102.004 87.198C101.284 87.198 100.654 87.054 100.114 86.766C99.4897 86.43 99.0697 85.878 98.8537 85.11L99.7537 84.768C99.9577 85.308 100.24 85.698 100.6 85.938C100.972 86.178 101.482 86.298 102.13 86.298C103.582 86.298 104.308 85.812 104.308 84.84C104.308 84.312 104.14 83.934 103.804 83.706C103.468 83.49 102.766 83.274 101.698 83.058C101.158 82.938 100.66 82.764 100.204 82.536C99.7837 82.344 99.4777 82.002 99.2857 81.51C99.1897 81.246 99.1417 80.958 99.1417 80.646C99.1417 79.914 99.4297 79.338 100.006 78.918C100.582 78.486 101.344 78.27 102.292 78.27C103.072 78.27 103.696 78.402 104.164 78.666C104.644 78.918 105.028 79.344 105.316 79.944L104.506 80.394ZM119.709 86.028C118.749 86.808 117.729 87.198 116.649 87.198C115.917 87.198 115.317 87 114.849 86.604C114.393 86.208 114.165 85.656 114.165 84.948C114.165 84.42 114.321 83.946 114.633 83.526C114.837 83.25 115.257 82.98 115.893 82.716C116.253 82.584 116.859 82.44 117.711 82.284C117.855 82.248 118.221 82.188 118.809 82.104L119.637 81.996V81.636C119.637 80.712 119.487 80.076 119.187 79.728C118.887 79.368 118.365 79.188 117.621 79.188C116.601 79.188 115.803 79.548 115.227 80.268C115.227 80.256 114.987 80.028 114.507 79.584C115.203 78.708 116.265 78.27 117.693 78.27C119.781 78.27 120.825 79.302 120.825 81.366V87H119.835L119.709 86.028ZM119.637 82.77L118.809 82.914C117.909 83.07 117.267 83.19 116.883 83.274C116.391 83.406 115.995 83.592 115.695 83.832C115.419 84.048 115.281 84.366 115.281 84.786C115.281 85.854 115.809 86.388 116.865 86.388C117.753 86.388 118.677 85.98 119.637 85.164V82.77ZM130.217 78.45H131.351L128.075 87H127.013L123.809 78.45H125.087L127.589 85.74L130.217 78.45ZM140.088 82.014C140.064 80.106 139.302 79.152 137.802 79.152C137.034 79.152 136.458 79.434 136.074 79.998C135.69 80.526 135.462 81.198 135.39 82.014H140.088ZM140.43 79.44C140.958 80.184 141.222 81.138 141.222 82.302C141.222 82.53 141.216 82.692 141.204 82.788H135.372C135.372 83.808 135.564 84.63 135.948 85.254C136.368 85.962 137.01 86.316 137.874 86.316C138.99 86.316 139.71 85.824 140.034 84.84L140.952 85.056C140.82 85.512 140.592 85.908 140.268 86.244C139.956 86.58 139.596 86.82 139.188 86.964C138.816 87.096 138.39 87.174 137.91 87.198H137.874C136.602 87.198 135.654 86.742 135.03 85.83C134.454 85.014 134.166 83.976 134.166 82.716C134.166 81.372 134.49 80.298 135.138 79.494C135.798 78.678 136.698 78.27 137.838 78.27C139.002 78.27 139.866 78.66 140.43 79.44ZM144.473 79.314V78.45H150.737V79.26L145.643 86.154H150.719V87H144.293V86.208L149.333 79.314H144.473ZM159.506 74.526H160.694V77.802V79.782C161.186 78.774 162.086 78.27 163.394 78.27C164.414 78.27 165.212 78.672 165.788 79.476C166.376 80.28 166.67 81.39 166.67 82.806C166.67 84.15 166.37 85.218 165.77 86.01C165.182 86.802 164.36 87.198 163.304 87.198C162.68 87.198 162.128 87.066 161.648 86.802C161.168 86.526 160.82 86.142 160.604 85.65L160.442 87H159.506V74.526ZM161.81 79.602C161.342 79.962 161.012 80.502 160.82 81.222C160.712 81.642 160.658 82.116 160.658 82.644C160.658 85.116 161.498 86.352 163.178 86.352C163.886 86.352 164.444 86.022 164.852 85.362C165.26 84.69 165.464 83.79 165.464 82.662C165.464 81.642 165.248 80.802 164.816 80.142C164.396 79.482 163.844 79.152 163.16 79.152C162.656 79.152 162.206 79.302 161.81 79.602ZM175.439 86.028C174.479 86.808 173.459 87.198 172.379 87.198C171.647 87.198 171.047 87 170.579 86.604C170.123 86.208 169.895 85.656 169.895 84.948C169.895 84.42 170.051 83.946 170.363 83.526C170.567 83.25 170.987 82.98 171.623 82.716C171.983 82.584 172.589 82.44 173.441 82.284C173.585 82.248 173.951 82.188 174.539 82.104L175.367 81.996V81.636C175.367 80.712 175.217 80.076 174.917 79.728C174.617 79.368 174.095 79.188 173.351 79.188C172.331 79.188 171.533 79.548 170.957 80.268C170.957 80.256 170.717 80.028 170.237 79.584C170.933 78.708 171.995 78.27 173.423 78.27C175.511 78.27 176.555 79.302 176.555 81.366V87H175.565L175.439 86.028ZM175.367 82.77L174.539 82.914C173.639 83.07 172.997 83.19 172.613 83.274C172.121 83.406 171.725 83.592 171.425 83.832C171.149 84.048 171.011 84.366 171.011 84.786C171.011 85.854 171.539 86.388 172.595 86.388C173.483 86.388 174.407 85.98 175.367 85.164V82.77ZM180.599 87V78.45H181.769V87H180.599ZM180.581 76.632V75.138H181.751V76.632H180.581ZM190.885 80.394C190.549 79.578 189.835 79.17 188.743 79.17C187.339 79.17 186.637 79.668 186.637 80.664C186.637 81.024 186.775 81.318 187.051 81.546C187.267 81.75 187.633 81.9 188.149 81.996C188.341 82.056 188.581 82.11 188.869 82.158C189.865 82.338 190.597 82.62 191.065 83.004C191.533 83.376 191.767 83.91 191.767 84.606C191.767 86.334 190.639 87.198 188.383 87.198C187.663 87.198 187.033 87.054 186.493 86.766C185.869 86.43 185.449 85.878 185.233 85.11L186.133 84.768C186.337 85.308 186.619 85.698 186.979 85.938C187.351 86.178 187.861 86.298 188.509 86.298C189.961 86.298 190.687 85.812 190.687 84.84C190.687 84.312 190.519 83.934 190.183 83.706C189.847 83.49 189.145 83.274 188.077 83.058C187.537 82.938 187.039 82.764 186.583 82.536C186.163 82.344 185.857 82.002 185.665 81.51C185.569 81.246 185.521 80.958 185.521 80.646C185.521 79.914 185.809 79.338 186.385 78.918C186.961 78.486 187.723 78.27 188.671 78.27C189.451 78.27 190.075 78.402 190.543 78.666C191.023 78.918 191.407 79.344 191.695 79.944L190.885 80.394ZM200.437 80.394C200.101 79.578 199.387 79.17 198.295 79.17C196.891 79.17 196.189 79.668 196.189 80.664C196.189 81.024 196.327 81.318 196.603 81.546C196.819 81.75 197.185 81.9 197.701 81.996C197.893 82.056 198.133 82.11 198.421 82.158C199.417 82.338 200.149 82.62 200.617 83.004C201.085 83.376 201.319 83.91 201.319 84.606C201.319 86.334 200.191 87.198 197.935 87.198C197.215 87.198 196.585 87.054 196.045 86.766C195.421 86.43 195.001 85.878 194.785 85.11L195.685 84.768C195.889 85.308 196.171 85.698 196.531 85.938C196.903 86.178 197.413 86.298 198.061 86.298C199.513 86.298 200.239 85.812 200.239 84.84C200.239 84.312 200.071 83.934 199.735 83.706C199.399 83.49 198.697 83.274 197.629 83.058C197.089 82.938 196.591 82.764 196.135 82.536C195.715 82.344 195.409 82.002 195.217 81.51C195.121 81.246 195.073 80.958 195.073 80.646C195.073 79.914 195.361 79.338 195.937 78.918C196.513 78.486 197.275 78.27 198.223 78.27C199.003 78.27 199.627 78.402 200.095 78.666C200.575 78.918 200.959 79.344 201.247 79.944L200.437 80.394ZM210.475 82.014C210.451 80.106 209.689 79.152 208.189 79.152C207.421 79.152 206.845 79.434 206.461 79.998C206.077 80.526 205.849 81.198 205.777 82.014H210.475ZM210.817 79.44C211.345 80.184 211.609 81.138 211.609 82.302C211.609 82.53 211.603 82.692 211.591 82.788H205.759C205.759 83.808 205.951 84.63 206.335 85.254C206.755 85.962 207.397 86.316 208.261 86.316C209.377 86.316 210.097 85.824 210.421 84.84L211.339 85.056C211.207 85.512 210.979 85.908 210.655 86.244C210.343 86.58 209.983 86.82 209.575 86.964C209.203 87.096 208.777 87.174 208.297 87.198H208.261C206.989 87.198 206.041 86.742 205.417 85.83C204.841 85.014 204.553 83.976 204.553 82.716C204.553 81.372 204.877 80.298 205.525 79.494C206.185 78.678 207.085 78.27 208.225 78.27C209.389 78.27 210.253 78.66 210.817 79.44ZM216.317 78.45V80.052C216.473 79.692 216.695 79.38 216.983 79.116C217.271 78.852 217.577 78.672 217.901 78.576C218.189 78.492 218.507 78.45 218.855 78.45V79.53C217.931 79.53 217.277 79.842 216.893 80.466C216.533 81.03 216.353 81.726 216.353 82.554V87H215.165V78.45H216.317ZM232.975 78.45H234.109L230.833 87H229.771L226.567 78.45H227.845L230.347 85.74L232.975 78.45ZM238.634 80.286C238.298 80.958 238.13 81.768 238.13 82.716C238.13 83.484 238.238 84.156 238.454 84.732C238.67 85.392 239.054 85.848 239.606 86.1C239.894 86.244 240.224 86.316 240.596 86.316C241.328 86.316 241.898 86.064 242.306 85.56C242.666 85.116 242.894 84.522 242.99 83.778C243.038 83.49 243.062 83.136 243.062 82.716C243.062 81.984 242.954 81.318 242.738 80.718C242.498 80.058 242.114 79.602 241.586 79.35C241.262 79.218 240.932 79.152 240.596 79.152C239.66 79.152 239.006 79.53 238.634 80.286ZM243.26 79.44C243.932 80.208 244.268 81.3 244.268 82.716C244.268 84.132 243.938 85.236 243.278 86.028C242.63 86.808 241.736 87.198 240.596 87.198C239.456 87.198 238.556 86.808 237.896 86.028C237.248 85.248 236.924 84.15 236.924 82.734C236.924 81.306 237.254 80.208 237.914 79.44C238.574 78.66 239.468 78.27 240.596 78.27C241.712 78.27 242.6 78.66 243.26 79.44ZM252.011 86.73C251.591 87.006 251.099 87.144 250.535 87.144C249.791 87.144 249.251 86.922 248.915 86.478C248.591 86.022 248.429 85.29 248.429 84.282V79.296H247.169V78.45H248.519V75.732L249.635 75.426V78.45H251.489V79.296H249.635V84.822C249.635 85.77 250.019 86.244 250.787 86.244C251.039 86.244 251.375 86.148 251.795 85.956L252.011 86.73ZM256.184 78.45V80.052C256.34 79.692 256.562 79.38 256.85 79.116C257.138 78.852 257.444 78.672 257.768 78.576C258.056 78.492 258.374 78.45 258.722 78.45V79.53C257.798 79.53 257.144 79.842 256.76 80.466C256.4 81.03 256.22 81.726 256.22 82.554V87H255.032V78.45H256.184ZM267.389 82.014C267.365 80.106 266.603 79.152 265.103 79.152C264.335 79.152 263.759 79.434 263.375 79.998C262.991 80.526 262.763 81.198 262.691 82.014H267.389ZM267.731 79.44C268.259 80.184 268.523 81.138 268.523 82.302C268.523 82.53 268.517 82.692 268.505 82.788H262.673C262.673 83.808 262.865 84.63 263.249 85.254C263.669 85.962 264.311 86.316 265.175 86.316C266.291 86.316 267.011 85.824 267.335 84.84L268.253 85.056C268.121 85.512 267.893 85.908 267.569 86.244C267.257 86.58 266.897 86.82 266.489 86.964C266.117 87.096 265.691 87.174 265.211 87.198H265.175C263.903 87.198 262.955 86.742 262.331 85.83C261.755 85.014 261.467 83.976 261.467 82.716C261.467 81.372 261.791 80.298 262.439 79.494C263.099 78.678 263.999 78.27 265.139 78.27C266.303 78.27 267.167 78.66 267.731 79.44ZM69.3066 101.864C69.8706 101.468 70.5606 101.27 71.3766 101.27C72.0366 101.27 72.6546 101.45 73.2306 101.81C73.8306 102.218 74.2506 102.908 74.4906 103.88L73.5006 104.15C73.3086 103.466 73.0446 102.962 72.7086 102.638C72.3846 102.314 71.9586 102.152 71.4306 102.152C70.5786 102.152 69.9366 102.464 69.5046 103.088C69.0726 103.712 68.8566 104.588 68.8566 105.716C68.8566 106.82 69.0486 107.684 69.4326 108.308C69.8286 108.98 70.4526 109.316 71.3046 109.316C72.4086 109.316 73.1526 108.668 73.5366 107.372L74.4546 107.642C74.2626 108.518 73.8486 109.178 73.2126 109.622C72.6486 110.006 72.0066 110.198 71.2866 110.198C70.1226 110.198 69.2226 109.802 68.5866 109.01C67.9626 108.206 67.6506 107.114 67.6506 105.734C67.6506 103.922 68.2026 102.632 69.3066 101.864ZM79.352 103.286C79.016 103.958 78.848 104.768 78.848 105.716C78.848 106.484 78.956 107.156 79.172 107.732C79.388 108.392 79.772 108.848 80.324 109.1C80.612 109.244 80.942 109.316 81.314 109.316C82.046 109.316 82.616 109.064 83.024 108.56C83.384 108.116 83.612 107.522 83.708 106.778C83.756 106.49 83.78 106.136 83.78 105.716C83.78 104.984 83.672 104.318 83.456 103.718C83.216 103.058 82.832 102.602 82.304 102.35C81.98 102.218 81.65 102.152 81.314 102.152C80.378 102.152 79.724 102.53 79.352 103.286ZM83.978 102.44C84.65 103.208 84.986 104.3 84.986 105.716C84.986 107.132 84.656 108.236 83.996 109.028C83.348 109.808 82.454 110.198 81.314 110.198C80.174 110.198 79.274 109.808 78.614 109.028C77.966 108.248 77.642 107.15 77.642 105.734C77.642 104.306 77.972 103.208 78.632 102.44C79.292 101.66 80.186 101.27 81.314 101.27C82.43 101.27 83.318 101.66 83.978 102.44ZM88.6245 110V101.45H89.7765V101.72V102.242V102.836V103.07C90.0045 102.458 90.4245 101.996 91.0365 101.684C91.6125 101.408 92.1885 101.27 92.7645 101.27C93.4125 101.27 93.9405 101.396 94.3485 101.648C94.7685 101.912 95.0565 102.218 95.2125 102.566C95.3925 102.986 95.5125 103.4 95.5725 103.808C95.5965 104.144 95.6085 104.36 95.6085 104.456V105.122V110H94.4385V104.978C94.4385 104.306 94.3665 103.736 94.2225 103.268C94.0665 102.824 93.7785 102.524 93.3585 102.368C93.1545 102.284 92.8965 102.242 92.5845 102.242C91.7565 102.242 91.1205 102.464 90.6765 102.908C90.2925 103.292 90.0285 103.88 89.8845 104.672C89.8245 105.056 89.7945 105.44 89.7945 105.824V110H88.6245ZM104.643 103.394C104.307 102.578 103.593 102.17 102.501 102.17C101.097 102.17 100.395 102.668 100.395 103.664C100.395 104.024 100.533 104.318 100.809 104.546C101.025 104.75 101.391 104.9 101.907 104.996C102.099 105.056 102.339 105.11 102.627 105.158C103.623 105.338 104.355 105.62 104.823 106.004C105.291 106.376 105.525 106.91 105.525 107.606C105.525 109.334 104.397 110.198 102.141 110.198C101.421 110.198 100.791 110.054 100.251 109.766C99.6268 109.43 99.2068 108.878 98.9908 108.11L99.8908 107.768C100.095 108.308 100.377 108.698 100.737 108.938C101.109 109.178 101.619 109.298 102.267 109.298C103.719 109.298 104.445 108.812 104.445 107.84C104.445 107.312 104.277 106.934 103.941 106.706C103.605 106.49 102.903 106.274 101.835 106.058C101.295 105.938 100.797 105.764 100.341 105.536C99.9208 105.344 99.6148 105.002 99.4228 104.51C99.3268 104.246 99.2788 103.958 99.2788 103.646C99.2788 102.914 99.5668 102.338 100.143 101.918C100.719 101.486 101.481 101.27 102.429 101.27C103.209 101.27 103.833 101.402 104.301 101.666C104.781 101.918 105.165 102.344 105.453 102.944L104.643 103.394ZM110.469 103.286C110.133 103.958 109.965 104.768 109.965 105.716C109.965 106.484 110.073 107.156 110.289 107.732C110.505 108.392 110.889 108.848 111.441 109.1C111.729 109.244 112.059 109.316 112.431 109.316C113.163 109.316 113.733 109.064 114.141 108.56C114.501 108.116 114.729 107.522 114.825 106.778C114.873 106.49 114.897 106.136 114.897 105.716C114.897 104.984 114.789 104.318 114.573 103.718C114.333 103.058 113.949 102.602 113.421 102.35C113.097 102.218 112.767 102.152 112.431 102.152C111.495 102.152 110.841 102.53 110.469 103.286ZM115.095 102.44C115.767 103.208 116.103 104.3 116.103 105.716C116.103 107.132 115.773 108.236 115.113 109.028C114.465 109.808 113.571 110.198 112.431 110.198C111.291 110.198 110.391 109.808 109.731 109.028C109.083 108.248 108.759 107.15 108.759 105.734C108.759 104.306 109.089 103.208 109.749 102.44C110.409 101.66 111.303 101.27 112.431 101.27C113.547 101.27 114.435 101.66 115.095 102.44ZM120.911 110H119.741V101.45H120.875L120.911 102.818C121.511 101.786 122.417 101.27 123.629 101.27C124.889 101.27 125.687 101.864 126.023 103.052C126.299 102.476 126.689 102.038 127.193 101.738C127.709 101.426 128.279 101.27 128.903 101.27C129.767 101.27 130.421 101.558 130.865 102.134C131.225 102.602 131.441 103.25 131.513 104.078C131.537 104.534 131.549 104.906 131.549 105.194V110H130.379V104.942C130.379 104.09 130.259 103.418 130.019 102.926C129.755 102.41 129.311 102.152 128.687 102.152C128.231 102.152 127.811 102.296 127.427 102.584C127.043 102.86 126.743 103.226 126.527 103.682C126.323 104.15 126.221 104.606 126.221 105.05V110H125.033V104.942C125.033 104.006 124.901 103.31 124.637 102.854C124.385 102.386 123.965 102.152 123.377 102.152C122.897 102.152 122.465 102.296 122.081 102.584C121.709 102.86 121.421 103.232 121.217 103.7C121.013 104.168 120.911 104.642 120.911 105.122V110ZM136.598 110H135.428V101.45H136.562L136.598 102.818C137.198 101.786 138.104 101.27 139.316 101.27C140.576 101.27 141.374 101.864 141.71 103.052C141.986 102.476 142.376 102.038 142.88 101.738C143.396 101.426 143.966 101.27 144.59 101.27C145.454 101.27 146.108 101.558 146.552 102.134C146.912 102.602 147.128 103.25 147.2 104.078C147.224 104.534 147.236 104.906 147.236 105.194V110H146.066V104.942C146.066 104.09 145.946 103.418 145.706 102.926C145.442 102.41 144.998 102.152 144.374 102.152C143.918 102.152 143.498 102.296 143.114 102.584C142.73 102.86 142.43 103.226 142.214 103.682C142.01 104.15 141.908 104.606 141.908 105.05V110H140.72V104.942C140.72 104.006 140.588 103.31 140.324 102.854C140.072 102.386 139.652 102.152 139.064 102.152C138.584 102.152 138.152 102.296 137.768 102.584C137.396 102.86 137.108 103.232 136.904 103.7C136.7 104.168 136.598 104.642 136.598 105.122V110ZM156.353 109.028C155.393 109.808 154.373 110.198 153.293 110.198C152.561 110.198 151.961 110 151.493 109.604C151.037 109.208 150.809 108.656 150.809 107.948C150.809 107.42 150.965 106.946 151.277 106.526C151.481 106.25 151.901 105.98 152.537 105.716C152.897 105.584 153.503 105.44 154.355 105.284C154.499 105.248 154.865 105.188 155.453 105.104L156.281 104.996V104.636C156.281 103.712 156.131 103.076 155.831 102.728C155.531 102.368 155.009 102.188 154.265 102.188C153.245 102.188 152.447 102.548 151.871 103.268C151.871 103.256 151.631 103.028 151.151 102.584C151.847 101.708 152.909 101.27 154.337 101.27C156.425 101.27 157.469 102.302 157.469 104.366V110H156.479L156.353 109.028ZM156.281 105.77L155.453 105.914C154.553 106.07 153.911 106.19 153.527 106.274C153.035 106.406 152.639 106.592 152.339 106.832C152.063 107.048 151.925 107.366 151.925 107.786C151.925 108.854 152.453 109.388 153.509 109.388C154.397 109.388 155.321 108.98 156.281 108.164V105.77ZM165.527 109.73C165.107 110.006 164.615 110.144 164.051 110.144C163.307 110.144 162.767 109.922 162.431 109.478C162.107 109.022 161.945 108.29 161.945 107.282V102.296H160.685V101.45H162.035V98.732L163.151 98.426V101.45H165.005V102.296H163.151V107.822C163.151 108.77 163.535 109.244 164.303 109.244C164.555 109.244 164.891 109.148 165.311 108.956L165.527 109.73ZM168.674 110V101.45H169.844V110H168.674ZM168.656 99.632V98.138H169.826V99.632H168.656ZM175.234 103.286C174.898 103.958 174.73 104.768 174.73 105.716C174.73 106.484 174.838 107.156 175.054 107.732C175.27 108.392 175.654 108.848 176.206 109.1C176.494 109.244 176.824 109.316 177.196 109.316C177.928 109.316 178.498 109.064 178.906 108.56C179.266 108.116 179.494 107.522 179.59 106.778C179.638 106.49 179.662 106.136 179.662 105.716C179.662 104.984 179.554 104.318 179.338 103.718C179.098 103.058 178.714 102.602 178.186 102.35C177.862 102.218 177.532 102.152 177.196 102.152C176.26 102.152 175.606 102.53 175.234 103.286ZM179.86 102.44C180.532 103.208 180.868 104.3 180.868 105.716C180.868 107.132 180.538 108.236 179.878 109.028C179.23 109.808 178.336 110.198 177.196 110.198C176.056 110.198 175.156 109.808 174.496 109.028C173.848 108.248 173.524 107.15 173.524 105.734C173.524 104.306 173.854 103.208 174.514 102.44C175.174 101.66 176.068 101.27 177.196 101.27C178.312 101.27 179.2 101.66 179.86 102.44ZM184.506 110V101.45H185.658V101.72V102.242V102.836V103.07C185.886 102.458 186.306 101.996 186.918 101.684C187.494 101.408 188.07 101.27 188.646 101.27C189.294 101.27 189.822 101.396 190.23 101.648C190.65 101.912 190.938 102.218 191.094 102.566C191.274 102.986 191.394 103.4 191.454 103.808C191.478 104.144 191.49 104.36 191.49 104.456V105.122V110H190.32V104.978C190.32 104.306 190.248 103.736 190.104 103.268C189.948 102.824 189.66 102.524 189.24 102.368C189.036 102.284 188.778 102.242 188.466 102.242C187.638 102.242 187.002 102.464 186.558 102.908C186.174 103.292 185.91 103.88 185.766 104.672C185.706 105.056 185.676 105.44 185.676 105.824V110H184.506ZM205.42 108.974C205.876 108.71 206.2 108.182 206.392 107.39C206.488 106.934 206.536 106.412 206.536 105.824C206.536 104.3 206.188 103.238 205.492 102.638C205.108 102.314 204.634 102.152 204.07 102.152C203.362 102.152 202.81 102.488 202.414 103.16C202.03 103.82 201.838 104.72 201.838 105.86C201.838 106.892 202.042 107.726 202.45 108.362C202.858 108.998 203.404 109.316 204.088 109.316C204.604 109.316 205.048 109.202 205.42 108.974ZM203.89 101.27C205.186 101.27 206.056 101.78 206.5 102.8V97.688H207.688V110H206.734L206.572 108.56C206.356 109.064 206.008 109.466 205.528 109.766C205.06 110.054 204.526 110.198 203.926 110.198C202.918 110.198 202.114 109.802 201.514 109.01C200.926 108.218 200.632 107.156 200.632 105.824C200.632 104.408 200.914 103.298 201.478 102.494C202.054 101.678 202.858 101.27 203.89 101.27ZM217.284 105.014C217.26 103.106 216.498 102.152 214.998 102.152C214.23 102.152 213.654 102.434 213.27 102.998C212.886 103.526 212.658 104.198 212.586 105.014H217.284ZM217.626 102.44C218.154 103.184 218.418 104.138 218.418 105.302C218.418 105.53 218.412 105.692 218.4 105.788H212.568C212.568 106.808 212.76 107.63 213.144 108.254C213.564 108.962 214.206 109.316 215.07 109.316C216.186 109.316 216.906 108.824 217.23 107.84L218.148 108.056C218.016 108.512 217.788 108.908 217.464 109.244C217.152 109.58 216.792 109.82 216.384 109.964C216.012 110.096 215.586 110.174 215.106 110.198H215.07C213.798 110.198 212.85 109.742 212.226 108.83C211.65 108.014 211.362 106.976 211.362 105.716C211.362 104.372 211.686 103.298 212.334 102.494C212.994 101.678 213.894 101.27 215.034 101.27C216.198 101.27 217.062 101.66 217.626 102.44ZM234.539 103.448C235.151 104.204 235.457 105.104 235.457 106.148C235.457 107.132 235.229 107.942 234.773 108.578C234.281 109.274 233.627 109.742 232.811 109.982C232.343 110.114 231.869 110.18 231.389 110.18C229.421 110.18 228.071 109.262 227.339 107.426L228.383 107.012C228.695 107.696 229.109 108.236 229.625 108.632C230.141 109.016 230.699 109.208 231.299 109.208C232.271 109.208 233.003 108.902 233.495 108.29C233.975 107.714 234.215 107.024 234.215 106.22C234.215 105.44 233.993 104.756 233.549 104.168C233.081 103.556 232.409 103.25 231.533 103.25C230.609 103.25 229.703 103.598 228.815 104.294L228.041 103.79L228.851 97.778H234.701V98.84H229.949L229.373 102.854L229.409 102.836C230.117 102.452 230.843 102.26 231.587 102.26C232.919 102.26 233.903 102.656 234.539 103.448ZM246.059 103.448C246.671 104.204 246.977 105.104 246.977 106.148C246.977 107.132 246.749 107.942 246.293 108.578C245.801 109.274 245.147 109.742 244.331 109.982C243.863 110.114 243.389 110.18 242.909 110.18C240.941 110.18 239.591 109.262 238.859 107.426L239.903 107.012C240.215 107.696 240.629 108.236 241.145 108.632C241.661 109.016 242.219 109.208 242.819 109.208C243.791 109.208 244.523 108.902 245.015 108.29C245.495 107.714 245.735 107.024 245.735 106.22C245.735 105.44 245.513 104.756 245.069 104.168C244.601 103.556 243.929 103.25 243.053 103.25C242.129 103.25 241.223 103.598 240.335 104.294L239.561 103.79L240.371 97.778H246.221V98.84H241.469L240.893 102.854L240.929 102.836C241.637 102.452 242.363 102.26 243.107 102.26C244.439 102.26 245.423 102.656 246.059 103.448ZM264.528 107.102C264.528 107.882 264.78 108.482 265.284 108.902C265.536 109.118 265.836 109.226 266.184 109.226C266.664 109.226 267.048 109.022 267.336 108.614C267.636 108.194 267.786 107.69 267.786 107.102C267.786 106.31 267.546 105.716 267.066 105.32C266.802 105.116 266.508 105.014 266.184 105.014C265.68 105.014 265.278 105.218 264.978 105.626C264.678 106.022 264.528 106.514 264.528 107.102ZM268.434 105.716C268.614 106.172 268.704 106.634 268.704 107.102C268.704 108.218 268.326 109.04 267.57 109.568C267.174 109.856 266.712 110 266.184 110C265.656 110 265.188 109.862 264.78 109.586C264.384 109.31 264.09 108.95 263.898 108.506C263.718 108.086 263.628 107.624 263.628 107.12C263.628 106.376 263.838 105.71 264.258 105.122C264.702 104.522 265.344 104.222 266.184 104.222C266.7 104.222 267.156 104.36 267.552 104.636C267.96 104.912 268.254 105.272 268.434 105.716ZM256.464 100.622C256.464 101.222 256.608 101.726 256.896 102.134C257.196 102.542 257.592 102.746 258.084 102.746C258.576 102.746 258.966 102.542 259.254 102.134C259.554 101.726 259.704 101.222 259.704 100.622C259.704 99.842 259.464 99.248 258.984 98.84C258.72 98.636 258.42 98.534 258.084 98.534C257.592 98.534 257.196 98.738 256.896 99.146C256.608 99.542 256.464 100.034 256.464 100.622ZM260.352 99.254C260.532 99.698 260.622 100.16 260.622 100.64C260.622 101.72 260.244 102.542 259.488 103.106C259.092 103.394 258.624 103.538 258.084 103.538C257.316 103.538 256.698 103.262 256.23 102.71C255.762 102.146 255.528 101.462 255.528 100.658C255.528 99.554 255.918 98.726 256.698 98.174C257.106 97.898 257.568 97.76 258.084 97.76C258.612 97.76 259.074 97.898 259.47 98.174C259.866 98.45 260.16 98.81 260.352 99.254ZM256.698 109.568L267.012 97.634L267.66 98.192L257.346 110.126L256.698 109.568Z" fill="black"/>
<line x1="11" y1="64.5" x2="321" y2="64.5" stroke="#898989"/>
<defs>
<filter id="filter0_d" x="0" y="0" width="334" height="150" filterUnits="userSpaceOnUse" color-interpolation-filters="sRGB">
<feFlood flood-opacity="0" result="BackgroundImageFix"/>
<feColorMatrix in="SourceAlpha" type="matrix" values="0 0 0 0 0 0 0 0 0 0 0 0 0 0 0 0 0 0 127 0"/>
<feOffset dy="4"/>
<feGaussianBlur stdDeviation="2"/>
<feColorMatrix type="matrix" values="0 0 0 0 0 0 0 0 0 0 0 0 0 0 0 0 0 0 0.25 0"/>
<feBlend mode="normal" in2="BackgroundImageFix" result="effect1_dropShadow"/>
<feBlend mode="normal" in="SourceGraphic" in2="effect1_dropShadow" result="shape"/>
</filter>
</defs>
</svg>
