<svg width="360" height="423" viewBox="0 0 360 423" fill="none" xmlns="http://www.w3.org/2000/svg">
<path d="M360 0.230438C359.333 0.619553 358.631 1.03841 357.93 1.466C355.856 2.73189 353.838 4.05101 352.817 4.88698C352.604 5.06084 352.374 5.25204 352.129 5.455C351.421 6.04253 350.593 6.72853 349.742 7.37706C348.6 8.24696 347.371 9.0834 346.268 9.54767C340.737 11.8766 336.335 14.8719 331.627 19.0758C330.372 20.196 329.799 20.5185 329.29 20.8048L329.253 20.8253C328.802 21.0796 328.391 21.3164 327.354 22.3535C325.107 24.6 322.165 25.8165 319.293 27.0036L319.29 27.005C318.923 27.1567 318.557 27.308 318.194 27.4608C317.094 27.9242 315.915 28.2166 314.772 28.4999C314.614 28.5392 314.457 28.5782 314.301 28.6175C314.143 28.657 313.987 28.6968 313.832 28.7372C312.386 29.115 311.013 29.5607 309.785 30.4111C306.847 32.4445 303.724 33.5921 299.644 33.9807C296.444 34.2855 294.224 35.9978 291.845 37.8333L291.833 37.8423C289.47 39.6654 286.957 41.5981 283.267 41.9934C280.646 42.2743 277.605 43.2254 274.478 44.2855C273.963 44.46 273.446 44.6375 272.928 44.8152L272.918 44.8185C270.319 45.7107 267.709 46.6062 265.34 47.1478C263.374 47.5973 262.523 48.4614 261.642 49.3947L261.573 49.4675C260.678 50.4166 259.714 51.4391 257.626 51.9838C255.423 52.5585 253.097 52.9713 250.795 53.3799L250.467 53.438C250.14 53.4962 249.814 53.5543 249.489 53.613C246.754 54.1062 244.086 54.637 241.663 55.4727C237.068 57.057 231.984 58.0228 226.053 58.0228C223.935 58.0228 221.899 58.3896 219.817 58.7788L219.596 58.8201C217.598 59.1942 215.552 59.5769 213.421 59.6254C176.696 60.46 140.335 60.4579 103.705 59.6254C93.4732 59.3928 83.2259 59.4703 72.976 59.5479C67.8491 59.5867 62.7216 59.6255 57.5951 59.6255C54.1171 59.6255 50.1376 60.5504 46.224 61.8611C42.3163 63.1697 38.5056 64.8519 35.3728 66.3437C29.2162 69.2755 22.4831 74.2563 15.8128 79.4157C14.7389 80.2463 13.6666 81.0816 12.5988 81.9134L12.5939 81.9172C8.25286 85.299 3.9871 88.622 0 91.3315L0 423H360V0.230438Z" fill="#E0F9B5"/>
</svg>
