<svg width="344" height="184" viewBox="0 0 344 184" fill="none" xmlns="http://www.w3.org/2000/svg">
<path d="M18.3084 21H10.0084V7.42H11.3884V19.96H18.3084V21ZM27.5416 15.46C27.5149 13.34 26.6682 12.28 25.0016 12.28C24.1482 12.28 23.5082 12.5933 23.0816 13.22C22.6549 13.8067 22.4016 14.5533 22.3216 15.46H27.5416ZM27.9216 12.6C28.5082 13.4267 28.8016 14.4867 28.8016 15.78C28.8016 16.0333 28.7949 16.2133 28.7816 16.32H22.3016C22.3016 17.4533 22.5149 18.3667 22.9416 19.06C23.4082 19.8467 24.1216 20.24 25.0816 20.24C26.3216 20.24 27.1216 19.6933 27.4816 18.6L28.5016 18.84C28.3549 19.3467 28.1016 19.7867 27.7416 20.16C27.3949 20.5333 26.9949 20.8 26.5416 20.96C26.1282 21.1067 25.6549 21.1933 25.1216 21.22H25.0816C23.6682 21.22 22.6149 20.7133 21.9216 19.7C21.2816 18.7933 20.9616 17.64 20.9616 16.24C20.9616 14.7467 21.3216 13.5533 22.0416 12.66C22.7749 11.7533 23.7749 11.3 25.0416 11.3C26.3349 11.3 27.2949 11.7333 27.9216 12.6ZM38.5133 13.66C38.1399 12.7533 37.3466 12.3 36.1333 12.3C34.5733 12.3 33.7933 12.8533 33.7933 13.96C33.7933 14.36 33.9466 14.6867 34.2533 14.94C34.4933 15.1667 34.8999 15.3333 35.4733 15.44C35.6866 15.5067 35.9533 15.5667 36.2733 15.62C37.3799 15.82 38.1933 16.1333 38.7133 16.56C39.2333 16.9733 39.4933 17.5667 39.4933 18.34C39.4933 20.26 38.2399 21.22 35.7333 21.22C34.9333 21.22 34.2333 21.06 33.6333 20.74C32.9399 20.3667 32.4733 19.7533 32.2333 18.9L33.2333 18.52C33.4599 19.12 33.7733 19.5533 34.1733 19.82C34.5866 20.0867 35.1533 20.22 35.8733 20.22C37.4866 20.22 38.2933 19.68 38.2933 18.6C38.2933 18.0133 38.1066 17.5933 37.7333 17.34C37.3599 17.1 36.5799 16.86 35.3933 16.62C34.7933 16.4867 34.2399 16.2933 33.7333 16.04C33.2666 15.8267 32.9266 15.4467 32.7133 14.9C32.6066 14.6067 32.5533 14.2867 32.5533 13.94C32.5533 13.1267 32.8733 12.4867 33.5133 12.02C34.1533 11.54 34.9999 11.3 36.0533 11.3C36.9199 11.3 37.6133 11.4467 38.1333 11.74C38.6666 12.02 39.0933 12.4933 39.4133 13.16L38.5133 13.66ZM55.7263 11.5H56.9863L53.3463 21H52.1663L48.6063 11.5H50.0263L52.8063 19.6L55.7263 11.5ZM66.0781 19.92C65.0115 20.7867 63.8781 21.22 62.6781 21.22C61.8648 21.22 61.1981 21 60.6781 20.56C60.1715 20.12 59.9181 19.5067 59.9181 18.72C59.9181 18.1333 60.0915 17.6067 60.4381 17.14C60.6648 16.8333 61.1315 16.5333 61.8381 16.24C62.2381 16.0933 62.9115 15.9333 63.8581 15.76C64.0181 15.72 64.4248 15.6533 65.0781 15.56L65.9981 15.44V15.04C65.9981 14.0133 65.8315 13.3067 65.4981 12.92C65.1648 12.52 64.5848 12.32 63.7581 12.32C62.6248 12.32 61.7381 12.72 61.0981 13.52C61.0981 13.5067 60.8315 13.2533 60.2981 12.76C61.0715 11.7867 62.2515 11.3 63.8381 11.3C66.1581 11.3 67.3181 12.4467 67.3181 14.74V21H66.2181L66.0781 19.92ZM65.9981 16.3L65.0781 16.46C64.0781 16.6333 63.3648 16.7667 62.9381 16.86C62.3915 17.0067 61.9515 17.2133 61.6181 17.48C61.3115 17.72 61.1581 18.0733 61.1581 18.54C61.1581 19.7267 61.7448 20.32 62.9181 20.32C63.9048 20.32 64.9315 19.8667 65.9981 18.96V16.3ZM72.9513 11.5V13.28C73.1246 12.88 73.3713 12.5333 73.6913 12.24C74.0113 11.9467 74.3513 11.7467 74.7113 11.64C75.0313 11.5467 75.3846 11.5 75.7713 11.5V12.7C74.7446 12.7 74.0179 13.0467 73.5913 13.74C73.1913 14.3667 72.9913 15.14 72.9913 16.06V21H71.6713V11.5H72.9513ZM79.2409 21V11.5H80.5409V21H79.2409ZM79.2209 9.48V7.82H80.5209V9.48H79.2209ZM90.7695 19.92C89.7029 20.7867 88.5695 21.22 87.3695 21.22C86.5562 21.22 85.8895 21 85.3695 20.56C84.8629 20.12 84.6095 19.5067 84.6095 18.72C84.6095 18.1333 84.7829 17.6067 85.1295 17.14C85.3562 16.8333 85.8229 16.5333 86.5295 16.24C86.9295 16.0933 87.6029 15.9333 88.5495 15.76C88.7095 15.72 89.1162 15.6533 89.7695 15.56L90.6895 15.44V15.04C90.6895 14.0133 90.5229 13.3067 90.1895 12.92C89.8562 12.52 89.2762 12.32 88.4495 12.32C87.3162 12.32 86.4295 12.72 85.7895 13.52C85.7895 13.5067 85.5229 13.2533 84.9895 12.76C85.7629 11.7867 86.9429 11.3 88.5295 11.3C90.8495 11.3 92.0095 12.4467 92.0095 14.74V21H90.9095L90.7695 19.92ZM90.6895 16.3L89.7695 16.46C88.7695 16.6333 88.0562 16.7667 87.6295 16.86C87.0829 17.0067 86.6429 17.2133 86.3095 17.48C86.0029 17.72 85.8495 18.0733 85.8495 18.54C85.8495 19.7267 86.4362 20.32 87.6095 20.32C88.5962 20.32 89.6229 19.8667 90.6895 18.96V16.3ZM96.3827 7.14H97.7027V10.78V12.98C98.2493 11.86 99.2493 11.3 100.703 11.3C101.836 11.3 102.723 11.7467 103.363 12.64C104.016 13.5333 104.343 14.7667 104.343 16.34C104.343 17.8333 104.009 19.02 103.343 19.9C102.689 20.78 101.776 21.22 100.603 21.22C99.9093 21.22 99.296 21.0733 98.7627 20.78C98.2293 20.4733 97.8427 20.0467 97.6027 19.5L97.4227 21H96.3827V7.14ZM98.9427 12.78C98.4227 13.18 98.056 13.78 97.8427 14.58C97.7227 15.0467 97.6627 15.5733 97.6627 16.16C97.6627 18.9067 98.596 20.28 100.463 20.28C101.249 20.28 101.869 19.9133 102.323 19.18C102.776 18.4333 103.003 17.4333 103.003 16.18C103.003 15.0467 102.763 14.1133 102.283 13.38C101.816 12.6467 101.203 12.28 100.443 12.28C99.8827 12.28 99.3827 12.4467 98.9427 12.78ZM108.463 21V7.32H109.783V21H108.463ZM120.569 15.46C120.542 13.34 119.696 12.28 118.029 12.28C117.176 12.28 116.536 12.5933 116.109 13.22C115.682 13.8067 115.429 14.5533 115.349 15.46H120.569ZM120.949 12.6C121.536 13.4267 121.829 14.4867 121.829 15.78C121.829 16.0333 121.822 16.2133 121.809 16.32H115.329C115.329 17.4533 115.542 18.3667 115.969 19.06C116.436 19.8467 117.149 20.24 118.109 20.24C119.349 20.24 120.149 19.6933 120.509 18.6L121.529 18.84C121.382 19.3467 121.129 19.7867 120.769 20.16C120.422 20.5333 120.022 20.8 119.569 20.96C119.156 21.1067 118.682 21.1933 118.149 21.22H118.109C116.696 21.22 115.642 20.7133 114.949 19.7C114.309 18.7933 113.989 17.64 113.989 16.24C113.989 14.7467 114.349 13.5533 115.069 12.66C115.802 11.7533 116.802 11.3 118.069 11.3C119.362 11.3 120.322 11.7333 120.949 12.6ZM131.541 13.66C131.167 12.7533 130.374 12.3 129.161 12.3C127.601 12.3 126.821 12.8533 126.821 13.96C126.821 14.36 126.974 14.6867 127.281 14.94C127.521 15.1667 127.927 15.3333 128.501 15.44C128.714 15.5067 128.981 15.5667 129.301 15.62C130.407 15.82 131.221 16.1333 131.741 16.56C132.261 16.9733 132.521 17.5667 132.521 18.34C132.521 20.26 131.267 21.22 128.761 21.22C127.961 21.22 127.261 21.06 126.661 20.74C125.967 20.3667 125.501 19.7533 125.261 18.9L126.261 18.52C126.487 19.12 126.801 19.5533 127.201 19.82C127.614 20.0867 128.181 20.22 128.901 20.22C130.514 20.22 131.321 19.68 131.321 18.6C131.321 18.0133 131.134 17.5933 130.761 17.34C130.387 17.1 129.607 16.86 128.421 16.62C127.821 16.4867 127.267 16.2933 126.761 16.04C126.294 15.8267 125.954 15.4467 125.741 14.9C125.634 14.6067 125.581 14.2867 125.581 13.94C125.581 13.1267 125.901 12.4867 126.541 12.02C127.181 11.54 128.027 11.3 129.081 11.3C129.947 11.3 130.641 11.4467 131.161 11.74C131.694 12.02 132.121 12.4933 132.441 13.16L131.541 13.66ZM143.634 16.16C143.634 17.44 143.847 18.44 144.274 19.16C144.7 19.88 145.294 20.24 146.054 20.24C147.854 20.24 148.754 18.94 148.754 16.34C148.754 15.42 148.654 14.6333 148.454 13.98C148.214 13.2733 147.8 12.78 147.214 12.5C146.88 12.3533 146.507 12.28 146.094 12.28C145.347 12.28 144.747 12.64 144.294 13.36C143.854 14.0667 143.634 15 143.634 16.16ZM148.834 13L148.954 11.5H150.054V24.24H148.734V20.88V19.56C148.187 20.6667 147.234 21.22 145.874 21.22C145.1 21.22 144.434 21 143.874 20.56C143.327 20.12 142.927 19.52 142.674 18.76C142.42 18.04 142.294 17.1867 142.294 16.2C142.294 14.24 142.827 12.8333 143.894 11.98C144.427 11.5267 145.094 11.3 145.894 11.3C147.36 11.3 148.34 11.8667 148.834 13ZM160.778 11.5H162.098V21H160.818V19.22C160.578 19.8467 160.145 20.34 159.518 20.7C158.892 21.0467 158.218 21.22 157.498 21.22C156.685 21.22 156.052 21.0467 155.598 20.7C155.172 20.3933 154.865 19.9667 154.678 19.42C154.505 18.9133 154.405 18.3667 154.378 17.78C154.365 17.62 154.358 17.3467 154.358 16.96V11.5H155.678V17.24C155.678 18.24 155.832 18.9867 156.138 19.48C156.458 19.96 156.985 20.2 157.718 20.2C158.612 20.2 159.325 19.92 159.858 19.36C160.312 18.9067 160.598 18.3667 160.718 17.74C160.758 17.4867 160.778 17.2267 160.778 16.96V11.5ZM173.049 15.46C173.023 13.34 172.176 12.28 170.509 12.28C169.656 12.28 169.016 12.5933 168.589 13.22C168.163 13.8067 167.909 14.5533 167.829 15.46H173.049ZM173.429 12.6C174.016 13.4267 174.309 14.4867 174.309 15.78C174.309 16.0333 174.303 16.2133 174.289 16.32H167.809C167.809 17.4533 168.023 18.3667 168.449 19.06C168.916 19.8467 169.629 20.24 170.589 20.24C171.829 20.24 172.629 19.6933 172.989 18.6L174.009 18.84C173.863 19.3467 173.609 19.7867 173.249 20.16C172.903 20.5333 172.503 20.8 172.049 20.96C171.636 21.1067 171.163 21.1933 170.629 21.22H170.589C169.176 21.22 168.123 20.7133 167.429 19.7C166.789 18.7933 166.469 17.64 166.469 16.24C166.469 14.7467 166.829 13.5533 167.549 12.66C168.283 11.7533 169.283 11.3 170.549 11.3C171.843 11.3 172.803 11.7333 173.429 12.6ZM190.621 11.5H191.881L188.241 21H187.061L183.501 11.5H184.921L187.701 19.6L190.621 11.5ZM196.908 13.54C196.535 14.2867 196.348 15.1867 196.348 16.24C196.348 17.0933 196.468 17.84 196.708 18.48C196.948 19.2133 197.375 19.72 197.988 20C198.308 20.16 198.675 20.24 199.088 20.24C199.902 20.24 200.535 19.96 200.988 19.4C201.388 18.9067 201.642 18.2467 201.748 17.42C201.802 17.1 201.828 16.7067 201.828 16.24C201.828 15.4267 201.708 14.6867 201.468 14.02C201.202 13.2867 200.775 12.78 200.188 12.5C199.828 12.3533 199.462 12.28 199.088 12.28C198.048 12.28 197.322 12.7 196.908 13.54ZM202.048 12.6C202.795 13.4533 203.168 14.6667 203.168 16.24C203.168 17.8133 202.802 19.04 202.068 19.92C201.348 20.7867 200.355 21.22 199.088 21.22C197.822 21.22 196.822 20.7867 196.088 19.92C195.368 19.0533 195.008 17.8333 195.008 16.26C195.008 14.6733 195.375 13.4533 196.108 12.6C196.842 11.7333 197.835 11.3 199.088 11.3C200.328 11.3 201.315 11.7333 202.048 12.6ZM213.571 11.5H214.891V21H213.611V19.22C213.371 19.8467 212.938 20.34 212.311 20.7C211.685 21.0467 211.011 21.22 210.291 21.22C209.478 21.22 208.845 21.0467 208.391 20.7C207.965 20.3933 207.658 19.9667 207.471 19.42C207.298 18.9133 207.198 18.3667 207.171 17.78C207.158 17.62 207.151 17.3467 207.151 16.96V11.5H208.471V17.24C208.471 18.24 208.625 18.9867 208.931 19.48C209.251 19.96 209.778 20.2 210.511 20.2C211.405 20.2 212.118 19.92 212.651 19.36C213.105 18.9067 213.391 18.3667 213.511 17.74C213.551 17.4867 213.571 17.2267 213.571 16.96V11.5ZM225.302 13.66C224.929 12.7533 224.136 12.3 222.922 12.3C221.362 12.3 220.582 12.8533 220.582 13.96C220.582 14.36 220.736 14.6867 221.042 14.94C221.282 15.1667 221.689 15.3333 222.262 15.44C222.476 15.5067 222.742 15.5667 223.062 15.62C224.169 15.82 224.982 16.1333 225.502 16.56C226.022 16.9733 226.282 17.5667 226.282 18.34C226.282 20.26 225.029 21.22 222.522 21.22C221.722 21.22 221.022 21.06 220.422 20.74C219.729 20.3667 219.262 19.7533 219.022 18.9L220.022 18.52C220.249 19.12 220.562 19.5533 220.962 19.82C221.376 20.0867 221.942 20.22 222.662 20.22C224.276 20.22 225.082 19.68 225.082 18.6C225.082 18.0133 224.896 17.5933 224.522 17.34C224.149 17.1 223.369 16.86 222.182 16.62C221.582 16.4867 221.029 16.2933 220.522 16.04C220.056 15.8267 219.716 15.4467 219.502 14.9C219.396 14.6067 219.342 14.2867 219.342 13.94C219.342 13.1267 219.662 12.4867 220.302 12.02C220.942 11.54 221.789 11.3 222.842 11.3C223.709 11.3 224.402 11.4467 224.922 11.74C225.456 12.02 225.882 12.4933 226.202 13.16L225.302 13.66ZM242.095 13.66C241.722 12.7533 240.929 12.3 239.715 12.3C238.155 12.3 237.375 12.8533 237.375 13.96C237.375 14.36 237.529 14.6867 237.835 14.94C238.075 15.1667 238.482 15.3333 239.055 15.44C239.269 15.5067 239.535 15.5667 239.855 15.62C240.962 15.82 241.775 16.1333 242.295 16.56C242.815 16.9733 243.075 17.5667 243.075 18.34C243.075 20.26 241.822 21.22 239.315 21.22C238.515 21.22 237.815 21.06 237.215 20.74C236.522 20.3667 236.055 19.7533 235.815 18.9L236.815 18.52C237.042 19.12 237.355 19.5533 237.755 19.82C238.169 20.0867 238.735 20.22 239.455 20.22C241.069 20.22 241.875 19.68 241.875 18.6C241.875 18.0133 241.689 17.5933 241.315 17.34C240.942 17.1 240.162 16.86 238.975 16.62C238.375 16.4867 237.822 16.2933 237.315 16.04C236.849 15.8267 236.509 15.4467 236.295 14.9C236.189 14.6067 236.135 14.2867 236.135 13.94C236.135 13.1267 236.455 12.4867 237.095 12.02C237.735 11.54 238.582 11.3 239.635 11.3C240.502 11.3 241.195 11.4467 241.715 11.74C242.249 12.02 242.675 12.4933 242.995 13.16L242.095 13.66ZM248.569 13.54C248.195 14.2867 248.009 15.1867 248.009 16.24C248.009 17.0933 248.129 17.84 248.369 18.48C248.609 19.2133 249.035 19.72 249.649 20C249.969 20.16 250.335 20.24 250.749 20.24C251.562 20.24 252.195 19.96 252.649 19.4C253.049 18.9067 253.302 18.2467 253.409 17.42C253.462 17.1 253.489 16.7067 253.489 16.24C253.489 15.4267 253.369 14.6867 253.129 14.02C252.862 13.2867 252.435 12.78 251.849 12.5C251.489 12.3533 251.122 12.28 250.749 12.28C249.709 12.28 248.982 12.7 248.569 13.54ZM253.709 12.6C254.455 13.4533 254.829 14.6667 254.829 16.24C254.829 17.8133 254.462 19.04 253.729 19.92C253.009 20.7867 252.015 21.22 250.749 21.22C249.482 21.22 248.482 20.7867 247.749 19.92C247.029 19.0533 246.669 17.8333 246.669 16.26C246.669 14.6733 247.035 13.4533 247.769 12.6C248.502 11.7333 249.495 11.3 250.749 11.3C251.989 11.3 252.975 11.7333 253.709 12.6ZM265.231 11.5H266.551V21H265.271V19.22C265.031 19.8467 264.598 20.34 263.971 20.7C263.345 21.0467 262.671 21.22 261.951 21.22C261.138 21.22 260.505 21.0467 260.051 20.7C259.625 20.3933 259.318 19.9667 259.131 19.42C258.958 18.9133 258.858 18.3667 258.831 17.78C258.818 17.62 258.811 17.3467 258.811 16.96V11.5H260.131V17.24C260.131 18.24 260.285 18.9867 260.591 19.48C260.911 19.96 261.438 20.2 262.171 20.2C263.065 20.2 263.778 19.92 264.311 19.36C264.765 18.9067 265.051 18.3667 265.171 17.74C265.211 17.4867 265.231 17.2267 265.231 16.96V11.5ZM273.563 13.12C273.109 13.6267 272.816 14.3267 272.683 15.22C272.616 15.6867 272.583 16.12 272.583 16.52V21H271.263V7.34H272.583V11.24V13C273.303 11.8667 274.389 11.3 275.843 11.3C276.629 11.3 277.289 11.4733 277.823 11.82C278.249 12.1267 278.576 12.56 278.803 13.12C278.976 13.5867 279.089 14.1267 279.143 14.74C279.156 14.9133 279.163 15.1933 279.163 15.58V21H277.843V15.5C277.843 14.3933 277.669 13.58 277.323 13.06C276.989 12.54 276.429 12.28 275.643 12.28C274.749 12.28 274.056 12.56 273.563 13.12ZM289.277 19.92C288.211 20.7867 287.077 21.22 285.877 21.22C285.064 21.22 284.397 21 283.877 20.56C283.371 20.12 283.117 19.5067 283.117 18.72C283.117 18.1333 283.291 17.6067 283.637 17.14C283.864 16.8333 284.331 16.5333 285.037 16.24C285.437 16.0933 286.111 15.9333 287.057 15.76C287.217 15.72 287.624 15.6533 288.277 15.56L289.197 15.44V15.04C289.197 14.0133 289.031 13.3067 288.697 12.92C288.364 12.52 287.784 12.32 286.957 12.32C285.824 12.32 284.937 12.72 284.297 13.52C284.297 13.5067 284.031 13.2533 283.497 12.76C284.271 11.7867 285.451 11.3 287.037 11.3C289.357 11.3 290.517 12.4467 290.517 14.74V21H289.417L289.277 19.92ZM289.197 16.3L288.277 16.46C287.277 16.6333 286.564 16.7667 286.137 16.86C285.591 17.0067 285.151 17.2133 284.817 17.48C284.511 17.72 284.357 18.0733 284.357 18.54C284.357 19.7267 284.944 20.32 286.117 20.32C287.104 20.32 288.131 19.8667 289.197 18.96V16.3ZM295.01 21V11.5H296.31V21H295.01ZM294.99 9.48V7.82H296.29V9.48H294.99ZM305.279 20.7C304.812 21.0067 304.266 21.16 303.639 21.16C302.812 21.16 302.212 20.9133 301.839 20.42C301.479 19.9133 301.299 19.1 301.299 17.98V12.44H299.899V11.5H301.399V8.48L302.639 8.14V11.5H304.699V12.44H302.639V18.58C302.639 19.6333 303.066 20.16 303.919 20.16C304.199 20.16 304.572 20.0533 305.039 19.84L305.279 20.7ZM314.936 15.46C314.909 13.34 314.063 12.28 312.396 12.28C311.543 12.28 310.903 12.5933 310.476 13.22C310.049 13.8067 309.796 14.5533 309.716 15.46H314.936ZM315.316 12.6C315.903 13.4267 316.196 14.4867 316.196 15.78C316.196 16.0333 316.189 16.2133 316.176 16.32H309.696C309.696 17.4533 309.909 18.3667 310.336 19.06C310.803 19.8467 311.516 20.24 312.476 20.24C313.716 20.24 314.516 19.6933 314.876 18.6L315.896 18.84C315.749 19.3467 315.496 19.7867 315.136 20.16C314.789 20.5333 314.389 20.8 313.936 20.96C313.523 21.1067 313.049 21.1933 312.516 21.22H312.476C311.063 21.22 310.009 20.7133 309.316 19.7C308.676 18.7933 308.356 17.64 308.356 16.24C308.356 14.7467 308.716 13.5533 309.436 12.66C310.169 11.7533 311.169 11.3 312.436 11.3C313.729 11.3 314.689 11.7333 315.316 12.6ZM319.808 12.46V11.5H326.768V12.4L321.108 20.06H326.748V21H319.608V20.12L325.208 12.46H319.808ZM130.476 47H129.176V37.5H130.436L130.476 39.02C131.143 37.8733 132.149 37.3 133.496 37.3C134.896 37.3 135.783 37.96 136.156 39.28C136.463 38.64 136.896 38.1533 137.456 37.82C138.029 37.4733 138.663 37.3 139.356 37.3C140.316 37.3 141.043 37.62 141.536 38.26C141.936 38.78 142.176 39.5 142.256 40.42C142.283 40.9267 142.296 41.34 142.296 41.66V47H140.996V41.38C140.996 40.4333 140.863 39.6867 140.596 39.14C140.303 38.5667 139.809 38.28 139.116 38.28C138.609 38.28 138.143 38.44 137.716 38.76C137.289 39.0667 136.956 39.4733 136.716 39.98C136.489 40.5 136.376 41.0067 136.376 41.5V47H135.056V41.38C135.056 40.34 134.909 39.5667 134.616 39.06C134.336 38.54 133.869 38.28 133.216 38.28C132.683 38.28 132.203 38.44 131.776 38.76C131.363 39.0667 131.043 39.48 130.816 40C130.589 40.52 130.476 41.0467 130.476 41.58V47ZM148.186 39.54C147.812 40.2867 147.626 41.1867 147.626 42.24C147.626 43.0933 147.746 43.84 147.986 44.48C148.226 45.2133 148.652 45.72 149.266 46C149.586 46.16 149.952 46.24 150.366 46.24C151.179 46.24 151.812 45.96 152.266 45.4C152.666 44.9067 152.919 44.2467 153.026 43.42C153.079 43.1 153.106 42.7067 153.106 42.24C153.106 41.4267 152.986 40.6867 152.746 40.02C152.479 39.2867 152.052 38.78 151.466 38.5C151.106 38.3533 150.739 38.28 150.366 38.28C149.326 38.28 148.599 38.7 148.186 39.54ZM153.326 38.6C154.072 39.4533 154.446 40.6667 154.446 42.24C154.446 43.8133 154.079 45.04 153.346 45.92C152.626 46.7867 151.632 47.22 150.366 47.22C149.099 47.22 148.099 46.7867 147.366 45.92C146.646 45.0533 146.286 43.8333 146.286 42.26C146.286 40.6733 146.652 39.4533 147.386 38.6C148.119 37.7333 149.112 37.3 150.366 37.3C151.606 37.3 152.592 37.7333 153.326 38.6ZM163.469 45.86C163.975 45.5667 164.335 44.98 164.549 44.1C164.655 43.5933 164.709 43.0133 164.709 42.36C164.709 40.6667 164.322 39.4867 163.549 38.82C163.122 38.46 162.595 38.28 161.969 38.28C161.182 38.28 160.569 38.6533 160.129 39.4C159.702 40.1333 159.489 41.1333 159.489 42.4C159.489 43.5467 159.715 44.4733 160.169 45.18C160.622 45.8867 161.229 46.24 161.989 46.24C162.562 46.24 163.055 46.1133 163.469 45.86ZM161.769 37.3C163.209 37.3 164.175 37.8667 164.669 39V33.32H165.989V47H164.929L164.749 45.4C164.509 45.96 164.122 46.4067 163.589 46.74C163.069 47.06 162.475 47.22 161.809 47.22C160.689 47.22 159.795 46.78 159.129 45.9C158.475 45.02 158.149 43.84 158.149 42.36C158.149 40.7867 158.462 39.5533 159.089 38.66C159.729 37.7533 160.622 37.3 161.769 37.3ZM170.491 47V37.5H171.791V47H170.491ZM170.471 35.48V33.82H171.771V35.48H170.471ZM178.64 34.6C178.506 34.8267 178.426 35.0733 178.4 35.34C178.36 35.74 178.34 36.1133 178.34 36.46V37.5H180.2V38.48H178.34V47H177.04V38.48H175.42V37.5H177.04V36.42C177.04 35.3533 177.206 34.58 177.54 34.1C177.873 33.6067 178.426 33.36 179.2 33.36C179.706 33.36 180.186 33.4867 180.64 33.74L180.34 34.6C179.886 34.4133 179.54 34.32 179.3 34.32C178.966 34.32 178.746 34.4133 178.64 34.6ZM184.081 47V37.5H185.381V47H184.081ZM184.061 35.48V33.82H185.361V35.48H184.061ZM196.049 41.46C196.023 39.34 195.176 38.28 193.509 38.28C192.656 38.28 192.016 38.5933 191.589 39.22C191.163 39.8067 190.909 40.5533 190.829 41.46H196.049ZM196.429 38.6C197.016 39.4267 197.309 40.4867 197.309 41.78C197.309 42.0333 197.303 42.2133 197.289 42.32H190.809C190.809 43.4533 191.023 44.3667 191.449 45.06C191.916 45.8467 192.629 46.24 193.589 46.24C194.829 46.24 195.629 45.6933 195.989 44.6L197.009 44.84C196.863 45.3467 196.609 45.7867 196.249 46.16C195.903 46.5333 195.503 46.8 195.049 46.96C194.636 47.1067 194.163 47.1933 193.629 47.22H193.589C192.176 47.22 191.123 46.7133 190.429 45.7C189.789 44.7933 189.469 43.64 189.469 42.24C189.469 40.7467 189.829 39.5533 190.549 38.66C191.283 37.7533 192.283 37.3 193.549 37.3C194.843 37.3 195.803 37.7333 196.429 38.6ZM202.541 37.5V39.28C202.714 38.88 202.961 38.5333 203.281 38.24C203.601 37.9467 203.941 37.7467 204.301 37.64C204.621 37.5467 204.974 37.5 205.361 37.5V38.7C204.334 38.7 203.608 39.0467 203.181 39.74C202.781 40.3667 202.581 41.14 202.581 42.06V47H201.261V37.5H202.541ZM209.031 37.5H210.631V39.5H209.031V37.5ZM210.631 43.4V45.42H209.031V43.4H210.631Z" fill="black"/>
<rect x="168.5" y="65.5" width="165" height="28" rx="9.5" fill="#FEFDCA" stroke="black"/>
<path d="M34.602 75.802L33.468 76.054C33.276 75.262 32.892 74.644 32.316 74.2C31.752 73.756 31.02 73.534 30.12 73.534C28.752 73.534 27.762 73.978 27.15 74.866C26.538 75.742 26.232 77.068 26.232 78.844C26.232 80.296 26.4 81.436 26.736 82.264C27.096 83.14 27.708 83.722 28.572 84.01C29.028 84.154 29.55 84.226 30.138 84.226C31.866 84.226 33.018 83.434 33.594 81.85L34.638 82.174C34.314 83.17 33.756 83.926 32.964 84.442C32.172 84.946 31.206 85.198 30.066 85.198C28.326 85.198 27.036 84.688 26.196 83.668C25.368 82.648 24.954 81.04 24.954 78.844C24.954 74.644 26.688 72.544 30.156 72.544C31.284 72.544 32.232 72.826 33 73.39C33.78 73.942 34.314 74.746 34.602 75.802ZM39.5516 78.286C39.2156 78.958 39.0476 79.768 39.0476 80.716C39.0476 81.484 39.1556 82.156 39.3716 82.732C39.5876 83.392 39.9716 83.848 40.5236 84.1C40.8116 84.244 41.1416 84.316 41.5136 84.316C42.2456 84.316 42.8156 84.064 43.2236 83.56C43.5836 83.116 43.8116 82.522 43.9076 81.778C43.9556 81.49 43.9796 81.136 43.9796 80.716C43.9796 79.984 43.8716 79.318 43.6556 78.718C43.4156 78.058 43.0316 77.602 42.5036 77.35C42.1796 77.218 41.8496 77.152 41.5136 77.152C40.5776 77.152 39.9236 77.53 39.5516 78.286ZM44.1776 77.44C44.8496 78.208 45.1856 79.3 45.1856 80.716C45.1856 82.132 44.8556 83.236 44.1956 84.028C43.5476 84.808 42.6536 85.198 41.5136 85.198C40.3736 85.198 39.4736 84.808 38.8136 84.028C38.1656 83.248 37.8416 82.15 37.8416 80.734C37.8416 79.306 38.1716 78.208 38.8316 77.44C39.4916 76.66 40.3856 76.27 41.5136 76.27C42.6296 76.27 43.5176 76.66 44.1776 77.44ZM48.8241 85V76.45H49.9761V76.72V77.242V77.836V78.07C50.2041 77.458 50.6241 76.996 51.2361 76.684C51.8121 76.408 52.3881 76.27 52.9641 76.27C53.6121 76.27 54.1401 76.396 54.5481 76.648C54.9681 76.912 55.2561 77.218 55.4121 77.566C55.5921 77.986 55.7121 78.4 55.7721 78.808C55.7961 79.144 55.8081 79.36 55.8081 79.456V80.122V85H54.6381V79.978C54.6381 79.306 54.5661 78.736 54.4221 78.268C54.2661 77.824 53.9781 77.524 53.5581 77.368C53.3541 77.284 53.0961 77.242 52.7841 77.242C51.9561 77.242 51.3201 77.464 50.8761 77.908C50.4921 78.292 50.2281 78.88 50.0841 79.672C50.0241 80.056 49.9941 80.44 49.9941 80.824V85H48.8241ZM64.8424 78.394C64.5064 77.578 63.7924 77.17 62.7004 77.17C61.2964 77.17 60.5944 77.668 60.5944 78.664C60.5944 79.024 60.7324 79.318 61.0084 79.546C61.2244 79.75 61.5904 79.9 62.1064 79.996C62.2984 80.056 62.5384 80.11 62.8264 80.158C63.8224 80.338 64.5544 80.62 65.0224 81.004C65.4904 81.376 65.7244 81.91 65.7244 82.606C65.7244 84.334 64.5964 85.198 62.3404 85.198C61.6204 85.198 60.9904 85.054 60.4504 84.766C59.8264 84.43 59.4064 83.878 59.1904 83.11L60.0904 82.768C60.2944 83.308 60.5764 83.698 60.9364 83.938C61.3084 84.178 61.8184 84.298 62.4664 84.298C63.9184 84.298 64.6444 83.812 64.6444 82.84C64.6444 82.312 64.4764 81.934 64.1404 81.706C63.8044 81.49 63.1024 81.274 62.0344 81.058C61.4944 80.938 60.9964 80.764 60.5404 80.536C60.1204 80.344 59.8144 80.002 59.6224 79.51C59.5264 79.246 59.4784 78.958 59.4784 78.646C59.4784 77.914 59.7664 77.338 60.3424 76.918C60.9184 76.486 61.6804 76.27 62.6284 76.27C63.4084 76.27 64.0324 76.402 64.5004 76.666C64.9804 76.918 65.3644 77.344 65.6524 77.944L64.8424 78.394ZM70.6684 78.286C70.3324 78.958 70.1644 79.768 70.1644 80.716C70.1644 81.484 70.2724 82.156 70.4884 82.732C70.7044 83.392 71.0884 83.848 71.6404 84.1C71.9284 84.244 72.2584 84.316 72.6304 84.316C73.3624 84.316 73.9324 84.064 74.3404 83.56C74.7004 83.116 74.9284 82.522 75.0244 81.778C75.0724 81.49 75.0964 81.136 75.0964 80.716C75.0964 79.984 74.9884 79.318 74.7724 78.718C74.5324 78.058 74.1484 77.602 73.6204 77.35C73.2964 77.218 72.9664 77.152 72.6304 77.152C71.6944 77.152 71.0404 77.53 70.6684 78.286ZM75.2944 77.44C75.9664 78.208 76.3024 79.3 76.3024 80.716C76.3024 82.132 75.9724 83.236 75.3124 84.028C74.6644 84.808 73.7704 85.198 72.6304 85.198C71.4904 85.198 70.5904 84.808 69.9304 84.028C69.2824 83.248 68.9584 82.15 68.9584 80.734C68.9584 79.306 69.2884 78.208 69.9484 77.44C70.6084 76.66 71.5024 76.27 72.6304 76.27C73.7464 76.27 74.6344 76.66 75.2944 77.44ZM81.1109 85H79.9409V76.45H81.0749L81.1109 77.818C81.7109 76.786 82.6169 76.27 83.8289 76.27C85.0889 76.27 85.8869 76.864 86.2229 78.052C86.4989 77.476 86.8889 77.038 87.3929 76.738C87.9089 76.426 88.4789 76.27 89.1029 76.27C89.9669 76.27 90.6209 76.558 91.0649 77.134C91.4249 77.602 91.6409 78.25 91.7129 79.078C91.7369 79.534 91.7489 79.906 91.7489 80.194V85H90.5789V79.942C90.5789 79.09 90.4589 78.418 90.2189 77.926C89.9549 77.41 89.5109 77.152 88.8869 77.152C88.4309 77.152 88.0109 77.296 87.6269 77.584C87.2429 77.86 86.9429 78.226 86.7269 78.682C86.5229 79.15 86.4209 79.606 86.4209 80.05V85H85.2329V79.942C85.2329 79.006 85.1009 78.31 84.8369 77.854C84.5849 77.386 84.1649 77.152 83.5769 77.152C83.0969 77.152 82.6649 77.296 82.2809 77.584C81.9089 77.86 81.6209 78.232 81.4169 78.7C81.2129 79.168 81.1109 79.642 81.1109 80.122V85ZM100.866 84.028C99.9056 84.808 98.8856 85.198 97.8056 85.198C97.0736 85.198 96.4736 85 96.0056 84.604C95.5496 84.208 95.3216 83.656 95.3216 82.948C95.3216 82.42 95.4776 81.946 95.7896 81.526C95.9936 81.25 96.4136 80.98 97.0496 80.716C97.4096 80.584 98.0156 80.44 98.8676 80.284C99.0116 80.248 99.3776 80.188 99.9656 80.104L100.794 79.996V79.636C100.794 78.712 100.644 78.076 100.344 77.728C100.044 77.368 99.5216 77.188 98.7776 77.188C97.7576 77.188 96.9596 77.548 96.3836 78.268C96.3836 78.256 96.1436 78.028 95.6636 77.584C96.3596 76.708 97.4216 76.27 98.8496 76.27C100.938 76.27 101.982 77.302 101.982 79.366V85H100.992L100.866 84.028ZM100.794 80.77L99.9656 80.914C99.0656 81.07 98.4236 81.19 98.0396 81.274C97.5476 81.406 97.1516 81.592 96.8516 81.832C96.5756 82.048 96.4376 82.366 96.4376 82.786C96.4376 83.854 96.9656 84.388 98.0216 84.388C98.9096 84.388 99.8336 83.98 100.794 83.164V80.77ZM110.039 84.73C109.619 85.006 109.127 85.144 108.563 85.144C107.819 85.144 107.279 84.922 106.943 84.478C106.619 84.022 106.457 83.29 106.457 82.282V77.296H105.197V76.45H106.547V73.732L107.663 73.426V76.45H109.517V77.296H107.663V82.822C107.663 83.77 108.047 84.244 108.815 84.244C109.067 84.244 109.403 84.148 109.823 83.956L110.039 84.73ZM113.187 85V76.45H114.357V85H113.187ZM113.169 74.632V73.138H114.339V74.632H113.169ZM119.746 78.286C119.41 78.958 119.242 79.768 119.242 80.716C119.242 81.484 119.35 82.156 119.566 82.732C119.782 83.392 120.166 83.848 120.718 84.1C121.006 84.244 121.336 84.316 121.708 84.316C122.44 84.316 123.01 84.064 123.418 83.56C123.778 83.116 124.006 82.522 124.102 81.778C124.15 81.49 124.174 81.136 124.174 80.716C124.174 79.984 124.066 79.318 123.85 78.718C123.61 78.058 123.226 77.602 122.698 77.35C122.374 77.218 122.044 77.152 121.708 77.152C120.772 77.152 120.118 77.53 119.746 78.286ZM124.372 77.44C125.044 78.208 125.38 79.3 125.38 80.716C125.38 82.132 125.05 83.236 124.39 84.028C123.742 84.808 122.848 85.198 121.708 85.198C120.568 85.198 119.668 84.808 119.008 84.028C118.36 83.248 118.036 82.15 118.036 80.734C118.036 79.306 118.366 78.208 119.026 77.44C119.686 76.66 120.58 76.27 121.708 76.27C122.824 76.27 123.712 76.66 124.372 77.44ZM129.019 85V76.45H130.171V76.72V77.242V77.836V78.07C130.399 77.458 130.819 76.996 131.431 76.684C132.007 76.408 132.583 76.27 133.159 76.27C133.807 76.27 134.335 76.396 134.743 76.648C135.163 76.912 135.451 77.218 135.607 77.566C135.787 77.986 135.907 78.4 135.967 78.808C135.991 79.144 136.003 79.36 136.003 79.456V80.122V85H134.833V79.978C134.833 79.306 134.761 78.736 134.617 78.268C134.461 77.824 134.173 77.524 133.753 77.368C133.549 77.284 133.291 77.242 132.979 77.242C132.151 77.242 131.515 77.464 131.071 77.908C130.687 78.292 130.423 78.88 130.279 79.672C130.219 80.056 130.189 80.44 130.189 80.824V85H129.019Z" fill="black"/>
<path d="M181.602 75.802L180.468 76.054C180.276 75.262 179.892 74.644 179.316 74.2C178.752 73.756 178.02 73.534 177.12 73.534C175.752 73.534 174.762 73.978 174.15 74.866C173.538 75.742 173.232 77.068 173.232 78.844C173.232 80.296 173.4 81.436 173.736 82.264C174.096 83.14 174.708 83.722 175.572 84.01C176.028 84.154 176.55 84.226 177.138 84.226C178.866 84.226 180.018 83.434 180.594 81.85L181.638 82.174C181.314 83.17 180.756 83.926 179.964 84.442C179.172 84.946 178.206 85.198 177.066 85.198C175.326 85.198 174.036 84.688 173.196 83.668C172.368 82.648 171.954 81.04 171.954 78.844C171.954 74.644 173.688 72.544 177.156 72.544C178.284 72.544 179.232 72.826 180 73.39C180.78 73.942 181.314 74.746 181.602 75.802ZM185.22 85V76.45H186.39V85H185.22ZM185.202 74.632V73.138H186.372V74.632H185.202ZM190.663 87.232L191.365 86.566C191.809 87.298 192.607 87.664 193.759 87.664C195.331 87.664 196.117 86.698 196.117 84.766V83.92C195.469 84.772 194.611 85.198 193.543 85.198C192.451 85.198 191.599 84.784 190.987 83.956C190.387 83.128 190.087 82.012 190.087 80.608C190.087 78.856 190.597 77.602 191.617 76.846C192.145 76.462 192.769 76.27 193.489 76.27C194.593 76.27 195.505 76.702 196.225 77.566L196.297 76.45H197.233V84.838C197.233 85.966 196.921 86.872 196.297 87.556C195.673 88.24 194.803 88.582 193.687 88.582C192.211 88.582 191.203 88.132 190.663 87.232ZM196.117 80.464C196.117 79.372 195.919 78.568 195.523 78.052C195.187 77.608 194.767 77.332 194.263 77.224C194.071 77.176 193.855 77.152 193.615 77.152C192.811 77.152 192.211 77.506 191.815 78.214C191.443 78.85 191.257 79.636 191.257 80.572C191.257 81.76 191.461 82.684 191.869 83.344C192.289 83.992 192.859 84.316 193.579 84.316C194.095 84.316 194.557 84.184 194.965 83.92C195.421 83.632 195.751 83.08 195.955 82.264C196.063 81.832 196.117 81.322 196.117 80.734V80.464ZM206.395 84.028C205.435 84.808 204.415 85.198 203.335 85.198C202.603 85.198 202.003 85 201.535 84.604C201.079 84.208 200.851 83.656 200.851 82.948C200.851 82.42 201.007 81.946 201.319 81.526C201.523 81.25 201.943 80.98 202.579 80.716C202.939 80.584 203.545 80.44 204.397 80.284C204.541 80.248 204.907 80.188 205.495 80.104L206.323 79.996V79.636C206.323 78.712 206.173 78.076 205.873 77.728C205.573 77.368 205.051 77.188 204.307 77.188C203.287 77.188 202.489 77.548 201.913 78.268C201.913 78.256 201.673 78.028 201.193 77.584C201.889 76.708 202.951 76.27 204.379 76.27C206.467 76.27 207.511 77.302 207.511 79.366V85H206.521L206.395 84.028ZM206.323 80.77L205.495 80.914C204.595 81.07 203.953 81.19 203.569 81.274C203.077 81.406 202.681 81.592 202.381 81.832C202.105 82.048 201.967 82.366 201.967 82.786C201.967 83.854 202.495 84.388 203.551 84.388C204.439 84.388 205.363 83.98 206.323 83.164V80.77ZM212.581 76.45V78.052C212.737 77.692 212.959 77.38 213.247 77.116C213.535 76.852 213.841 76.672 214.165 76.576C214.453 76.492 214.771 76.45 215.119 76.45V77.53C214.195 77.53 213.541 77.842 213.157 78.466C212.797 79.03 212.617 79.726 212.617 80.554V85H211.429V76.45H212.581ZM223.786 80.014C223.762 78.106 223 77.152 221.5 77.152C220.732 77.152 220.156 77.434 219.772 77.998C219.388 78.526 219.16 79.198 219.088 80.014H223.786ZM224.128 77.44C224.656 78.184 224.92 79.138 224.92 80.302C224.92 80.53 224.914 80.692 224.902 80.788H219.07C219.07 81.808 219.262 82.63 219.646 83.254C220.066 83.962 220.708 84.316 221.572 84.316C222.688 84.316 223.408 83.824 223.732 82.84L224.65 83.056C224.518 83.512 224.29 83.908 223.966 84.244C223.654 84.58 223.294 84.82 222.886 84.964C222.514 85.096 222.088 85.174 221.608 85.198H221.572C220.3 85.198 219.352 84.742 218.728 83.83C218.152 83.014 217.864 81.976 217.864 80.716C217.864 79.372 218.188 78.298 218.836 77.494C219.496 76.678 220.396 76.27 221.536 76.27C222.7 76.27 223.564 76.66 224.128 77.44ZM232.616 84.73C232.196 85.006 231.704 85.144 231.14 85.144C230.396 85.144 229.856 84.922 229.52 84.478C229.196 84.022 229.034 83.29 229.034 82.282V77.296H227.774V76.45H229.124V73.732L230.24 73.426V76.45H232.094V77.296H230.24V82.822C230.24 83.77 230.624 84.244 231.392 84.244C231.644 84.244 231.98 84.148 232.4 83.956L232.616 84.73ZM239.778 84.73C239.358 85.006 238.866 85.144 238.302 85.144C237.558 85.144 237.018 84.922 236.682 84.478C236.358 84.022 236.196 83.29 236.196 82.282V77.296H234.936V76.45H236.286V73.732L237.402 73.426V76.45H239.256V77.296H237.402V82.822C237.402 83.77 237.786 84.244 238.554 84.244C238.806 84.244 239.142 84.148 239.562 83.956L239.778 84.73ZM248.469 80.014C248.445 78.106 247.683 77.152 246.183 77.152C245.415 77.152 244.839 77.434 244.455 77.998C244.071 78.526 243.843 79.198 243.771 80.014H248.469ZM248.811 77.44C249.339 78.184 249.603 79.138 249.603 80.302C249.603 80.53 249.597 80.692 249.585 80.788H243.753C243.753 81.808 243.945 82.63 244.329 83.254C244.749 83.962 245.391 84.316 246.255 84.316C247.371 84.316 248.091 83.824 248.415 82.84L249.333 83.056C249.201 83.512 248.973 83.908 248.649 84.244C248.337 84.58 247.977 84.82 247.569 84.964C247.197 85.096 246.771 85.174 246.291 85.198H246.255C244.983 85.198 244.035 84.742 243.411 83.83C242.835 83.014 242.547 81.976 242.547 80.716C242.547 79.372 242.871 78.298 243.519 77.494C244.179 76.678 245.079 76.27 246.219 76.27C247.383 76.27 248.247 76.66 248.811 77.44ZM253.394 85.288L252.494 85.072L255.968 72.184L256.94 72.418L253.394 85.288ZM265.101 78.394C264.765 77.578 264.051 77.17 262.959 77.17C261.555 77.17 260.853 77.668 260.853 78.664C260.853 79.024 260.991 79.318 261.267 79.546C261.483 79.75 261.849 79.9 262.365 79.996C262.557 80.056 262.797 80.11 263.085 80.158C264.081 80.338 264.813 80.62 265.281 81.004C265.749 81.376 265.983 81.91 265.983 82.606C265.983 84.334 264.855 85.198 262.599 85.198C261.879 85.198 261.249 85.054 260.709 84.766C260.085 84.43 259.665 83.878 259.449 83.11L260.349 82.768C260.553 83.308 260.835 83.698 261.195 83.938C261.567 84.178 262.077 84.298 262.725 84.298C264.177 84.298 264.903 83.812 264.903 82.84C264.903 82.312 264.735 81.934 264.399 81.706C264.063 81.49 263.361 81.274 262.293 81.058C261.753 80.938 261.255 80.764 260.799 80.536C260.379 80.344 260.073 80.002 259.881 79.51C259.785 79.246 259.737 78.958 259.737 78.646C259.737 77.914 260.025 77.338 260.601 76.918C261.177 76.486 261.939 76.27 262.887 76.27C263.667 76.27 264.291 76.402 264.759 76.666C265.239 76.918 265.623 77.344 265.911 77.944L265.101 78.394ZM275.139 80.014C275.115 78.106 274.353 77.152 272.853 77.152C272.085 77.152 271.509 77.434 271.125 77.998C270.741 78.526 270.513 79.198 270.441 80.014H275.139ZM275.481 77.44C276.009 78.184 276.273 79.138 276.273 80.302C276.273 80.53 276.267 80.692 276.255 80.788H270.423C270.423 81.808 270.615 82.63 270.999 83.254C271.419 83.962 272.061 84.316 272.925 84.316C274.041 84.316 274.761 83.824 275.085 82.84L276.003 83.056C275.871 83.512 275.643 83.908 275.319 84.244C275.007 84.58 274.647 84.82 274.239 84.964C273.867 85.096 273.441 85.174 272.961 85.198H272.925C271.653 85.198 270.705 84.742 270.081 83.83C269.505 83.014 269.217 81.976 269.217 80.716C269.217 79.372 269.541 78.298 270.189 77.494C270.849 76.678 271.749 76.27 272.889 76.27C274.053 76.27 274.917 76.66 275.481 77.44ZM281.035 85H279.865V76.45H280.999L281.035 77.818C281.635 76.786 282.541 76.27 283.753 76.27C285.013 76.27 285.811 76.864 286.147 78.052C286.423 77.476 286.813 77.038 287.317 76.738C287.833 76.426 288.403 76.27 289.027 76.27C289.891 76.27 290.545 76.558 290.989 77.134C291.349 77.602 291.565 78.25 291.637 79.078C291.661 79.534 291.673 79.906 291.673 80.194V85H290.503V79.942C290.503 79.09 290.383 78.418 290.143 77.926C289.879 77.41 289.435 77.152 288.811 77.152C288.355 77.152 287.935 77.296 287.551 77.584C287.167 77.86 286.867 78.226 286.651 78.682C286.447 79.15 286.345 79.606 286.345 80.05V85H285.157V79.942C285.157 79.006 285.025 78.31 284.761 77.854C284.509 77.386 284.089 77.152 283.501 77.152C283.021 77.152 282.589 77.296 282.205 77.584C281.833 77.86 281.545 78.232 281.341 78.7C281.137 79.168 281.035 79.642 281.035 80.122V85ZM300.79 84.028C299.83 84.808 298.81 85.198 297.73 85.198C296.998 85.198 296.398 85 295.93 84.604C295.474 84.208 295.246 83.656 295.246 82.948C295.246 82.42 295.402 81.946 295.714 81.526C295.918 81.25 296.338 80.98 296.974 80.716C297.334 80.584 297.94 80.44 298.792 80.284C298.936 80.248 299.302 80.188 299.89 80.104L300.718 79.996V79.636C300.718 78.712 300.568 78.076 300.268 77.728C299.968 77.368 299.446 77.188 298.702 77.188C297.682 77.188 296.884 77.548 296.308 78.268C296.308 78.256 296.068 78.028 295.588 77.584C296.284 76.708 297.346 76.27 298.774 76.27C300.862 76.27 301.906 77.302 301.906 79.366V85H300.916L300.79 84.028ZM300.718 80.77L299.89 80.914C298.99 81.07 298.348 81.19 297.964 81.274C297.472 81.406 297.076 81.592 296.776 81.832C296.5 82.048 296.362 82.366 296.362 82.786C296.362 83.854 296.89 84.388 297.946 84.388C298.834 84.388 299.758 83.98 300.718 83.164V80.77ZM305.95 85V76.45H307.12V85H305.95ZM305.932 74.632V73.138H307.102V74.632H305.932ZM311.087 85V76.45H312.239V76.72V77.242V77.836V78.07C312.467 77.458 312.887 76.996 313.499 76.684C314.075 76.408 314.651 76.27 315.227 76.27C315.875 76.27 316.403 76.396 316.811 76.648C317.231 76.912 317.519 77.218 317.675 77.566C317.855 77.986 317.975 78.4 318.035 78.808C318.059 79.144 318.071 79.36 318.071 79.456V80.122V85H316.901V79.978C316.901 79.306 316.829 78.736 316.685 78.268C316.529 77.824 316.241 77.524 315.821 77.368C315.617 77.284 315.359 77.242 315.047 77.242C314.219 77.242 313.583 77.464 313.139 77.908C312.755 78.292 312.491 78.88 312.347 79.672C312.287 80.056 312.257 80.44 312.257 80.824V85H311.087ZM327.592 80.014C327.568 78.106 326.806 77.152 325.306 77.152C324.538 77.152 323.962 77.434 323.578 77.998C323.194 78.526 322.966 79.198 322.894 80.014H327.592ZM327.934 77.44C328.462 78.184 328.726 79.138 328.726 80.302C328.726 80.53 328.72 80.692 328.708 80.788H322.876C322.876 81.808 323.068 82.63 323.452 83.254C323.872 83.962 324.514 84.316 325.378 84.316C326.494 84.316 327.214 83.824 327.538 82.84L328.456 83.056C328.324 83.512 328.096 83.908 327.772 84.244C327.46 84.58 327.1 84.82 326.692 84.964C326.32 85.096 325.894 85.174 325.414 85.198H325.378C324.106 85.198 323.158 84.742 322.534 83.83C321.958 83.014 321.67 81.976 321.67 80.716C321.67 79.372 321.994 78.298 322.642 77.494C323.302 76.678 324.202 76.27 325.342 76.27C326.506 76.27 327.37 76.66 327.934 77.44Z" fill="black"/>
<rect x="0.5" y="0.5" width="343" height="183" stroke="#7C7C7C"/>
</svg>
